# Blender 4.1.1
# www.blender.org
o Fir
v -0.008473 0.043199 0.005398
v 0.000585 0.043199 0.010268
v 0.009058 0.043199 0.004870
v 0.008473 0.043199 -0.005398
v -0.000585 0.043199 -0.010268
v -0.009058 0.043199 -0.004870
v -0.008473 0.021600 0.005398
v 0.000585 0.021600 0.010268
v 0.009058 0.021600 0.004870
v 0.008473 0.021600 -0.005398
v -0.000585 0.021600 -0.010268
v -0.009058 0.021600 -0.004870
v -0.012038 0.000000 0.007669
v 0.000831 0.000000 0.014587
v 0.012869 0.000000 0.006918
v 0.012038 0.000000 -0.007669
v -0.000831 0.000000 -0.014587
v -0.012869 0.000000 -0.006918
v -0.003058 0.062548 -0.005863
v -0.038245 0.022212 0.020541
v -0.034382 0.024460 0.029435
v -0.024185 0.023827 0.032686
v -0.021257 0.021731 0.036018
v -0.013986 0.025289 0.039623
v -0.001511 0.023773 0.038461
v 0.004788 0.024222 0.040384
v 0.010935 0.023023 0.043902
v 0.023135 0.023637 0.038532
v 0.024876 0.023311 0.028284
v 0.028993 0.022912 0.033084
v 0.035347 0.024110 0.020055
v 0.037586 0.024615 0.016608
v 0.042347 0.023698 0.009329
v 0.039614 0.020644 -0.000889
v 0.041792 0.020294 -0.014023
v 0.031684 0.020651 -0.019513
v 0.034988 0.022214 -0.025725
v 0.026364 0.020866 -0.034680
v 0.022114 0.021237 -0.036260
v 0.007693 0.019317 -0.040488
v 0.008745 0.019062 -0.040085
v -0.008123 0.017455 -0.043959
v -0.009454 0.019432 -0.045868
v -0.013944 0.020484 -0.036043
v -0.021866 0.018031 -0.033384
v -0.036082 0.018385 -0.025691
v -0.032190 0.021454 -0.018385
v -0.040052 0.018395 -0.016523
v -0.038177 0.021301 -0.003352
v -0.037791 0.023125 0.006368
v -0.041452 0.022636 0.009724
v 0.003004 0.020269 0.001116
v -0.000329 0.082317 -0.000366
v -0.027541 0.040833 0.023466
v -0.022413 0.041980 0.030263
v -0.013495 0.040647 0.030695
v -0.010633 0.038114 0.032539
v -0.003651 0.040997 0.034436
v 0.006172 0.039174 0.030637
v 0.011742 0.039191 0.030945
v 0.017352 0.037413 0.032378
v 0.026309 0.038155 0.025458
v 0.025668 0.038854 0.016615
v 0.029948 0.037805 0.019639
v 0.032662 0.040144 0.007732
v 0.033854 0.040929 0.004489
v 0.036214 0.040622 -0.002629
v 0.031672 0.038777 -0.010861
v 0.030812 0.039742 -0.022175
v 0.021496 0.041038 -0.024503
v 0.023107 0.043125 -0.030107
v 0.014159 0.043045 -0.035827
v 0.010407 0.043731 -0.036177
v -0.002391 0.042791 -0.036856
v -0.001475 0.042458 -0.036781
v -0.016173 0.041878 -0.036609
v -0.017458 0.044084 -0.037636
v -0.019079 0.044246 -0.028462
v -0.025249 0.041818 -0.024922
v -0.035303 0.041860 -0.015534
v -0.030392 0.043987 -0.009942
v -0.036727 0.041041 -0.007150
v -0.032313 0.042458 0.003674
v -0.029900 0.043221 0.011831
v -0.032270 0.042512 0.015303
v 0.002125 0.039497 -0.001509
v -0.005802 0.104550 0.000327
v -0.028595 0.060285 0.007206
v -0.027602 0.061750 0.014075
v -0.021053 0.061268 0.017883
v -0.019289 0.058987 0.020350
v -0.015336 0.062465 0.024411
v -0.006447 0.061683 0.025543
v -0.002499 0.062223 0.027940
v 0.001318 0.060961 0.031180
v 0.010381 0.062713 0.029708
v 0.013169 0.063553 0.023106
v 0.015301 0.062849 0.026959
v 0.021462 0.065707 0.019455
v 0.023449 0.066674 0.017586
v 0.027923 0.066763 0.013405
v 0.028006 0.064694 0.005743
v 0.031533 0.065836 -0.002720
v 0.025422 0.066287 -0.008044
v 0.028418 0.068640 -0.011456
v 0.024068 0.067843 -0.019056
v 0.021358 0.068174 -0.020781
v 0.012407 0.066039 -0.026260
v 0.013097 0.065794 -0.025845
v 0.002380 0.063815 -0.031460
v 0.001506 0.065904 -0.032721
v -0.003188 0.065694 -0.026775
v -0.008681 0.062617 -0.026622
v -0.019598 0.061480 -0.023818
v -0.018450 0.063925 -0.017907
v -0.023702 0.060335 -0.018351
v -0.024801 0.061905 -0.008875
v -0.026251 0.062700 -0.002087
v -0.029196 0.061690 -0.000516
v 0.002763 0.062373 0.000897
v -0.007211 0.128101 -0.002800
v -0.014269 0.087771 0.022592
v -0.010218 0.089971 0.025747
v -0.004485 0.089344 0.024629
v -0.002079 0.087248 0.025622
v 0.002095 0.090784 0.025166
v 0.007789 0.089304 0.021330
v 0.011253 0.089753 0.020536
v 0.015176 0.088555 0.020685
v 0.019484 0.089216 0.014704
v 0.017603 0.088945 0.009228
v 0.020854 0.088532 0.010498
v 0.020320 0.089800 0.002299
v 0.020431 0.090324 -0.000035
v 0.020807 0.089457 -0.004829
v 0.016991 0.086463 -0.008881
v 0.014550 0.086184 -0.015890
v 0.008282 0.086548 -0.015873
v 0.008094 0.088139 -0.019928
v 0.001715 0.086826 -0.021891
v -0.000741 0.087195 -0.021542
v -0.008570 0.085278 -0.019575
v -0.007948 0.085024 -0.019644
v -0.016862 0.083413 -0.016863
v -0.018126 0.085387 -0.017583
v -0.017705 0.086377 -0.011623
v -0.020592 0.083908 -0.007997
v -0.025297 0.084196 -0.000400
v -0.021708 0.087220 0.001909
v -0.024739 0.084152 0.005171
v -0.020534 0.086982 0.010916
v -0.017882 0.088750 0.015449
v -0.018691 0.088240 0.018122
v 0.000216 0.086011 0.002037
v 0.000707 0.152784 0.000102
v -0.017686 0.112234 0.007650
v -0.015850 0.113656 0.011304
v -0.011858 0.112396 0.012390
v -0.010915 0.109960 0.013490
v -0.007607 0.112939 0.015112
v -0.002834 0.111039 0.014345
v -0.000273 0.111099 0.015053
v 0.002050 0.109415 0.016256
v 0.006932 0.109947 0.014007
v 0.007531 0.110311 0.009899
v 0.009146 0.109403 0.011705
v 0.011733 0.111305 0.006559
v 0.012661 0.111972 0.005205
v 0.014407 0.111416 0.002179
v 0.012922 0.109249 -0.002084
v 0.013676 0.109785 -0.007342
v 0.009675 0.110934 -0.009339
v 0.011131 0.112813 -0.011713
v 0.007507 0.112470 -0.015247
v 0.005854 0.113118 -0.015780
v -0.000110 0.112085 -0.017408
v 0.000281 0.111762 -0.017285
v -0.006616 0.111108 -0.018711
v -0.006931 0.113258 -0.019281
v -0.008541 0.113750 -0.015239
v -0.011948 0.111430 -0.014280
v -0.017509 0.111764 -0.011001
v -0.015577 0.114116 -0.007906
v -0.019034 0.111251 -0.007315
v -0.017890 0.113088 -0.001884
v -0.017478 0.114165 0.002112
v -0.018969 0.113575 0.003451
v -0.001639 0.110145 -0.000795
vn -0.0000 1.0000 -0.0000
vn -0.4735 -0.0000 0.8808
vn 0.5373 -0.0000 0.8434
vn 0.9984 -0.0000 -0.0569
vn 0.4735 -0.0000 -0.8808
vn -0.5373 -0.0000 -0.8434
vn -0.9984 -0.0000 0.0569
vn -0.4667 0.1683 0.8682
vn 0.5293 0.1722 0.8308
vn 0.9841 0.1683 -0.0561
vn 0.4667 0.1683 -0.8682
vn -0.5293 0.1722 -0.8308
vn -0.9841 0.1683 0.0561
vn -0.0000 -1.0000 -0.0000
vn -0.7038 0.6985 0.1291
vn -0.1625 0.7393 0.6535
vn -0.1956 0.7434 0.6396
vn -0.5612 0.7013 0.4396
vn 0.1511 0.7466 0.6479
vn -0.2479 0.7248 0.6428
vn -0.2260 0.7308 0.6440
vn 0.2113 0.7935 0.5708
vn 0.7624 0.6378 0.1092
vn -0.7576 0.0282 0.6522
vn 0.5434 0.7694 0.3358
vn 0.4810 0.7670 0.4247
vn 0.5701 0.7740 0.2755
vn 0.6722 0.6405 -0.3713
vn 0.6918 0.7158 0.0956
vn 0.4075 0.5703 -0.7132
vn 0.7380 0.4474 0.5051
vn 0.4580 0.7011 -0.5466
vn 0.3073 0.6783 -0.6674
vn 0.1366 0.6398 -0.7563
vn -0.4061 -0.6307 0.6613
vn 0.1154 0.6335 -0.7651
vn 0.8934 0.2271 -0.3876
vn -0.7716 0.4904 -0.4051
vn -0.4152 0.5988 -0.6849
vn -0.3704 0.5966 -0.7119
vn -0.8261 0.5178 0.2225
vn -0.3801 0.5055 -0.7746
vn -0.7620 0.6467 -0.0342
vn -0.7610 0.6424 -0.0903
vn -0.6538 0.3715 -0.6592
vn -0.6575 0.7196 0.2232
vn 0.0581 -0.9736 0.2208
vn -0.0766 -0.9960 0.0463
vn -0.3818 -0.8957 -0.2279
vn 0.3178 -0.9120 0.2591
vn -0.1130 -0.9904 0.0793
vn 0.0409 -0.9943 0.0982
vn -0.2496 -0.9623 0.1082
vn 0.0725 -0.9961 0.0507
vn 0.0818 -0.9956 0.0456
vn -0.7515 -0.2032 0.6277
vn 0.1330 -0.9908 -0.0262
vn 0.1464 -0.9880 -0.0496
vn 0.0528 -0.9859 0.1587
vn 0.0252 -0.9596 0.2801
vn 0.0118 -0.9995 0.0286
vn -0.0144 -0.9992 -0.0386
vn -0.2447 -0.9015 -0.3569
vn 0.1028 -0.9934 0.0505
vn -0.0650 -0.9961 -0.0591
vn 0.1214 -0.9919 0.0364
vn 0.2343 0.9722 0.0042
vn 0.0854 -0.9955 0.0411
vn -0.8972 -0.3678 0.2445
vn -0.1225 -0.9912 0.0501
vn 0.2559 -0.9589 -0.1223
vn 0.0073 -0.9982 0.0595
vn -0.3057 -0.8087 0.5025
vn 0.2256 -0.8591 -0.4593
vn -0.0485 -0.9739 0.2218
vn -0.0448 -0.9815 0.1860
vn -0.0995 -0.9634 -0.2490
vn -0.0574 -0.9981 -0.0221
vn -0.6550 0.6505 0.3844
vn 0.0487 0.5870 0.8081
vn 0.0097 0.5956 0.8032
vn -0.4310 0.6013 0.6728
vn 0.3856 0.5760 0.7207
vn -0.0467 0.5783 0.8145
vn -0.0226 0.5832 0.8120
vn 0.4382 0.6359 0.6354
vn 0.8618 0.5067 -0.0225
vn -0.5818 -0.0304 0.8128
vn 0.7266 0.6237 0.2882
vn 0.6835 0.6113 0.3990
vn 0.7398 0.6366 0.2179
vn 0.6434 0.5904 -0.4874
vn 0.8045 0.5938 -0.0105
vn 0.2721 0.5889 -0.7610
vn 0.8959 0.2654 0.3563
vn 0.3840 0.6928 -0.6104
vn 0.1918 0.6958 -0.6922
vn -0.0109 0.6786 -0.7344
vn -0.2907 -0.6408 0.7105
vn -0.0353 0.6746 -0.7373
vn 0.7972 0.1986 -0.5701
vn -0.8352 0.5271 -0.1569
vn -0.5534 0.6536 -0.5163
vn -0.5152 0.6534 -0.5547
vn -0.7453 0.4652 0.4776
vn -0.5388 0.5761 -0.6146
vn -0.7490 0.6237 0.2238
vn -0.7608 0.6273 0.1663
vn -0.7773 0.4511 -0.4386
vn -0.5859 0.6569 0.4745
vn 0.0588 -0.9907 0.1228
vn -0.1461 -0.9886 -0.0356
vn -0.5524 -0.7984 -0.2394
vn 0.3574 -0.9290 0.0962
vn -0.1778 -0.9840 0.0125
vn 0.0036 -0.9999 -0.0105
vn -0.3210 -0.9432 0.0862
vn 0.0262 -0.9970 -0.0731
vn 0.0354 -0.9961 -0.0813
vn -0.5984 -0.2233 0.7694
vn 0.0741 -0.9816 -0.1760
vn 0.0829 -0.9751 -0.2055
vn 0.0347 -0.9979 0.0545
vn 0.0389 -0.9794 0.1981
vn -0.0499 -0.9954 -0.0812
vn -0.0994 -0.9837 -0.1496
vn -0.4372 -0.7945 -0.4215
vn 0.0610 -0.9948 -0.0815
vn -0.1633 -0.9738 -0.1580
vn 0.0783 -0.9917 -0.1024
vn 0.3380 0.9401 0.0444
vn 0.0382 -0.9954 -0.0875
vn -0.8542 -0.2994 0.4250
vn -0.1972 -0.9802 -0.0176
vn 0.1877 -0.9314 -0.3118
vn -0.0462 -0.9979 -0.0449
vn -0.2490 -0.8122 0.5276
vn 0.0646 -0.7559 -0.6515
vn -0.0616 -0.9861 0.1542
vn -0.0682 -0.9913 0.1130
vn -0.2531 -0.8994 -0.3565
vn -0.1441 -0.9824 -0.1186
vn -0.8868 0.4612 0.0299
vn -0.4195 0.4642 0.7801
vn -0.4549 0.4677 0.7579
vn -0.8032 0.4224 0.4201
vn -0.0650 0.5067 0.8597
vn -0.5089 0.4421 0.7386
vn -0.4864 0.4504 0.7487
vn 0.0201 0.5798 0.8145
vn 0.7390 0.5545 0.3826
vn -0.8763 -0.1513 0.4574
vn 0.4639 0.6315 0.6213
vn 0.3684 0.6058 0.7052
vn 0.5115 0.6507 0.5612
vn 0.7633 0.6257 -0.1606
vn 0.6832 0.6298 0.3697
vn 0.5573 0.5839 -0.5903
vn 0.5911 0.3204 0.7402
vn 0.5892 0.6961 -0.4103
vn 0.4528 0.6757 -0.5818
vn 0.2889 0.6327 -0.7185
vn -0.5507 -0.6347 0.5421
vn 0.2683 0.6256 -0.7326
vn 0.9409 0.3046 -0.1481
vn -0.7413 0.3497 -0.5729
vn -0.3177 0.5280 -0.7876
vn -0.2621 0.5344 -0.8036
vn -0.9613 0.2646 0.0773
vn -0.2414 0.4589 -0.8550
vn -0.8850 0.4318 -0.1741
vn -0.8675 0.4375 -0.2365
vn -0.5274 0.3035 -0.7936
vn -0.8686 0.4711 0.1534
vn 0.1038 -0.9757 0.1931
vn -0.0196 -0.9955 -0.0923
vn -0.3243 -0.7988 -0.5067
vn 0.4157 -0.8501 0.3233
vn -0.0801 -0.9951 -0.0578
vn 0.1244 -0.9921 0.0187
vn -0.2689 -0.9614 -0.0577
vn 0.1839 -0.9823 -0.0370
vn 0.1983 -0.9793 -0.0409
vn -0.8550 -0.3083 0.4170
vn 0.2908 -0.9489 -0.1226
vn 0.3156 -0.9370 -0.1497
vn 0.1192 -0.9871 0.1067
vn 0.0386 -0.9646 0.2608
vn 0.1080 -0.9902 -0.0885
vn 0.0937 -0.9772 -0.1903
vn -0.1167 -0.7666 -0.6314
vn 0.2251 -0.9740 -0.0267
vn 0.0303 -0.9718 -0.2340
vn 0.2549 -0.9662 -0.0399
vn 0.2148 0.9549 0.2052
vn 0.2047 -0.9778 -0.0460
vn -0.9210 -0.3895 -0.0065
vn -0.0836 -0.9914 -0.1010
vn 0.4741 -0.8563 -0.2047
vn 0.0915 -0.9947 -0.0469
vn -0.4268 -0.8035 0.4151
vn 0.4854 -0.6359 -0.6000
vn -0.0396 -0.9865 0.1589
vn -0.0227 -0.9935 0.1115
vn 0.0401 -0.8730 -0.4860
vn 0.0290 -0.9830 -0.1812
vn -0.6871 0.4694 0.5546
vn 0.2168 0.5741 0.7896
vn 0.1731 0.5770 0.7982
vn -0.3431 0.5070 0.7907
vn 0.5526 0.5837 0.5950
vn 0.1163 0.5566 0.8226
vn 0.1413 0.5634 0.8140
vn 0.5941 0.6319 0.4977
vn 0.8430 0.4386 -0.3113
vn -0.3564 0.0606 0.9324
vn 0.8090 0.5866 0.0381
vn 0.7893 0.5900 0.1698
vn 0.8078 0.5879 -0.0429
vn 0.4993 0.4023 -0.7674
vn 0.8048 0.5117 -0.3007
vn 0.0152 0.3052 -0.9522
vn 0.9420 0.3249 0.0839
vn 0.1785 0.4446 -0.8778
vn -0.0682 0.4066 -0.9110
vn -0.3087 0.3554 -0.8823
vn -0.0454 -0.3631 0.9306
vn -0.3359 0.3480 -0.8752
vn 0.6175 0.1117 -0.7786
vn -0.9708 0.2380 0.0290
vn -0.8353 0.3066 -0.4563
vn -0.8048 0.3036 -0.5100
vn -0.6881 0.3191 0.6517
vn -0.8102 0.2249 -0.5413
vn -0.8220 0.4012 0.4041
vn -0.8525 0.3917 0.3461
vn -0.9550 0.1369 -0.2631
vn -0.5877 0.5022 0.6343
vn 0.2824 -0.9182 0.2776
vn -0.0829 -0.9882 0.1286
vn -0.6511 -0.7586 -0.0236
vn 0.6495 -0.7534 0.1027
vn -0.1113 -0.9715 0.2095
vn 0.1522 -0.9824 0.1080
vn -0.2858 -0.8917 0.3509
vn 0.1601 -0.9871 0.0062
vn 0.1703 -0.9854 -0.0097
vn -0.3707 -0.0724 0.9259
vn 0.1848 -0.9693 -0.1620
vn 0.1838 -0.9610 -0.2068
vn 0.2235 -0.9559 0.1904
vn 0.2767 -0.8789 0.3886
vn 0.0431 -0.9988 0.0248
vn -0.0580 -0.9967 -0.0560
vn -0.5663 -0.7758 -0.2783
vn 0.2076 -0.9780 -0.0203
vn -0.1545 -0.9870 -0.0433
vn 0.2236 -0.9730 -0.0579
vn 0.3558 0.9179 -0.1757
vn 0.1718 -0.9849 -0.0199
vn -0.7108 -0.2105 0.6712
vn -0.1512 -0.9734 0.1723
vn 0.2738 -0.8823 -0.3828
vn 0.0634 -0.9950 0.0770
vn -0.0367 -0.5786 0.8148
vn -0.0351 -0.7115 -0.7018
vn 0.1151 -0.9219 0.3699
vn 0.0907 -0.9446 0.3153
vn -0.3396 -0.8996 -0.2745
vn -0.1118 -0.9937 0.0063
vn -0.8599 0.4386 0.2611
vn -0.1494 0.3301 0.9321
vn -0.1940 0.3403 0.9201
vn -0.6606 0.3814 0.6466
vn 0.2637 0.2914 0.9195
vn -0.2587 0.3315 0.9073
vn -0.2315 0.3333 0.9140
vn 0.3638 0.3350 0.8692
vn 0.9685 0.1921 0.1583
vn -0.7356 0.0378 0.6764
vn 0.8058 0.2942 0.5139
vn 0.7172 0.2893 0.6339
vn 0.8485 0.3028 0.4341
vn 0.8614 0.2635 -0.4343
vn 0.9521 0.2589 0.1629
vn 0.4929 0.2906 -0.8201
vn 0.8319 0.0537 0.5524
vn 0.6316 0.3666 -0.6831
vn 0.4161 0.3840 -0.8242
vn 0.1802 0.3857 -0.9049
vn -0.5195 -0.3289 0.7886
vn 0.1518 0.3844 -0.9106
vn 0.9118 0.0248 -0.4098
vn -0.8537 0.3528 -0.3830
vn -0.4978 0.4168 -0.7606
vn -0.4442 0.4125 -0.7953
vn -0.8944 0.3098 0.3227
vn -0.4355 0.3547 -0.8274
vn -0.9054 0.4218 0.0481
vn -0.9049 0.4250 -0.0211
vn -0.7006 0.2961 -0.6492
vn -0.8101 0.4396 0.3880
vn 0.0555 -0.9395 0.3379
vn -0.2861 -0.9564 -0.0584
vn -0.7252 -0.4962 -0.4773
vn 0.5336 -0.7759 0.3365
vn -0.3660 -0.9303 0.0261
vn 0.0069 -0.9982 0.0595
vn -0.6177 -0.7800 0.1002
vn 0.0809 -0.9949 -0.0601
vn 0.1030 -0.9920 -0.0729
vn -0.7576 -0.0529 0.6505
vn 0.2149 -0.9463 -0.2416
vn 0.2407 -0.9258 -0.2916
vn 0.0400 -0.9784 0.2028
vn -0.0143 -0.8892 0.4573
vn -0.0708 -0.9913 -0.1112
vn -0.1383 -0.9525 -0.2713
vn -0.4970 -0.5060 -0.7050
vn 0.1534 -0.9862 -0.0616
vn -0.2586 -0.9146 -0.3108
vn 0.1953 -0.9760 -0.0960
vn 0.6027 0.7843 0.1471
vn 0.1113 -0.9902 -0.0841
vn -0.9621 -0.0709 0.2634
vn -0.3899 -0.9198 -0.0433
vn 0.4328 -0.8041 -0.4075
vn -0.0798 -0.9962 -0.0340
vn -0.5019 -0.5085 0.6997
vn 0.2754 -0.5016 -0.8201
vn -0.1896 -0.9173 0.3502
vn -0.1891 -0.9431 0.2736
vn -0.2972 -0.7066 -0.6421
vn -0.2424 -0.9432 -0.2272
s 0
f 1//1 2//1 3//1 4//1 5//1 6//1
f 1//2 7//2 8//2 2//2
f 2//3 8//3 9//3 3//3
f 3//4 9//4 10//4 4//4
f 4//5 10//5 11//5 5//5
f 5//6 11//6 12//6 6//6
f 6//7 12//7 7//7 1//7
f 7//8 13//8 14//8 8//8
f 8//9 14//9 15//9 9//9
f 9//10 15//10 16//10 10//10
f 10//11 16//11 17//11 11//11
f 11//12 17//12 18//12 12//12
f 12//13 18//13 13//13 7//13
f 18//14 17//14 16//14 15//14 14//14 13//14
f 20//15 21//15 19//15
f 21//16 22//16 19//16
f 22//17 23//17 19//17
f 23//18 24//18 19//18
f 24//19 25//19 19//19
f 25//20 26//20 19//20
f 26//21 27//21 19//21
f 27//22 28//22 19//22
f 28//23 29//23 19//23
f 29//24 30//24 19//24
f 30//25 31//25 19//25
f 31//26 32//26 19//26
f 32//27 33//27 19//27
f 33//28 34//28 19//28
f 34//29 35//29 19//29
f 35//30 36//30 19//30
f 36//31 37//31 19//31
f 37//32 38//32 19//32
f 38//33 39//33 19//33
f 39//34 40//34 19//34
f 40//35 41//35 19//35
f 41//36 42//36 19//36
f 42//37 43//37 19//37
f 43//38 44//38 19//38
f 44//39 45//39 19//39
f 45//40 46//40 19//40
f 46//41 47//41 19//41
f 47//42 48//42 19//42
f 48//43 49//43 19//43
f 49//44 50//44 19//44
f 50//45 51//45 19//45
f 51//46 20//46 19//46
f 20//47 52//47 21//47
f 21//48 52//48 22//48
f 22//49 52//49 23//49
f 23//50 52//50 24//50
f 24//51 52//51 25//51
f 25//52 52//52 26//52
f 26//53 52//53 27//53
f 27//54 52//54 28//54
f 28//55 52//55 29//55
f 29//56 52//56 30//56
f 30//57 52//57 31//57
f 31//58 52//58 32//58
f 32//59 52//59 33//59
f 33//60 52//60 34//60
f 34//61 52//61 35//61
f 35//62 52//62 36//62
f 36//63 52//63 37//63
f 37//64 52//64 38//64
f 38//65 52//65 39//65
f 39//66 52//66 40//66
f 40//67 52//67 41//67
f 41//68 52//68 42//68
f 42//69 52//69 43//69
f 43//70 52//70 44//70
f 44//71 52//71 45//71
f 45//72 52//72 46//72
f 46//73 52//73 47//73
f 47//74 52//74 48//74
f 48//75 52//75 49//75
f 49//76 52//76 50//76
f 50//77 52//77 51//77
f 51//78 52//78 20//78
f 54//79 55//79 53//79
f 55//80 56//80 53//80
f 56//81 57//81 53//81
f 57//82 58//82 53//82
f 58//83 59//83 53//83
f 59//84 60//84 53//84
f 60//85 61//85 53//85
f 61//86 62//86 53//86
f 62//87 63//87 53//87
f 63//88 64//88 53//88
f 64//89 65//89 53//89
f 65//90 66//90 53//90
f 66//91 67//91 53//91
f 67//92 68//92 53//92
f 68//93 69//93 53//93
f 69//94 70//94 53//94
f 70//95 71//95 53//95
f 71//96 72//96 53//96
f 72//97 73//97 53//97
f 73//98 74//98 53//98
f 74//99 75//99 53//99
f 75//100 76//100 53//100
f 76//101 77//101 53//101
f 77//102 78//102 53//102
f 78//103 79//103 53//103
f 79//104 80//104 53//104
f 80//105 81//105 53//105
f 81//106 82//106 53//106
f 82//107 83//107 53//107
f 83//108 84//108 53//108
f 84//109 85//109 53//109
f 85//110 54//110 53//110
f 54//111 86//111 55//111
f 55//112 86//112 56//112
f 56//113 86//113 57//113
f 57//114 86//114 58//114
f 58//115 86//115 59//115
f 59//116 86//116 60//116
f 60//117 86//117 61//117
f 61//118 86//118 62//118
f 62//119 86//119 63//119
f 63//120 86//120 64//120
f 64//121 86//121 65//121
f 65//122 86//122 66//122
f 66//123 86//123 67//123
f 67//124 86//124 68//124
f 68//125 86//125 69//125
f 69//126 86//126 70//126
f 70//127 86//127 71//127
f 71//128 86//128 72//128
f 72//129 86//129 73//129
f 73//130 86//130 74//130
f 74//131 86//131 75//131
f 75//132 86//132 76//132
f 76//133 86//133 77//133
f 77//134 86//134 78//134
f 78//135 86//135 79//135
f 79//136 86//136 80//136
f 80//137 86//137 81//137
f 81//138 86//138 82//138
f 82//139 86//139 83//139
f 83//140 86//140 84//140
f 84//141 86//141 85//141
f 85//142 86//142 54//142
f 88//143 89//143 87//143
f 89//144 90//144 87//144
f 90//145 91//145 87//145
f 91//146 92//146 87//146
f 92//147 93//147 87//147
f 93//148 94//148 87//148
f 94//149 95//149 87//149
f 95//150 96//150 87//150
f 96//151 97//151 87//151
f 97//152 98//152 87//152
f 98//153 99//153 87//153
f 99//154 100//154 87//154
f 100//155 101//155 87//155
f 101//156 102//156 87//156
f 102//157 103//157 87//157
f 103//158 104//158 87//158
f 104//159 105//159 87//159
f 105//160 106//160 87//160
f 106//161 107//161 87//161
f 107//162 108//162 87//162
f 108//163 109//163 87//163
f 109//164 110//164 87//164
f 110//165 111//165 87//165
f 111//166 112//166 87//166
f 112//167 113//167 87//167
f 113//168 114//168 87//168
f 114//169 115//169 87//169
f 115//170 116//170 87//170
f 116//171 117//171 87//171
f 117//172 118//172 87//172
f 118//173 119//173 87//173
f 119//174 88//174 87//174
f 88//175 120//175 89//175
f 89//176 120//176 90//176
f 90//177 120//177 91//177
f 91//178 120//178 92//178
f 92//179 120//179 93//179
f 93//180 120//180 94//180
f 94//181 120//181 95//181
f 95//182 120//182 96//182
f 96//183 120//183 97//183
f 97//184 120//184 98//184
f 98//185 120//185 99//185
f 99//186 120//186 100//186
f 100//187 120//187 101//187
f 101//188 120//188 102//188
f 102//189 120//189 103//189
f 103//190 120//190 104//190
f 104//191 120//191 105//191
f 105//192 120//192 106//192
f 106//193 120//193 107//193
f 107//194 120//194 108//194
f 108//195 120//195 109//195
f 109//196 120//196 110//196
f 110//197 120//197 111//197
f 111//198 120//198 112//198
f 112//199 120//199 113//199
f 113//200 120//200 114//200
f 114//201 120//201 115//201
f 115//202 120//202 116//202
f 116//203 120//203 117//203
f 117//204 120//204 118//204
f 118//205 120//205 119//205
f 119//206 120//206 88//206
f 122//207 123//207 121//207
f 123//208 124//208 121//208
f 124//209 125//209 121//209
f 125//210 126//210 121//210
f 126//211 127//211 121//211
f 127//212 128//212 121//212
f 128//213 129//213 121//213
f 129//214 130//214 121//214
f 130//215 131//215 121//215
f 131//216 132//216 121//216
f 132//217 133//217 121//217
f 133//218 134//218 121//218
f 134//219 135//219 121//219
f 135//220 136//220 121//220
f 136//221 137//221 121//221
f 137//222 138//222 121//222
f 138//223 139//223 121//223
f 139//224 140//224 121//224
f 140//225 141//225 121//225
f 141//226 142//226 121//226
f 142//227 143//227 121//227
f 143//228 144//228 121//228
f 144//229 145//229 121//229
f 145//230 146//230 121//230
f 146//231 147//231 121//231
f 147//232 148//232 121//232
f 148//233 149//233 121//233
f 149//234 150//234 121//234
f 150//235 151//235 121//235
f 151//236 152//236 121//236
f 152//237 153//237 121//237
f 153//238 122//238 121//238
f 122//239 154//239 123//239
f 123//240 154//240 124//240
f 124//241 154//241 125//241
f 125//242 154//242 126//242
f 126//243 154//243 127//243
f 127//244 154//244 128//244
f 128//245 154//245 129//245
f 129//246 154//246 130//246
f 130//247 154//247 131//247
f 131//248 154//248 132//248
f 132//249 154//249 133//249
f 133//250 154//250 134//250
f 134//251 154//251 135//251
f 135//252 154//252 136//252
f 136//253 154//253 137//253
f 137//254 154//254 138//254
f 138//255 154//255 139//255
f 139//256 154//256 140//256
f 140//257 154//257 141//257
f 141//258 154//258 142//258
f 142//259 154//259 143//259
f 143//260 154//260 144//260
f 144//261 154//261 145//261
f 145//262 154//262 146//262
f 146//263 154//263 147//263
f 147//264 154//264 148//264
f 148//265 154//265 149//265
f 149//266 154//266 150//266
f 150//267 154//267 151//267
f 151//268 154//268 152//268
f 152//269 154//269 153//269
f 153//270 154//270 122//270
f 156//271 157//271 155//271
f 157//272 158//272 155//272
f 158//273 159//273 155//273
f 159//274 160//274 155//274
f 160//275 161//275 155//275
f 161//276 162//276 155//276
f 162//277 163//277 155//277
f 163//278 164//278 155//278
f 164//279 165//279 155//279
f 165//280 166//280 155//280
f 166//281 167//281 155//281
f 167//282 168//282 155//282
f 168//283 169//283 155//283
f 169//284 170//284 155//284
f 170//285 171//285 155//285
f 171//286 172//286 155//286
f 172//287 173//287 155//287
f 173//288 174//288 155//288
f 174//289 175//289 155//289
f 175//290 176//290 155//290
f 176//291 177//291 155//291
f 177//292 178//292 155//292
f 178//293 179//293 155//293
f 179//294 180//294 155//294
f 180//295 181//295 155//295
f 181//296 182//296 155//296
f 182//297 183//297 155//297
f 183//298 184//298 155//298
f 184//299 185//299 155//299
f 185//300 186//300 155//300
f 186//301 187//301 155//301
f 187//302 156//302 155//302
f 156//303 188//303 157//303
f 157//304 188//304 158//304
f 158//305 188//305 159//305
f 159//306 188//306 160//306
f 160//307 188//307 161//307
f 161//308 188//308 162//308
f 162//309 188//309 163//309
f 163//310 188//310 164//310
f 164//311 188//311 165//311
f 165//312 188//312 166//312
f 166//313 188//313 167//313
f 167//314 188//314 168//314
f 168//315 188//315 169//315
f 169//316 188//316 170//316
f 170//317 188//317 171//317
f 171//318 188//318 172//318
f 172//319 188//319 173//319
f 173//320 188//320 174//320
f 174//321 188//321 175//321
f 175//322 188//322 176//322
f 176//323 188//323 177//323
f 177//324 188//324 178//324
f 178//325 188//325 179//325
f 179//326 188//326 180//326
f 180//327 188//327 181//327
f 181//328 188//328 182//328
f 182//329 188//329 183//329
f 183//330 188//330 184//330
f 184//331 188//331 185//331
f 185//332 188//332 186//332
f 186//333 188//333 187//333
f 187//334 188//334 156//334
