# Blender 4.1.1
# www.blender.org
o Fir
v -0.009661 0.060349 0.006155
v 0.000297 0.060349 0.011125
v 0.009957 0.060349 0.004970
v 0.009661 0.060349 -0.006155
v -0.000297 0.060349 -0.011125
v -0.009957 0.060349 -0.004970
v -0.009661 0.030174 0.006155
v 0.000297 0.030174 0.011125
v 0.009957 0.030174 0.004970
v 0.009661 0.030174 -0.006155
v -0.000297 0.030174 -0.011125
v -0.009957 0.030174 -0.004970
v -0.016437 0.000000 0.010471
v 0.000505 0.000000 0.018928
v 0.016941 0.000000 0.008457
v 0.016437 0.000000 -0.010471
v -0.000505 0.000000 -0.018928
v -0.016941 0.000000 -0.008457
v -0.000678 0.087889 0.000352
v -0.046949 0.030186 0.015268
v -0.044832 0.031752 0.025720
v -0.034472 0.029802 0.030795
v -0.032144 0.026237 0.034457
v -0.024953 0.030204 0.040129
v -0.011038 0.027555 0.040777
v -0.004592 0.027526 0.043966
v 0.001246 0.024988 0.048531
v 0.015956 0.025929 0.045051
v 0.020372 0.026899 0.034459
v 0.023694 0.025395 0.040170
v 0.033896 0.028621 0.027691
v 0.037212 0.029702 0.024518
v 0.044191 0.029239 0.017481
v 0.043613 0.026689 0.005683
v 0.049215 0.028029 -0.007890
v 0.039495 0.029925 -0.015363
v 0.044690 0.032819 -0.021094
v 0.037396 0.032783 -0.032272
v 0.033136 0.033778 -0.034606
v 0.018309 0.032585 -0.041879
v 0.019356 0.032110 -0.041317
v 0.001769 0.031440 -0.048580
v 0.000839 0.034536 -0.050485
v -0.006465 0.034793 -0.040685
v -0.015876 0.031462 -0.039656
v -0.033337 0.031633 -0.033897
v -0.030773 0.034569 -0.024977
v -0.039941 0.030514 -0.024884
v -0.041034 0.032471 -0.010137
v -0.042943 0.033529 0.000521
v -0.047795 0.032566 0.003357
v 0.002979 0.027993 0.001464
v -0.004802 0.114312 -0.004372
v -0.027542 0.057964 0.031947
v -0.021670 0.061288 0.038320
v -0.011572 0.060597 0.037773
v -0.007931 0.057766 0.039780
v -0.000522 0.062884 0.040356
v 0.010425 0.060925 0.035237
v 0.016607 0.061669 0.034791
v 0.023160 0.060136 0.035851
v 0.032603 0.061081 0.027075
v 0.031318 0.060494 0.017576
v 0.036375 0.060068 0.020399
v 0.038402 0.061630 0.006877
v 0.039433 0.062313 0.003107
v 0.041714 0.060991 -0.004791
v 0.036518 0.056537 -0.012663
v 0.034820 0.055879 -0.024822
v 0.024187 0.056154 -0.026244
v 0.025363 0.058285 -0.032821
v 0.015161 0.056148 -0.037693
v 0.010885 0.056582 -0.037665
v -0.003187 0.053639 -0.036460
v -0.002119 0.053304 -0.036450
v -0.018304 0.050769 -0.034132
v -0.020107 0.053478 -0.035427
v -0.021438 0.055033 -0.025407
v -0.027725 0.051541 -0.020350
v -0.038368 0.051954 -0.008913
v -0.032944 0.056400 -0.003965
v -0.039377 0.052051 0.000401
v -0.034121 0.056331 0.011140
v -0.031127 0.059028 0.019410
v -0.033463 0.058346 0.023576
v 0.004183 0.055534 0.001322
v -0.006393 0.145984 0.002916
v -0.016919 0.084468 0.028189
v -0.010969 0.086895 0.032522
v -0.002902 0.086465 0.030115
v 0.000473 0.083427 0.030633
v 0.006507 0.088523 0.030374
v 0.014384 0.087542 0.024059
v 0.019285 0.088448 0.022653
v 0.024812 0.086885 0.022056
v 0.030718 0.089298 0.013540
v 0.027830 0.090124 0.006262
v 0.032476 0.089364 0.007472
v 0.031450 0.092974 -0.003294
v 0.031537 0.094232 -0.006350
v 0.031855 0.094151 -0.013138
v 0.026174 0.090846 -0.018921
v 0.022432 0.091995 -0.028215
v 0.013553 0.092300 -0.027306
v 0.013189 0.095414 -0.032397
v 0.004016 0.093862 -0.034588
v 0.000558 0.094215 -0.033709
v -0.010545 0.090888 -0.030523
v -0.009675 0.090573 -0.030759
v -0.022274 0.087447 -0.026252
v -0.024021 0.090288 -0.026572
v -0.023159 0.090295 -0.018269
v -0.027207 0.085979 -0.013592
v -0.033581 0.084488 -0.002589
v -0.028288 0.088229 0.000859
v -0.032577 0.083167 0.004908
v -0.026285 0.085871 0.012903
v -0.022283 0.087344 0.019178
v -0.023348 0.086004 0.022788
v 0.002778 0.087206 -0.002053
v -0.001311 0.179346 0.004994
v -0.027788 0.121727 0.011308
v -0.025878 0.123208 0.017016
v -0.019923 0.121269 0.018993
v -0.018529 0.117706 0.020562
v -0.014064 0.121629 0.023540
v -0.006473 0.119042 0.022823
v -0.002724 0.119012 0.024167
v 0.000694 0.116476 0.026096
v 0.008576 0.117491 0.023366
v 0.010335 0.118554 0.017386
v 0.012483 0.117027 0.020179
v 0.017376 0.120367 0.012995
v 0.019025 0.121477 0.011145
v 0.022377 0.121098 0.006833
v 0.021188 0.118654 0.000216
v 0.023415 0.120113 -0.007436
v 0.017650 0.122020 -0.010768
v 0.020227 0.124959 -0.013984
v 0.015481 0.124985 -0.019645
v 0.013023 0.125976 -0.020578
v 0.004357 0.124794 -0.023736
v 0.004953 0.124322 -0.023532
v -0.005210 0.123650 -0.026473
v -0.005736 0.126737 -0.027205
v -0.009090 0.126889 -0.021381
v -0.014309 0.123538 -0.020510
v -0.023512 0.123600 -0.016275
v -0.021409 0.126456 -0.011320
v -0.026582 0.122393 -0.011035
v -0.026137 0.124218 -0.002751
v -0.026444 0.125178 0.003275
v -0.028955 0.124182 0.005045
v -0.001359 0.119837 0.000516
v 0.000488 0.213121 -0.003225
v -0.018681 0.157192 0.011535
v -0.017302 0.159931 0.015291
v -0.012967 0.158682 0.017013
v -0.011948 0.155589 0.018748
v -0.008710 0.160226 0.020139
v -0.003180 0.157829 0.020073
v -0.000453 0.158227 0.021016
v 0.002036 0.156290 0.022817
v 0.007773 0.156993 0.020691
v 0.009059 0.156818 0.016281
v 0.010622 0.156004 0.018516
v 0.014185 0.157914 0.012845
v 0.015386 0.158665 0.011339
v 0.017831 0.157498 0.008357
v 0.016980 0.153651 0.004129
v 0.018608 0.153522 -0.001531
v 0.014413 0.154458 -0.004203
v 0.016287 0.156737 -0.007000
v 0.012841 0.155374 -0.010984
v 0.011051 0.156051 -0.011810
v 0.004751 0.153896 -0.013804
v 0.005185 0.153501 -0.013578
v -0.002205 0.151835 -0.015504
v -0.002593 0.154675 -0.016568
v -0.005042 0.155944 -0.012479
v -0.008834 0.152661 -0.011255
v -0.015537 0.153282 -0.008256
v -0.014019 0.157211 -0.005276
v -0.017776 0.153109 -0.004339
v -0.017467 0.156680 0.001176
v -0.017699 0.158896 0.005255
v -0.019527 0.158207 0.006686
v 0.000569 0.154026 0.004191
vn -0.0000 1.0000 -0.0000
vn -0.4466 -0.0000 0.8947
vn 0.5373 -0.0000 0.8434
vn 0.9996 -0.0000 -0.0266
vn 0.4466 -0.0000 -0.8947
vn -0.5373 -0.0000 -0.8434
vn -0.9996 -0.0000 0.0266
vn -0.4354 0.2226 0.8723
vn 0.5246 0.2165 0.8234
vn 0.9746 0.2226 -0.0260
vn 0.4354 0.2226 -0.8723
vn -0.5246 0.2165 -0.8234
vn -0.9746 0.2226 0.0260
vn -0.0000 -1.0000 -0.0000
vn -0.7709 0.6340 0.0612
vn -0.2740 0.5667 0.7770
vn -0.3084 0.5761 0.7569
vn -0.6750 0.5898 0.4434
vn 0.0654 0.5477 0.8341
vn -0.3652 0.5606 0.7432
vn -0.3418 0.5648 0.7511
vn 0.1466 0.6043 0.7831
vn 0.7918 0.4826 0.3743
vn -0.8665 -0.0201 0.4988
vn 0.5425 0.5916 0.5964
vn 0.4576 0.5784 0.6753
vn 0.5848 0.6052 0.5402
vn 0.8060 0.5691 -0.1626
vn 0.7401 0.5671 0.3615
vn 0.5712 0.5589 -0.6012
vn 0.6487 0.2552 0.7169
vn 0.6208 0.6700 -0.4072
vn 0.4717 0.6672 -0.5765
vn 0.2955 0.6418 -0.7077
vn -0.5708 -0.6131 0.5462
vn 0.2735 0.6368 -0.7209
vn 0.9678 0.1874 -0.1678
vn -0.6947 0.4857 -0.5305
vn -0.2948 0.6043 -0.7403
vn -0.2443 0.6038 -0.7588
vn -0.8867 0.4497 0.1068
vn -0.2399 0.5237 -0.8174
vn -0.7880 0.6000 -0.1380
vn -0.7741 0.6012 -0.1983
vn -0.5201 0.4021 -0.7535
vn -0.7438 0.6433 0.1814
vn -0.0023 -0.9889 0.1486
vn -0.1324 -0.9853 -0.1082
vn -0.4165 -0.7694 -0.4843
vn 0.2960 -0.9173 0.2663
vn -0.1830 -0.9801 -0.0762
vn 0.0009 -0.9999 -0.0108
vn -0.3494 -0.9342 -0.0725
vn 0.0492 -0.9969 -0.0618
vn 0.0616 -0.9960 -0.0655
vn -0.8685 -0.2060 0.4510
vn 0.1387 -0.9804 -0.1400
vn 0.1596 -0.9733 -0.1648
vn 0.0034 -0.9976 0.0689
vn -0.0535 -0.9755 0.2135
vn -0.0208 -0.9941 -0.1067
vn -0.0392 -0.9795 -0.1975
vn -0.2360 -0.7644 -0.6000
vn 0.0864 -0.9948 -0.0532
vn -0.0966 -0.9670 -0.2358
vn 0.1119 -0.9916 -0.0655
vn 0.3090 0.9281 0.2076
vn 0.0669 -0.9953 -0.0702
vn -0.9583 -0.2857 0.0035
vn -0.1887 -0.9753 -0.1151
vn 0.3043 -0.9273 -0.2178
vn -0.0326 -0.9971 -0.0692
vn -0.4636 -0.7935 0.3944
vn 0.3207 -0.7385 -0.5931
vn -0.1319 -0.9839 0.1208
vn -0.1209 -0.9897 0.0766
vn -0.0966 -0.8804 -0.4643
vn -0.0951 -0.9775 -0.1885
vn -0.7372 0.5503 0.3922
vn 0.0844 0.6085 0.7891
vn 0.0424 0.6134 0.7886
vn -0.4451 0.5663 0.6937
vn 0.4217 0.6148 0.6665
vn -0.0134 0.5933 0.8049
vn 0.0109 0.5997 0.8001
vn 0.4685 0.6697 0.5762
vn 0.8480 0.5095 -0.1462
vn -0.4853 0.0307 0.8738
vn 0.7400 0.6465 0.1856
vn 0.7023 0.6417 0.3082
vn 0.7496 0.6531 0.1072
vn 0.5662 0.4991 -0.6560
vn 0.7952 0.5892 -0.1429
vn 0.1315 0.4057 -0.9045
vn 0.8981 0.3452 0.2725
vn 0.2650 0.5462 -0.7946
vn 0.0459 0.5084 -0.8599
vn -0.1704 0.4571 -0.8729
vn -0.1537 -0.4651 0.8718
vn -0.1953 0.4497 -0.8716
vn 0.7236 0.1606 -0.6712
vn -0.9304 0.3227 -0.1737
vn -0.6990 0.4052 -0.5892
vn -0.6628 0.4027 -0.6313
vn -0.7738 0.3796 0.5072
vn -0.6708 0.3213 -0.6684
vn -0.8456 0.4864 0.2199
vn -0.8639 0.4787 0.1566
vn -0.8659 0.2189 -0.4497
vn -0.6533 0.5785 0.4885
vn 0.2108 -0.9328 0.2924
vn -0.0618 -0.9919 0.1111
vn -0.5630 -0.8161 -0.1300
vn 0.5432 -0.8108 0.2182
vn -0.0944 -0.9803 0.1732
vn 0.1278 -0.9829 0.1327
vn -0.2602 -0.9280 0.2667
vn 0.1465 -0.9879 0.0512
vn 0.1566 -0.9869 0.0398
vn -0.4917 -0.1311 0.8608
vn 0.1881 -0.9785 -0.0848
vn 0.1934 -0.9733 -0.1234
vn 0.1743 -0.9617 0.2114
vn 0.1937 -0.9032 0.3831
vn 0.0512 -0.9976 0.0468
vn -0.0208 -0.9991 -0.0375
vn -0.4529 -0.8212 -0.3471
vn 0.1877 -0.9815 0.0374
vn -0.1013 -0.9939 -0.0441
vn 0.2055 -0.9786 0.0090
vn 0.2988 0.9484 -0.1058
vn 0.1591 -0.9868 0.0317
vn -0.7960 -0.2709 0.5413
vn -0.1228 -0.9830 0.1362
vn 0.2955 -0.9175 -0.2661
vn 0.0613 -0.9938 0.0929
vn -0.1200 -0.6695 0.7331
vn 0.0744 -0.7592 -0.6466
vn 0.0678 -0.9378 0.3406
vn 0.0549 -0.9550 0.2916
vn -0.2381 -0.9283 -0.2855
vn -0.0715 -0.9974 0.0050
vn -0.6408 0.3830 0.6653
vn 0.2806 0.4125 0.8667
vn 0.2389 0.4152 0.8778
vn -0.2701 0.3651 0.8909
vn 0.5916 0.4519 0.6677
vn 0.1860 0.3921 0.9009
vn 0.2095 0.3996 0.8924
vn 0.6264 0.5191 0.5815
vn 0.8276 0.4907 -0.2728
vn -0.2669 -0.1061 0.9579
vn 0.8149 0.5685 0.1130
vn 0.8022 0.5437 0.2467
vn 0.8088 0.5873 0.0309
vn 0.4259 0.5393 -0.7265
vn 0.7881 0.5636 -0.2476
vn -0.0741 0.4682 -0.8805
vn 0.9503 0.2911 0.1102
vn 0.0906 0.5935 -0.7997
vn -0.1507 0.5574 -0.8165
vn -0.3742 0.5016 -0.7800
vn 0.0434 -0.5207 0.8526
vn -0.3990 0.4934 -0.7729
vn 0.5498 0.2482 -0.7975
vn -0.9626 0.2519 0.0997
vn -0.8431 0.3933 -0.3667
vn -0.8161 0.3983 -0.4188
vn -0.6350 0.2143 0.7422
vn -0.8239 0.3288 -0.4617
vn -0.7907 0.3456 0.5054
vn -0.8255 0.3471 0.4450
vn -0.9572 0.2019 -0.2074
vn -0.5324 0.3980 0.7470
vn 0.3040 -0.9460 0.1123
vn -0.0633 -0.9974 -0.0342
vn -0.6518 -0.7467 -0.1323
vn 0.6435 -0.7642 -0.0430
vn -0.0838 -0.9952 0.0500
vn 0.1646 -0.9845 -0.0605
vn -0.2448 -0.9463 0.2111
vn 0.1634 -0.9731 -0.1624
vn 0.1720 -0.9689 -0.1782
vn -0.2810 -0.2372 0.9299
vn 0.1726 -0.9288 -0.3279
vn 0.1676 -0.9133 -0.3713
vn 0.2405 -0.9704 0.0229
vn 0.3071 -0.9243 0.2265
vn 0.0509 -0.9885 -0.1426
vn -0.0560 -0.9738 -0.2203
vn -0.5844 -0.7101 -0.3926
vn 0.2074 -0.9599 -0.1885
vn -0.1504 -0.9674 -0.2036
vn 0.2197 -0.9491 -0.2255
vn 0.3320 0.9427 -0.0334
vn 0.1726 -0.9668 -0.1882
vn -0.6579 -0.3282 0.6778
vn -0.1269 -0.9918 0.0140
vn 0.2401 -0.8081 -0.5379
vn 0.0756 -0.9930 -0.0908
vn 0.0426 -0.7092 0.7038
vn -0.0952 -0.5714 -0.8151
vn 0.1513 -0.9664 0.2077
vn 0.1231 -0.9807 0.1517
vn -0.3567 -0.8367 -0.4157
vn -0.1034 -0.9823 -0.1563
vn -0.8851 0.4270 0.1852
vn -0.2139 0.2932 0.9318
vn -0.2568 0.3035 0.9176
vn -0.7135 0.3523 0.6057
vn 0.1797 0.2647 0.9474
vn -0.3204 0.2937 0.9006
vn -0.2937 0.2957 0.9090
vn 0.2744 0.3138 0.9090
vn 0.9190 0.2398 0.3130
vn -0.8005 -0.0314 0.5985
vn 0.7120 0.3110 0.6295
vn 0.6184 0.2948 0.7285
vn 0.7600 0.3268 0.5618
vn 0.8897 0.3526 -0.2900
vn 0.8964 0.3072 0.3195
vn 0.5540 0.3860 -0.7376
vn 0.7483 0.0661 0.6600
vn 0.6788 0.4667 -0.5669
vn 0.4737 0.4808 -0.7379
vn 0.2444 0.4716 -0.8473
vn -0.5770 -0.4267 0.6964
vn 0.2168 0.4686 -0.8564
vn 0.9536 0.0948 -0.2859
vn -0.8053 0.3573 -0.4730
vn -0.4236 0.4563 -0.7825
vn -0.3695 0.4560 -0.8096
vn -0.9308 0.2821 0.2323
vn -0.3583 0.3968 -0.8451
vn -0.9087 0.4152 -0.0427
vn -0.8999 0.4211 -0.1129
vn -0.6269 0.3135 -0.7132
vn -0.8457 0.4241 0.3239
vn 0.0294 -0.9699 0.2419
vn -0.2507 -0.9515 -0.1781
vn -0.6278 -0.5060 -0.5915
vn 0.4878 -0.8073 0.3320
vn -0.3299 -0.9377 -0.1090
vn 0.0043 -0.9994 -0.0346
vn -0.5722 -0.8178 -0.0615
vn 0.0801 -0.9874 -0.1362
vn 0.1013 -0.9842 -0.1451
vn -0.8193 -0.1319 0.5580
vn 0.2170 -0.9333 -0.2861
vn 0.2450 -0.9120 -0.3291
vn 0.0245 -0.9940 0.1065
vn -0.0443 -0.9345 0.3531
vn -0.0540 -0.9779 -0.2021
vn -0.1032 -0.9296 -0.3537
vn -0.4017 -0.4926 -0.7720
vn 0.1470 -0.9809 -0.1277
vn -0.2075 -0.8922 -0.4012
vn 0.1884 -0.9700 -0.1539
vn 0.5322 0.7961 0.2882
vn 0.1096 -0.9819 -0.1544
vn -0.9829 -0.1390 0.1206
vn -0.3455 -0.9220 -0.1750
vn 0.4424 -0.7962 -0.4127
vn -0.0676 -0.9889 -0.1325
vn -0.5430 -0.6069 0.5803
vn 0.3267 -0.4733 -0.8181
vn -0.1980 -0.9550 0.2209
vn -0.1908 -0.9708 0.1451
vn -0.2218 -0.6808 -0.6981
vn -0.1989 -0.9245 -0.3253
vn -0.9343 0.3445 0.0919
vn -0.2409 0.3899 0.8888
vn -0.2864 0.3952 0.8728
vn -0.7588 0.3690 0.5367
vn 0.1725 0.3727 0.9118
vn -0.3513 0.3832 0.8542
vn -0.3238 0.3868 0.8634
vn 0.2732 0.4069 0.8717
vn 0.9358 0.2338 0.2637
vn -0.8024 0.0826 0.5910
vn 0.7350 0.3512 0.5800
vn 0.6354 0.3570 0.6847
vn 0.7868 0.3510 0.5077
vn 0.9062 0.2056 -0.3696
vn 0.9221 0.2877 0.2587
vn 0.5544 0.1453 -0.8194
vn 0.7504 0.1675 0.6394
vn 0.6922 0.2395 -0.6808
vn 0.4757 0.2163 -0.8526
vn 0.2375 0.1874 -0.9531
vn -0.5806 -0.1835 0.7932
vn 0.2091 0.1833 -0.9606
vn 0.9539 0.0181 -0.2996
vn -0.8220 0.1676 -0.5443
vn -0.4430 0.1848 -0.8773
vn -0.3879 0.1799 -0.9040
vn -0.9557 0.2418 0.1681
vn -0.3713 0.1301 -0.9194
vn -0.9472 0.2908 -0.1351
vn -0.9369 0.2819 -0.2066
vn -0.6354 0.0932 -0.7666
vn -0.8990 0.3700 0.2343
vn 0.0818 -0.8193 0.5675
vn -0.2912 -0.9559 0.0398
vn -0.6756 -0.5173 -0.5254
vn 0.5862 -0.5793 0.5663
vn -0.3933 -0.9108 0.1253
vn 0.0565 -0.9678 0.2451
vn -0.6697 -0.7290 0.1414
vn 0.1599 -0.9814 0.1067
vn 0.1881 -0.9777 0.0937
vn -0.8188 0.0044 0.5740
vn 0.3343 -0.9366 -0.1053
vn 0.3662 -0.9158 -0.1648
vn 0.0805 -0.9040 0.4199
vn -0.0143 -0.7381 0.6745
vn -0.0228 -0.9996 0.0161
vn -0.0905 -0.9757 -0.1994
vn -0.4232 -0.5424 -0.7258
vn 0.2477 -0.9620 0.1149
vn -0.2296 -0.9354 -0.2688
vn 0.3008 -0.9506 0.0768
vn 0.6258 0.7673 0.1399
vn 0.1992 -0.9766 0.0806
vn -0.9858 -0.0793 0.1477
vn -0.4136 -0.9098 0.0345
vn 0.5744 -0.7686 -0.2817
vn -0.0415 -0.9927 0.1130
vn -0.5625 -0.3506 0.7488
vn 0.3808 -0.5229 -0.7626
vn -0.2102 -0.8153 0.5396
vn -0.2039 -0.8651 0.4584
vn -0.2315 -0.7274 -0.6459
vn -0.2203 -0.9617 -0.1629
s 0
f 1//1 2//1 3//1 4//1 5//1 6//1
f 1//2 7//2 8//2 2//2
f 2//3 8//3 9//3 3//3
f 3//4 9//4 10//4 4//4
f 4//5 10//5 11//5 5//5
f 5//6 11//6 12//6 6//6
f 6//7 12//7 7//7 1//7
f 7//8 13//8 14//8 8//8
f 8//9 14//9 15//9 9//9
f 9//10 15//10 16//10 10//10
f 10//11 16//11 17//11 11//11
f 11//12 17//12 18//12 12//12
f 12//13 18//13 13//13 7//13
f 18//14 17//14 16//14 15//14 14//14 13//14
f 20//15 21//15 19//15
f 21//16 22//16 19//16
f 22//17 23//17 19//17
f 23//18 24//18 19//18
f 24//19 25//19 19//19
f 25//20 26//20 19//20
f 26//21 27//21 19//21
f 27//22 28//22 19//22
f 28//23 29//23 19//23
f 29//24 30//24 19//24
f 30//25 31//25 19//25
f 31//26 32//26 19//26
f 32//27 33//27 19//27
f 33//28 34//28 19//28
f 34//29 35//29 19//29
f 35//30 36//30 19//30
f 36//31 37//31 19//31
f 37//32 38//32 19//32
f 38//33 39//33 19//33
f 39//34 40//34 19//34
f 40//35 41//35 19//35
f 41//36 42//36 19//36
f 42//37 43//37 19//37
f 43//38 44//38 19//38
f 44//39 45//39 19//39
f 45//40 46//40 19//40
f 46//41 47//41 19//41
f 47//42 48//42 19//42
f 48//43 49//43 19//43
f 49//44 50//44 19//44
f 50//45 51//45 19//45
f 51//46 20//46 19//46
f 20//47 52//47 21//47
f 21//48 52//48 22//48
f 22//49 52//49 23//49
f 23//50 52//50 24//50
f 24//51 52//51 25//51
f 25//52 52//52 26//52
f 26//53 52//53 27//53
f 27//54 52//54 28//54
f 28//55 52//55 29//55
f 29//56 52//56 30//56
f 30//57 52//57 31//57
f 31//58 52//58 32//58
f 32//59 52//59 33//59
f 33//60 52//60 34//60
f 34//61 52//61 35//61
f 35//62 52//62 36//62
f 36//63 52//63 37//63
f 37//64 52//64 38//64
f 38//65 52//65 39//65
f 39//66 52//66 40//66
f 40//67 52//67 41//67
f 41//68 52//68 42//68
f 42//69 52//69 43//69
f 43//70 52//70 44//70
f 44//71 52//71 45//71
f 45//72 52//72 46//72
f 46//73 52//73 47//73
f 47//74 52//74 48//74
f 48//75 52//75 49//75
f 49//76 52//76 50//76
f 50//77 52//77 51//77
f 51//78 52//78 20//78
f 54//79 55//79 53//79
f 55//80 56//80 53//80
f 56//81 57//81 53//81
f 57//82 58//82 53//82
f 58//83 59//83 53//83
f 59//84 60//84 53//84
f 60//85 61//85 53//85
f 61//86 62//86 53//86
f 62//87 63//87 53//87
f 63//88 64//88 53//88
f 64//89 65//89 53//89
f 65//90 66//90 53//90
f 66//91 67//91 53//91
f 67//92 68//92 53//92
f 68//93 69//93 53//93
f 69//94 70//94 53//94
f 70//95 71//95 53//95
f 71//96 72//96 53//96
f 72//97 73//97 53//97
f 73//98 74//98 53//98
f 74//99 75//99 53//99
f 75//100 76//100 53//100
f 76//101 77//101 53//101
f 77//102 78//102 53//102
f 78//103 79//103 53//103
f 79//104 80//104 53//104
f 80//105 81//105 53//105
f 81//106 82//106 53//106
f 82//107 83//107 53//107
f 83//108 84//108 53//108
f 84//109 85//109 53//109
f 85//110 54//110 53//110
f 54//111 86//111 55//111
f 55//112 86//112 56//112
f 56//113 86//113 57//113
f 57//114 86//114 58//114
f 58//115 86//115 59//115
f 59//116 86//116 60//116
f 60//117 86//117 61//117
f 61//118 86//118 62//118
f 62//119 86//119 63//119
f 63//120 86//120 64//120
f 64//121 86//121 65//121
f 65//122 86//122 66//122
f 66//123 86//123 67//123
f 67//124 86//124 68//124
f 68//125 86//125 69//125
f 69//126 86//126 70//126
f 70//127 86//127 71//127
f 71//128 86//128 72//128
f 72//129 86//129 73//129
f 73//130 86//130 74//130
f 74//131 86//131 75//131
f 75//132 86//132 76//132
f 76//133 86//133 77//133
f 77//134 86//134 78//134
f 78//135 86//135 79//135
f 79//136 86//136 80//136
f 80//137 86//137 81//137
f 81//138 86//138 82//138
f 82//139 86//139 83//139
f 83//140 86//140 84//140
f 84//141 86//141 85//141
f 85//142 86//142 54//142
f 88//143 89//143 87//143
f 89//144 90//144 87//144
f 90//145 91//145 87//145
f 91//146 92//146 87//146
f 92//147 93//147 87//147
f 93//148 94//148 87//148
f 94//149 95//149 87//149
f 95//150 96//150 87//150
f 96//151 97//151 87//151
f 97//152 98//152 87//152
f 98//153 99//153 87//153
f 99//154 100//154 87//154
f 100//155 101//155 87//155
f 101//156 102//156 87//156
f 102//157 103//157 87//157
f 103//158 104//158 87//158
f 104//159 105//159 87//159
f 105//160 106//160 87//160
f 106//161 107//161 87//161
f 107//162 108//162 87//162
f 108//163 109//163 87//163
f 109//164 110//164 87//164
f 110//165 111//165 87//165
f 111//166 112//166 87//166
f 112//167 113//167 87//167
f 113//168 114//168 87//168
f 114//169 115//169 87//169
f 115//170 116//170 87//170
f 116//171 117//171 87//171
f 117//172 118//172 87//172
f 118//173 119//173 87//173
f 119//174 88//174 87//174
f 88//175 120//175 89//175
f 89//176 120//176 90//176
f 90//177 120//177 91//177
f 91//178 120//178 92//178
f 92//179 120//179 93//179
f 93//180 120//180 94//180
f 94//181 120//181 95//181
f 95//182 120//182 96//182
f 96//183 120//183 97//183
f 97//184 120//184 98//184
f 98//185 120//185 99//185
f 99//186 120//186 100//186
f 100//187 120//187 101//187
f 101//188 120//188 102//188
f 102//189 120//189 103//189
f 103//190 120//190 104//190
f 104//191 120//191 105//191
f 105//192 120//192 106//192
f 106//193 120//193 107//193
f 107//194 120//194 108//194
f 108//195 120//195 109//195
f 109//196 120//196 110//196
f 110//197 120//197 111//197
f 111//198 120//198 112//198
f 112//199 120//199 113//199
f 113//200 120//200 114//200
f 114//201 120//201 115//201
f 115//202 120//202 116//202
f 116//203 120//203 117//203
f 117//204 120//204 118//204
f 118//205 120//205 119//205
f 119//206 120//206 88//206
f 122//207 123//207 121//207
f 123//208 124//208 121//208
f 124//209 125//209 121//209
f 125//210 126//210 121//210
f 126//211 127//211 121//211
f 127//212 128//212 121//212
f 128//213 129//213 121//213
f 129//214 130//214 121//214
f 130//215 131//215 121//215
f 131//216 132//216 121//216
f 132//217 133//217 121//217
f 133//218 134//218 121//218
f 134//219 135//219 121//219
f 135//220 136//220 121//220
f 136//221 137//221 121//221
f 137//222 138//222 121//222
f 138//223 139//223 121//223
f 139//224 140//224 121//224
f 140//225 141//225 121//225
f 141//226 142//226 121//226
f 142//227 143//227 121//227
f 143//228 144//228 121//228
f 144//229 145//229 121//229
f 145//230 146//230 121//230
f 146//231 147//231 121//231
f 147//232 148//232 121//232
f 148//233 149//233 121//233
f 149//234 150//234 121//234
f 150//235 151//235 121//235
f 151//236 152//236 121//236
f 152//237 153//237 121//237
f 153//238 122//238 121//238
f 122//239 154//239 123//239
f 123//240 154//240 124//240
f 124//241 154//241 125//241
f 125//242 154//242 126//242
f 126//243 154//243 127//243
f 127//244 154//244 128//244
f 128//245 154//245 129//245
f 129//246 154//246 130//246
f 130//247 154//247 131//247
f 131//248 154//248 132//248
f 132//249 154//249 133//249
f 133//250 154//250 134//250
f 134//251 154//251 135//251
f 135//252 154//252 136//252
f 136//253 154//253 137//253
f 137//254 154//254 138//254
f 138//255 154//255 139//255
f 139//256 154//256 140//256
f 140//257 154//257 141//257
f 141//258 154//258 142//258
f 142//259 154//259 143//259
f 143//260 154//260 144//260
f 144//261 154//261 145//261
f 145//262 154//262 146//262
f 146//263 154//263 147//263
f 147//264 154//264 148//264
f 148//265 154//265 149//265
f 149//266 154//266 150//266
f 150//267 154//267 151//267
f 151//268 154//268 152//268
f 152//269 154//269 153//269
f 153//270 154//270 122//270
f 156//271 157//271 155//271
f 157//272 158//272 155//272
f 158//273 159//273 155//273
f 159//274 160//274 155//274
f 160//275 161//275 155//275
f 161//276 162//276 155//276
f 162//277 163//277 155//277
f 163//278 164//278 155//278
f 164//279 165//279 155//279
f 165//280 166//280 155//280
f 166//281 167//281 155//281
f 167//282 168//282 155//282
f 168//283 169//283 155//283
f 169//284 170//284 155//284
f 170//285 171//285 155//285
f 171//286 172//286 155//286
f 172//287 173//287 155//287
f 173//288 174//288 155//288
f 174//289 175//289 155//289
f 175//290 176//290 155//290
f 176//291 177//291 155//291
f 177//292 178//292 155//292
f 178//293 179//293 155//293
f 179//294 180//294 155//294
f 180//295 181//295 155//295
f 181//296 182//296 155//296
f 182//297 183//297 155//297
f 183//298 184//298 155//298
f 184//299 185//299 155//299
f 185//300 186//300 155//300
f 186//301 187//301 155//301
f 187//302 156//302 155//302
f 156//303 188//303 157//303
f 157//304 188//304 158//304
f 158//305 188//305 159//305
f 159//306 188//306 160//306
f 160//307 188//307 161//307
f 161//308 188//308 162//308
f 162//309 188//309 163//309
f 163//310 188//310 164//310
f 164//311 188//311 165//311
f 165//312 188//312 166//312
f 166//313 188//313 167//313
f 167//314 188//314 168//314
f 168//315 188//315 169//315
f 169//316 188//316 170//316
f 170//317 188//317 171//317
f 171//318 188//318 172//318
f 172//319 188//319 173//319
f 173//320 188//320 174//320
f 174//321 188//321 175//321
f 175//322 188//322 176//322
f 176//323 188//323 177//323
f 177//324 188//324 178//324
f 178//325 188//325 179//325
f 179//326 188//326 180//326
f 180//327 188//327 181//327
f 181//328 188//328 182//328
f 182//329 188//329 183//329
f 183//330 188//330 184//330
f 184//331 188//331 185//331
f 185//332 188//332 186//332
f 186//333 188//333 187//333
f 187//334 188//334 156//334
