# Blender 4.1.1
# www.blender.org
o Stone.007
v -0.445928 -0.048720 -0.110802
v -0.379036 -0.087018 -0.139441
v -0.440109 -0.072499 -0.106569
v -0.530120 -0.101149 0.227768
v -0.508688 0.008518 0.064731
v -0.532032 0.131993 0.152992
v -0.445460 -0.024094 -0.101782
v -0.133254 0.429073 -0.131443
v -0.132956 -0.076292 -0.244423
v -0.193128 -0.102866 -0.225035
v -0.229425 -0.108106 -0.209380
v -0.143531 -0.226768 -0.234164
v -0.307266 -0.110878 -0.171685
v -0.120353 -0.112209 -0.252447
v -0.096438 -0.253445 -0.247764
v -0.135290 -0.243271 -0.226155
v -0.311740 -0.255798 -0.071540
v -0.411734 -0.096273 -0.115149
v -0.284539 -0.283257 -0.059932
v -0.510580 -0.123048 0.206589
v -0.435922 -0.088555 -0.085550
v -0.226289 -0.297025 0.052006
v -0.474872 -0.130855 0.202362
v -0.263763 -0.303629 -0.045515
v -0.238008 -0.325766 -0.040116
v -0.226950 -0.333384 -0.022696
v -0.215269 -0.318392 0.027123
v -0.018201 -0.339370 -0.038047
v -0.061946 -0.257708 0.101040
v -0.196304 -0.299490 0.049852
v -0.320148 0.044274 0.351408
v -0.269599 -0.129919 0.225576
v -0.249874 -0.118164 0.230591
v -0.029528 -0.253121 0.097149
v 0.136292 -0.071249 0.162627
v 0.098654 -0.070565 0.177819
v 0.042049 -0.053194 0.209909
v 0.018332 -0.336284 -0.048906
v 0.040596 -0.317374 -0.035707
v 0.098403 -0.222682 0.057100
v 0.162986 -0.130848 0.102598
v 0.159729 -0.106440 0.124594
v 0.196569 -0.109050 0.103924
v 0.161305 -0.081619 0.142518
v 0.118507 -0.047030 0.186357
v 0.193785 -0.081175 0.121080
v 0.157624 -0.045250 0.162053
v 0.148405 -0.022200 0.175388
v 0.222720 -0.077543 0.098250
v 0.223390 0.028802 0.123662
v 0.195828 0.028154 0.145783
v 0.196773 0.063534 0.143084
v 0.249124 0.032675 0.101032
v 0.263474 0.092658 0.067082
v 0.258520 -0.000513 0.081356
v 0.262984 0.039253 0.083888
v 0.274759 0.055414 0.067386
v 0.281483 0.103629 0.042796
v 0.272918 0.031629 0.067108
v 0.289014 0.067863 0.042661
v 0.295189 0.110276 0.016131
v 0.286905 0.028956 0.037494
v 0.297508 0.050154 0.017105
v 0.300165 0.082385 0.016733
v 0.308048 0.088145 -0.010846
v 0.305588 0.048894 -0.011053
v 0.308192 0.023809 -0.044468
v 0.295228 0.010636 0.007391
v 0.302982 0.014669 -0.019453
v 0.300820 -0.018508 -0.044050
v 0.296613 -0.018271 -0.018823
v 0.288216 -0.051905 -0.019543
v 0.286773 -0.032599 0.005481
v 0.282747 -0.008826 0.031614
v 0.272910 -0.054561 0.027171
v 0.269447 -0.026250 0.051900
v 0.259817 -0.049158 0.058318
v 0.255033 -0.083068 0.045768
v 0.275019 -0.073580 0.000048
v 0.228014 -0.174034 0.007539
v 0.258615 -0.096416 0.019339
v 0.225528 -0.184850 -0.017299
v 0.207450 -0.198270 0.005719
v 0.229012 -0.130830 0.056256
v 0.209428 -0.177864 0.031275
v 0.184128 -0.196141 0.029492
v 0.196032 -0.136520 0.080473
v 0.223826 -0.110114 0.079952
v 0.208150 -0.153906 0.054298
v 0.054828 -0.266795 -0.225527
v 0.164633 -0.183526 -0.210383
v 0.261772 -0.066227 -0.159223
v 0.298432 -0.028683 -0.093243
v 0.299920 -0.029727 -0.069170
v 0.289020 -0.051609 -0.044133
v 0.304794 0.004417 -0.069152
v 0.306802 0.060990 -0.036685
v 0.199049 -0.042696 -0.245116
v 0.253328 -0.063909 -0.178069
v 0.195383 -0.070925 -0.244850
v 0.183861 -0.154821 -0.207038
v 0.177186 -0.079356 -0.260968
v 0.185282 -0.044748 -0.259366
v 0.070031 -0.170843 -0.273513
v 0.102368 -0.169212 -0.270005
v 0.043983 -0.197888 -0.271933
v 0.073219 -0.244554 -0.232810
v 0.073409 -0.224421 -0.248382
v 0.073445 -0.200967 -0.265935
v -0.043757 -0.264750 -0.246608
v 0.041476 -0.222621 -0.258156
v -0.051001 -0.279367 -0.232806
v -0.072912 -0.265402 -0.244706
v -0.082850 -0.276933 -0.221852
v -0.020828 -0.307487 -0.173707
v -0.053212 -0.306811 -0.163505
v -0.035827 -0.314393 -0.146486
v 0.017830 -0.181150 -0.272414
v -0.016286 0.258905 -0.216201
v -0.041150 -0.176302 -0.264369
v -0.018130 0.455643 -0.117374
v 0.011286 0.455949 -0.113754
v 0.035376 0.430266 -0.117134
v 0.185764 -0.016677 -0.248318
v 0.293258 0.101102 -0.026851
v 0.294103 0.126373 -0.005403
v -0.012235 0.432922 -0.015761
v 0.027874 0.440042 -0.098172
v -0.199773 0.419351 0.191656
v -0.023762 0.425307 0.006335
v -0.004472 0.455428 -0.092521
v -0.093352 0.470348 -0.073411
v -0.139134 0.475125 -0.057963
v -0.115149 0.468011 -0.082010
v -0.115211 0.442056 -0.120498
v -0.173796 0.472981 -0.039581
v -0.154055 0.426603 -0.113718
v -0.271346 0.386273 -0.025163
v -0.201227 0.459908 -0.017017
v -0.279230 0.433056 0.074367
v -0.348020 0.370437 0.124171
v -0.288382 0.377872 -0.004766
v -0.324696 0.397798 0.177947
v -0.337328 0.385689 0.194040
v -0.540555 0.035092 0.236066
v -0.261045 0.328674 0.278955
v -0.265942 0.342171 0.266061
v -0.169733 0.239973 0.333766
v -0.344084 0.043291 0.340136
v -0.461811 -0.019334 0.289376
v -0.542742 -0.029421 0.236385
v -0.545166 0.003991 0.230260
v -0.523980 0.016398 0.132425
v -0.124236 0.181886 0.336025
v 0.163433 0.085093 0.164208
v 0.182561 0.097210 0.138830
v 0.172048 0.123424 0.127673
v 0.151229 0.140862 0.131238
v 0.246521 0.116082 0.066392
v -0.087276 0.136879 0.330722
v -0.058338 0.142611 0.306751
v -0.284453 0.036565 0.338467
v -0.109999 0.153003 0.337206
v -0.292441 0.355209 -0.023728
v -0.337723 0.221897 -0.068786
v -0.356570 0.200294 -0.062631
v 0.252441 -0.038355 0.074225
v 0.274111 0.010808 0.058289
vn -0.7410 -0.0285 -0.6709
vn -0.4110 -0.0381 -0.9108
vn -0.4730 -0.1965 -0.8589
vn -0.7439 -0.3917 -0.5415
vn -0.7478 -0.6068 0.2696
vn -0.9536 -0.0609 -0.2947
vn -0.9247 0.3797 -0.0270
vn -0.7377 0.2778 -0.6153
vn -0.3254 0.5382 -0.7775
vn -0.2944 0.1524 -0.9435
vn -0.3756 0.0456 -0.9257
vn -0.4392 -0.1224 -0.8900
vn -0.4536 -0.3327 -0.8268
vn -0.5702 -0.4457 -0.6902
vn -0.2354 0.0343 -0.9713
vn -0.3055 -0.4617 -0.8328
vn -0.5089 -0.5821 -0.6342
vn -0.6284 -0.6563 -0.4176
vn -0.7702 -0.5744 -0.2771
vn -0.5694 -0.7444 -0.3488
vn -0.5673 -0.7862 0.2452
vn -0.0768 -0.7282 0.6811
vn -0.1250 -0.8803 0.4576
vn -0.0810 -0.7594 0.6455
vn -0.6335 -0.7618 -0.1352
vn -0.4277 -0.8604 -0.2770
vn -0.2623 -0.9644 0.0331
vn -0.0117 -0.7609 0.6488
vn 0.0865 -0.9794 0.1823
vn 0.1174 -0.7141 0.6902
vn -0.1375 -0.1561 0.9781
vn 0.2484 -0.6853 0.6846
vn 0.1450 -0.5544 0.8195
vn 0.0147 -0.6415 0.7669
vn 0.2584 -0.4635 0.8476
vn 0.3594 -0.5774 0.7330
vn 0.3785 -0.5090 0.7731
vn 0.2939 -0.5441 0.7858
vn 0.3263 -0.9404 0.0959
vn 0.4223 -0.7914 0.4421
vn 0.3806 -0.6893 0.6164
vn 0.3628 -0.6024 0.7110
vn 0.4455 -0.4659 0.7645
vn 0.4938 -0.5021 0.7100
vn 0.4001 -0.3654 0.8405
vn 0.5691 -0.2715 0.7762
vn 0.5737 -0.3313 0.7491
vn 0.5508 -0.1467 0.8217
vn 0.6518 -0.0559 0.7564
vn 0.6961 -0.2763 0.6627
vn 0.5988 -0.0338 0.8002
vn 0.6278 0.1739 0.7587
vn 0.7226 0.0049 0.6912
vn 0.6680 0.3330 0.6655
vn 0.8083 0.0780 0.5836
vn 0.7959 -0.1840 0.5768
vn 0.7960 -0.0097 0.6052
vn 0.7299 0.4036 0.5516
vn 0.8841 0.0388 0.4656
vn 0.8632 -0.1137 0.4919
vn 0.8217 0.4079 0.3981
vn 0.9314 0.0606 0.3589
vn 0.9114 -0.1313 0.3900
vn 0.9411 -0.1005 0.3229
vn 0.9781 0.2034 -0.0440
vn 0.9741 -0.0894 0.2075
vn 0.9988 -0.0454 -0.0187
vn 0.9680 -0.1525 0.1995
vn 0.9412 -0.1612 0.2970
vn 0.9706 -0.2173 0.1034
vn 0.9551 -0.2102 0.2086
vn 0.9284 -0.3400 0.1499
vn 0.9256 -0.2401 0.2927
vn 0.8928 -0.2858 0.3481
vn 0.9080 -0.1919 0.3723
vn 0.8993 -0.3673 0.2373
vn 0.8698 -0.2169 0.4431
vn 0.8369 -0.2603 0.4816
vn 0.8509 -0.3357 0.4040
vn 0.8068 -0.5205 0.2796
vn 0.8731 -0.3838 0.3008
vn 0.7726 -0.6340 -0.0335
vn 0.5942 -0.7527 0.2836
vn 0.5645 -0.6185 0.5465
vn 0.7324 -0.4703 0.4923
vn 0.4260 -0.7031 0.5694
vn 0.4568 -0.5938 0.6624
vn 0.5441 -0.5653 0.6199
vn 0.6850 -0.4191 0.5959
vn 0.3776 -0.7603 -0.5286
vn 0.6647 -0.5917 -0.4562
vn 0.8665 -0.3620 -0.3437
vn 0.9385 -0.1328 -0.3187
vn 0.9540 -0.2990 -0.0200
vn 0.9048 -0.4252 0.0230
vn 0.9486 0.0773 -0.3068
vn 0.9049 0.2307 -0.3576
vn 0.7548 0.1179 -0.6453
vn 0.8359 -0.1107 -0.5377
vn 0.7264 -0.2309 -0.6473
vn 0.7440 -0.4303 -0.5112
vn 0.4563 -0.1774 -0.8720
vn 0.4235 0.1017 -0.9002
vn 0.0418 -0.0168 -0.9990
vn 0.3455 -0.2815 -0.8952
vn 0.0484 -0.2756 -0.9601
vn 0.2909 -0.4488 -0.8450
vn 0.4894 -0.5915 -0.6408
vn 0.4326 -0.5471 -0.7166
vn 0.0336 -0.5358 -0.8437
vn 0.1523 -0.5291 -0.8348
vn -0.1659 -0.6234 -0.7641
vn -0.0385 -0.8253 -0.5633
vn -0.2787 -0.8311 -0.4812
vn -0.1355 -0.9267 -0.3505
vn 0.0769 -0.9327 -0.3525
vn -0.0388 -0.9659 -0.2558
vn -0.0800 -0.0252 -0.9965
vn 0.0088 0.3035 -0.9528
vn -0.1543 -0.0462 -0.9869
vn 0.0326 0.7588 -0.6505
vn 0.3884 0.8417 -0.3750
vn 0.6319 0.5812 -0.5128
vn 0.5705 0.3536 -0.7413
vn 0.7519 0.3979 -0.5256
vn 0.8359 0.5483 -0.0253
vn 0.6615 0.7303 0.1705
vn 0.4717 0.7885 0.3947
vn 0.1633 0.8371 0.5221
vn 0.2769 0.9289 0.2458
vn 0.5483 0.6497 0.5266
vn 0.1157 0.9932 -0.0125
vn -0.0763 0.9857 -0.1501
vn -0.1236 0.8916 -0.4356
vn -0.1454 0.7738 -0.6165
vn -0.3232 0.9283 -0.1840
vn -0.5949 0.5300 -0.6043
vn -0.6768 0.5437 -0.4964
vn -0.6228 0.7038 -0.3418
vn -0.5038 0.8618 -0.0589
vn -0.7632 0.6257 -0.1614
vn -0.7478 0.5496 -0.3726
vn -0.4620 0.8625 0.2065
vn -0.5743 0.7010 0.4228
vn -0.8112 0.2177 0.5427
vn -0.2030 0.5194 0.8301
vn -0.2070 0.6602 0.7220
vn -0.4383 0.1985 0.8766
vn 0.1851 0.4127 0.8919
vn -0.3383 -0.1987 0.9198
vn -0.5208 -0.1916 0.8319
vn -0.9796 -0.0862 0.1815
vn -0.9894 -0.0068 0.1448
vn -0.9758 -0.0332 -0.2161
vn 0.3252 0.2778 0.9039
vn 0.5599 0.5578 0.6126
vn 0.5878 0.2814 0.7585
vn 0.5911 0.4672 0.6575
vn 0.5675 0.5237 0.6354
vn 0.5892 0.5400 0.6010
vn 0.4072 -0.0283 0.9129
vn 0.5665 0.3651 0.7387
vn 0.1043 -0.0719 0.9919
vn 0.2259 -0.4266 0.8758
vn 0.4221 0.2438 0.8731
vn -0.7271 0.4588 -0.5107
vn -0.7113 0.4023 -0.5764
vn -0.6365 0.3950 -0.6625
vn 0.7953 -0.2421 0.5557
vn 0.8757 -0.1649 0.4539
s 1
f 1//1 11//2 2//3
f 1//1 2//3 3//4
f 1//1 3//4 4//5
f 1//1 4//5 5//6
f 1//1 5//6 6//7
f 1//1 6//7 7//8
f 1//1 7//8 8//9
f 1//1 8//9 9//10
f 1//1 9//10 10//11
f 1//1 10//11 11//2
f 2//3 11//2 13//12
f 10//11 12//13 11//2
f 11//2 12//13 13//12
f 2//3 13//12 12//13
f 2//3 12//13 3//4
f 3//4 12//13 18//14
f 10//11 14//15 12//13
f 12//13 14//15 15//16
f 12//13 15//16 16//17
f 12//13 16//17 17//18
f 12//13 17//18 18//14
f 3//4 18//14 17//18
f 3//4 17//18 21//19
f 17//18 15//16 19//20
f 17//18 19//20 20//21
f 17//18 20//21 21//19
f 17//18 16//17 15//16
f 3//4 21//19 20//21
f 3//4 20//21 4//5
f 4//5 20//21 23//22
f 20//21 27//23 22//24
f 20//21 22//24 23//22
f 20//21 19//20 24//25
f 20//21 24//25 25//26
f 20//21 25//26 26//27
f 20//21 26//27 27//23
f 22//24 27//23 30//28
f 26//27 28//29 27//23
f 27//23 28//29 29//30
f 27//23 29//30 30//28
f 22//24 30//28 29//30
f 31//31 29//30 34//32
f 31//31 33//33 29//30
f 32//34 29//30 33//33
f 32//34 22//24 29//30
f 29//30 28//29 34//32
f 31//31 34//32 37//35
f 34//32 42//36 35//37
f 34//32 35//37 36//38
f 34//32 36//38 37//35
f 34//32 28//29 38//39
f 34//32 38//39 39//40
f 34//32 39//40 40//41
f 34//32 40//41 41//42
f 34//32 41//42 42//36
f 35//37 42//36 44//43
f 41//42 43//44 42//36
f 42//36 43//44 44//43
f 35//37 44//43 45//45
f 45//45 44//43 47//46
f 44//43 43//44 46//47
f 44//43 46//47 47//46
f 45//45 47//46 48//48
f 48//48 47//46 50//49
f 47//46 46//47 49//50
f 47//46 49//50 50//49
f 48//48 50//49 51//51
f 51//51 50//49 52//52
f 52//52 50//49 53//53
f 50//49 49//50 53//53
f 52//52 53//53 54//54
f 54//54 53//53 57//55
f 53//53 49//50 55//56
f 53//53 55//56 56//57
f 53//53 56//57 57//55
f 54//54 57//55 58//58
f 58//58 57//55 60//59
f 57//55 56//57 59//60
f 57//55 59//60 60//59
f 58//58 60//59 61//61
f 61//61 60//59 64//62
f 60//59 59//60 62//63
f 60//59 62//63 63//64
f 60//59 63//64 64//62
f 61//61 64//62 65//65
f 65//65 64//62 66//66
f 64//62 63//64 66//66
f 65//65 66//66 67//67
f 67//67 66//66 69//68
f 66//66 63//64 68//69
f 66//66 68//69 69//68
f 67//67 69//68 70//70
f 70//70 69//68 71//71
f 69//68 68//69 71//71
f 72//72 71//71 73//73
f 72//72 70//70 71//71
f 73//73 71//71 68//69
f 72//72 73//73 75//74
f 73//73 68//69 74//75
f 73//73 74//75 75//74
f 72//72 75//74 79//76
f 75//74 74//75 76//77
f 75//74 76//77 77//78
f 75//74 77//78 78//79
f 75//74 78//79 79//76
f 72//72 79//76 80//80
f 80//80 79//76 81//81
f 79//76 78//79 81//81
f 80//80 81//81 78//79
f 82//82 80//80 83//83
f 82//82 72//72 80//80
f 83//83 80//80 85//84
f 80//80 78//79 84//85
f 80//80 84//85 85//84
f 83//83 85//84 86//86
f 86//86 85//84 87//87
f 87//87 85//84 89//88
f 85//84 84//85 88//89
f 85//84 88//89 89//88
f 87//87 89//88 88//89
f 87//87 88//89 43//44
f 43//44 88//89 49//50
f 88//89 84//85 78//79
f 88//89 78//79 77//78
f 88//89 77//78 49//50
f 40//41 87//87 43//44
f 40//41 86//86 87//87
f 39//40 86//86 40//41
f 39//40 83//83 86//86
f 38//39 83//83 39//40
f 38//39 82//82 83//83
f 38//39 90//90 82//82
f 90//90 91//91 82//82
f 82//82 91//91 92//92
f 82//82 92//92 93//93
f 82//82 93//93 94//94
f 82//82 94//94 95//95
f 82//82 95//95 72//72
f 94//94 72//72 95//95
f 67//67 94//94 96//96
f 67//67 70//70 94//94
f 96//96 94//94 93//93
f 94//94 70//70 72//72
f 97//97 96//96 98//98
f 97//97 67//67 96//96
f 98//98 96//96 99//99
f 96//96 93//93 99//99
f 98//98 99//99 100//100
f 100//100 99//99 101//101
f 99//99 93//93 92//92
f 99//99 92//92 101//101
f 100//100 101//101 102//102
f 102//102 101//101 91//91
f 101//101 92//92 91//91
f 103//103 102//102 104//104
f 103//103 100//100 102//102
f 104//104 102//102 105//105
f 102//102 91//91 105//105
f 104//104 105//105 106//106
f 106//106 105//105 109//107
f 105//105 91//91 107//108
f 105//105 107//108 108//109
f 105//105 108//109 109//107
f 106//106 109//107 110//110
f 110//110 109//107 111//111
f 109//107 108//109 90//90
f 109//107 90//90 111//111
f 110//110 111//111 90//90
f 15//16 110//110 113//112
f 15//16 106//106 110//110
f 110//110 90//90 112//113
f 110//110 112//113 113//112
f 15//16 113//112 114//114
f 113//112 112//113 114//114
f 15//16 114//114 25//26
f 25//26 114//114 112//113
f 25//26 112//113 116//115
f 112//113 90//90 115//116
f 112//113 115//116 116//115
f 25//26 116//115 26//27
f 26//27 116//115 115//116
f 26//27 115//116 117//117
f 115//116 90//90 38//39
f 115//116 38//39 117//117
f 26//27 117//117 28//29
f 117//117 38//39 28//29
f 90//90 108//109 107//108
f 90//90 107//108 91//91
f 15//16 118//118 106//106
f 104//104 106//106 118//118
f 119//119 118//118 14//15
f 119//119 104//104 118//118
f 14//15 118//118 120//120
f 15//16 120//120 118//118
f 14//15 120//120 15//16
f 8//9 119//119 9//10
f 8//9 121//121 119//119
f 9//10 119//119 14//15
f 121//121 122//122 119//119
f 119//119 122//122 123//123
f 119//119 123//123 124//124
f 119//119 124//124 103//103
f 119//119 103//103 104//104
f 123//123 125//125 124//124
f 124//124 125//125 97//97
f 124//124 97//97 98//98
f 124//124 98//98 103//103
f 123//123 126//126 125//125
f 126//126 97//97 125//125
f 123//123 128//127 126//126
f 127//128 126//126 128//127
f 127//128 61//61 126//126
f 126//126 61//61 65//65
f 126//126 65//65 97//97
f 122//122 128//127 123//123
f 122//122 127//128 128//127
f 129//129 127//128 131//130
f 129//129 130//131 127//128
f 122//122 131//130 127//128
f 130//131 58//58 127//128
f 127//128 58//58 61//61
f 129//129 131//130 132//132
f 132//132 131//130 122//122
f 133//133 129//129 132//132
f 133//133 132//132 134//134
f 134//134 132//132 121//121
f 121//121 132//132 122//122
f 8//9 134//134 135//135
f 8//9 133//133 134//134
f 134//134 121//121 135//135
f 8//9 135//135 121//121
f 8//9 136//136 133//133
f 136//136 129//129 133//133
f 8//9 137//137 136//136
f 137//137 138//138 136//136
f 136//136 138//138 139//139
f 136//136 139//139 140//140
f 136//136 140//140 129//129
f 141//141 140//140 142//142
f 141//141 143//143 140//140
f 142//142 140//140 138//138
f 129//129 140//140 143//143
f 140//140 139//139 138//138
f 144//144 143//143 141//141
f 144//144 129//129 143//143
f 6//7 144//144 141//141
f 6//7 145//145 144//144
f 145//145 146//146 144//144
f 144//144 146//146 147//147
f 144//144 147//147 129//129
f 146//146 129//129 147//147
f 31//31 146//146 149//148
f 31//31 148//149 146//146
f 145//145 149//148 146//146
f 148//149 129//129 146//146
f 31//31 149//148 150//150
f 150//150 149//148 145//145
s 0
f 4//151 150//151 151//151
s 1
f 4//5 31//31 150//150
f 150//150 145//145 151//152
f 4//5 151//152 5//6
f 5//6 151//152 152//153
f 151//152 145//145 152//153
f 5//6 152//153 153//154
f 6//7 152//153 145//145
f 6//7 153//154 152//153
f 5//6 153//154 6//7
f 31//31 154//155 148//149
f 148//149 158//156 129//129
f 148//149 154//155 155//157
f 148//149 155//157 156//158
f 148//149 156//158 157//159
f 148//149 157//159 158//156
f 129//129 158//156 159//160
f 157//159 159//160 158//156
f 129//129 159//160 130//131
f 156//158 159//160 157//159
f 156//158 58//58 159//160
f 159//160 58//58 130//131
f 155//157 54//54 156//158
f 156//158 54//54 58//58
f 160//161 155//157 161//162
f 160//161 52//52 155//157
f 154//155 161//162 155//157
f 155//157 52//52 54//54
f 160//161 161//162 154//155
f 31//31 160//161 163//163
f 31//31 162//164 160//161
f 37//35 160//161 162//164
f 37//35 45//45 160//161
s 0
f 160//165 154//165 163//165
s 1
f 160//161 45//45 48//48
f 160//161 48//48 51//51
f 160//161 51//51 52//52
f 31//31 163//163 154//155
f 31//31 37//35 162//164
f 6//7 142//142 164//166
f 6//7 141//141 142//142
f 142//142 138//138 164//166
f 6//7 164//166 166//167
f 164//166 138//138 165//168
f 164//166 165//168 166//167
f 6//7 166//167 7//8
f 7//8 166//167 165//168
f 7//8 165//168 8//9
f 8//9 165//168 137//137
f 165//168 138//138 137//137
f 103//103 98//98 100//100
f 97//97 65//65 67//67
f 49//50 77//78 167//169
f 55//56 77//78 76//77
f 55//56 167//169 77//78
f 49//50 167//169 55//56
f 55//56 76//77 168//170
f 76//77 74//75 168//170
f 55//56 168//170 59//60
f 59//60 168//170 62//63
f 62//63 168//170 74//75
f 62//63 74//75 68//69
f 62//63 68//69 63//64
f 55//56 59//60 56//57
f 43//44 49//50 46//47
f 37//35 36//38 45//45
f 35//37 45//45 36//38
f 40//41 43//44 41//42
f 31//31 32//34 33//33
f 4//5 32//34 31//31
f 4//5 23//22 32//34
f 23//22 22//24 32//34
f 15//16 25//26 19//20
f 19//20 25//26 24//25
f 9//10 14//15 10//11
