# Blender 4.1.1
# www.blender.org
o Fir
v -0.017796 0.139792 0.011337
v 0.002022 0.139792 0.022810
v 0.019818 0.139792 0.011473
v 0.017796 0.139792 -0.011337
v -0.002022 0.139792 -0.022810
v -0.019818 0.139792 -0.011473
v -0.017796 0.069896 0.011337
v 0.002022 0.069896 0.022810
v 0.019818 0.069896 0.011473
v 0.017796 0.069896 -0.011337
v -0.002022 0.069896 -0.022810
v -0.019818 0.069896 -0.011473
v -0.031426 0.000000 0.020021
v 0.003571 0.000000 0.040280
v 0.034997 0.000000 0.020260
v 0.031426 0.000000 -0.020021
v -0.003571 0.000000 -0.040280
v -0.034997 0.000000 -0.020260
v -0.012628 0.201276 -0.016557
v -0.085782 0.065202 0.031819
v -0.079497 0.073508 0.052418
v -0.058116 0.073544 0.063035
v -0.052075 0.067458 0.071450
v -0.037761 0.080467 0.081566
v -0.010546 0.077938 0.083376
v 0.002530 0.080669 0.089692
v 0.015281 0.078105 0.099550
v 0.042290 0.082257 0.091930
v 0.047926 0.081187 0.070154
v 0.055955 0.080857 0.082069
v 0.071714 0.085503 0.055685
v 0.077046 0.087446 0.048883
v 0.088722 0.085156 0.034660
v 0.085237 0.074420 0.011608
v 0.092332 0.073258 -0.016326
v 0.071593 0.072275 -0.031785
v 0.079523 0.077743 -0.044336
v 0.062887 0.071421 -0.066749
v 0.053996 0.071746 -0.071672
v 0.024181 0.062622 -0.085693
v 0.026409 0.062015 -0.084437
v -0.008770 0.053444 -0.098539
v -0.011621 0.059502 -0.103292
v -0.023199 0.062369 -0.083423
v -0.040232 0.053016 -0.080149
v -0.072150 0.051682 -0.068202
v -0.065659 0.062588 -0.051118
v -0.082314 0.051260 -0.049525
v -0.081174 0.061454 -0.020301
v -0.082415 0.067751 0.000948
v -0.090783 0.065581 0.007066
v 0.006470 0.066218 0.003548
v -0.006045 0.266336 -0.007752
v -0.059943 0.135133 0.050523
v -0.048245 0.140095 0.065581
v -0.029010 0.136172 0.067053
v -0.022557 0.128384 0.071628
v -0.007499 0.138244 0.075627
v 0.013232 0.132104 0.067833
v 0.025210 0.132406 0.068704
v 0.037480 0.127087 0.072350
v 0.055896 0.128711 0.057213
v 0.053513 0.129551 0.037490
v 0.063072 0.126790 0.044500
v 0.067478 0.132563 0.017853
v 0.069641 0.134629 0.010587
v 0.073932 0.132598 -0.005055
v 0.063363 0.125175 -0.023164
v 0.060226 0.126477 -0.048410
v 0.039932 0.129962 -0.054091
v 0.042675 0.135876 -0.066773
v 0.022856 0.134396 -0.079744
v 0.014739 0.136424 -0.080755
v -0.012744 0.132825 -0.082557
v -0.010755 0.131793 -0.082308
v -0.042236 0.129424 -0.082345
v -0.045202 0.136344 -0.085006
v -0.047674 0.138258 -0.064761
v -0.060410 0.130754 -0.056756
v -0.080941 0.132016 -0.036313
v -0.069883 0.139945 -0.024081
v -0.083032 0.130642 -0.017660
v -0.072434 0.137085 0.006256
v -0.066392 0.140926 0.024293
v -0.071061 0.139100 0.032013
v 0.000989 0.127927 -0.003577
v -0.006828 0.339105 0.002937
v -0.050691 0.199893 0.037868
v -0.041651 0.203832 0.051016
v -0.025738 0.200726 0.052705
v -0.020409 0.192823 0.056089
v -0.008312 0.202953 0.060749
v 0.009201 0.198682 0.054776
v 0.019057 0.199482 0.056007
v 0.029172 0.194418 0.059070
v 0.044870 0.198519 0.047627
v 0.043566 0.201294 0.031522
v 0.051275 0.198288 0.037415
v 0.055717 0.207027 0.016337
v 0.057712 0.209945 0.010668
v 0.061838 0.209769 -0.002060
v 0.053886 0.203755 -0.017840
v 0.052142 0.207529 -0.038441
v 0.035508 0.210587 -0.043639
v 0.038091 0.217927 -0.053395
v 0.022203 0.216830 -0.064905
v 0.015493 0.218552 -0.065907
v -0.007067 0.213806 -0.068799
v -0.005412 0.212852 -0.068595
v -0.031361 0.208949 -0.070120
v -0.033858 0.215961 -0.071867
v -0.036638 0.215631 -0.055322
v -0.047280 0.206706 -0.049917
v -0.064967 0.204816 -0.034011
v -0.056418 0.211970 -0.022960
v -0.067310 0.201400 -0.019006
v -0.059515 0.205836 0.001430
v -0.055227 0.208072 0.016682
v -0.059313 0.205220 0.022635
v 0.001644 0.201373 -0.004253
v 0.009883 0.414905 -0.001353
v -0.044595 0.290734 0.029226
v -0.038061 0.295064 0.039997
v -0.026194 0.289655 0.043099
v -0.023307 0.281530 0.046707
v -0.012959 0.290172 0.050913
v 0.000591 0.282222 0.048370
v 0.008272 0.281571 0.050272
v 0.015271 0.275397 0.053952
v 0.028887 0.275146 0.046533
v 0.029454 0.275693 0.033884
v 0.034625 0.272354 0.039368
v 0.040802 0.277069 0.023136
v 0.043158 0.278764 0.018819
v 0.047320 0.276026 0.009489
v 0.041572 0.269092 -0.003067
v 0.042266 0.270025 -0.019268
v 0.030100 0.274984 -0.025132
v 0.033788 0.280313 -0.032787
v 0.022157 0.280139 -0.043168
v 0.017228 0.282780 -0.044723
v -0.000718 0.281399 -0.048960
v 0.000434 0.280223 -0.048578
v -0.020148 0.280427 -0.052160
v -0.021069 0.287457 -0.054171
v -0.024539 0.290043 -0.041746
v -0.034370 0.283837 -0.038156
v -0.049595 0.287246 -0.027648
v -0.042876 0.294499 -0.018726
v -0.052999 0.286506 -0.016177
v -0.047929 0.292608 0.000028
v -0.045471 0.296359 0.012030
v -0.049469 0.295115 0.016348
v -0.000443 0.277348 0.002169
v -0.005839 0.493676 -0.005457
v -0.027601 0.356790 0.014712
v -0.025234 0.362866 0.022943
v -0.016484 0.361130 0.027077
v -0.013624 0.354083 0.030435
v -0.008403 0.365519 0.034389
v 0.002717 0.361856 0.034948
v 0.007925 0.363498 0.037400
v 0.013323 0.359566 0.041289
v 0.023890 0.363424 0.038044
v 0.025934 0.364205 0.029250
v 0.029341 0.362468 0.033992
v 0.035106 0.368987 0.023270
v 0.037065 0.371361 0.020496
v 0.041704 0.370004 0.014704
v 0.040560 0.361647 0.005473
v 0.043117 0.362863 -0.005807
v 0.034612 0.364092 -0.011891
v 0.037360 0.370409 -0.017000
v 0.030696 0.366846 -0.025899
v 0.027033 0.367952 -0.027823
v 0.015314 0.361299 -0.033256
v 0.016260 0.360497 -0.032764
v 0.002349 0.354594 -0.038197
v 0.000824 0.361153 -0.040101
v -0.003733 0.362548 -0.032040
v -0.010066 0.353578 -0.030598
v -0.022701 0.352287 -0.025585
v -0.020433 0.361265 -0.018774
v -0.026532 0.350481 -0.018007
v -0.026225 0.357805 -0.006276
v -0.026777 0.362099 0.002268
v -0.029957 0.359674 0.004786
v 0.009148 0.357118 0.002749
vn -0.0000 1.0000 -0.0000
vn -0.5010 -0.0000 0.8654
vn 0.5373 -0.0000 0.8434
vn 0.9961 -0.0000 -0.0883
vn 0.5010 -0.0000 -0.8654
vn -0.5373 -0.0000 -0.8434
vn -0.9961 -0.0000 0.0883
vn -0.4908 0.2010 0.8478
vn 0.5245 0.2174 0.8232
vn 0.9758 0.2010 -0.0865
vn 0.4908 0.2010 -0.8478
vn -0.5245 0.2174 -0.8232
vn -0.9758 0.2010 0.0865
vn -0.0000 -1.0000 -0.0000
vn -0.8686 0.4909 0.0671
vn -0.3623 0.5824 0.7277
vn -0.3987 0.5831 0.7079
vn -0.7547 0.5010 0.4236
vn 0.0068 0.6296 0.7769
vn -0.4527 0.5567 0.6965
vn -0.4302 0.5657 0.7035
vn 0.0946 0.6941 0.7136
vn 0.8174 0.5456 0.1848
vn -0.8294 -0.0149 0.5585
vn 0.5594 0.6921 0.4560
vn 0.4636 0.6869 0.5596
vn 0.6049 0.6974 0.3843
vn 0.7759 0.5188 -0.3590
vn 0.7622 0.6252 0.1676
vn 0.5263 0.4302 -0.7334
vn 0.6964 0.3830 0.6069
vn 0.5788 0.5642 -0.5888
vn 0.4253 0.5307 -0.7331
vn 0.2467 0.4841 -0.8395
vn -0.5257 -0.4873 0.6973
vn 0.2244 0.4771 -0.8497
vn 0.9307 0.1956 -0.3090
vn -0.8022 0.3074 -0.5118
vn -0.3897 0.4234 -0.8179
vn -0.3331 0.4234 -0.8425
vn -0.9353 0.3200 0.1511
vn -0.3170 0.3417 -0.8847
vn -0.8903 0.4396 -0.1186
vn -0.8812 0.4368 -0.1809
vn -0.6123 0.2205 -0.7593
vn -0.8391 0.5142 0.1774
vn 0.1148 -0.9330 0.3412
vn -0.0385 -0.9960 0.0809
vn -0.4010 -0.8545 -0.3302
vn 0.4460 -0.8011 0.3992
vn -0.1000 -0.9873 0.1236
vn 0.1223 -0.9779 0.1696
vn -0.3011 -0.9426 0.1443
vn 0.1799 -0.9781 0.1046
vn 0.1945 -0.9760 0.0983
vn -0.8197 -0.1673 0.5478
vn 0.2832 -0.9590 0.0003
vn 0.3064 -0.9514 -0.0315
vn 0.1239 -0.9587 0.2560
vn 0.0521 -0.9083 0.4151
vn 0.0967 -0.9931 0.0659
vn 0.0735 -0.9967 -0.0353
vn -0.1859 -0.8524 -0.4888
vn 0.2233 -0.9688 0.1075
vn 0.0031 -0.9974 -0.0713
vn 0.2529 -0.9634 0.0890
vn 0.2568 0.9664 0.0120
vn 0.2007 -0.9753 0.0921
vn -0.9368 -0.3016 0.1776
vn -0.1073 -0.9910 0.0805
vn 0.4604 -0.8798 -0.1181
vn 0.0826 -0.9905 0.1101
vn -0.4174 -0.6857 0.5963
vn 0.4404 -0.7224 -0.5331
vn -0.0387 -0.9430 0.3305
vn -0.0248 -0.9589 0.2827
vn -0.0062 -0.9398 -0.3417
vn 0.0060 -0.9998 -0.0165
vn -0.7564 0.4987 0.4233
vn 0.0342 0.4934 0.8691
vn -0.0111 0.4997 0.8661
vn -0.5030 0.4755 0.7217
vn 0.4301 0.4891 0.7588
vn -0.0757 0.4810 0.8735
vn -0.0482 0.4867 0.8722
vn 0.5038 0.5436 0.6713
vn 0.9239 0.3705 -0.0959
vn -0.5893 0.0106 0.8078
vn 0.8288 0.5026 0.2459
vn 0.7804 0.5006 0.3746
vn 0.8449 0.5086 0.1658
vn 0.7047 0.4097 -0.5792
vn 0.8901 0.4472 -0.0875
vn 0.3100 0.3979 -0.8634
vn 0.9302 0.2117 0.2999
vn 0.4471 0.5019 -0.7404
vn 0.2298 0.5045 -0.8323
vn -0.0069 0.4890 -0.8722
vn -0.3357 -0.4476 0.8289
vn -0.0355 0.4853 -0.8736
vn 0.7966 0.1130 -0.5939
vn -0.9197 0.3642 -0.1467
vn -0.6516 0.4750 -0.5914
vn -0.6065 0.4739 -0.6384
vn -0.7967 0.3376 0.5014
vn -0.6144 0.3983 -0.6811
vn -0.8496 0.4636 0.2516
vn -0.8647 0.4648 0.1907
vn -0.8470 0.2944 -0.4427
vn -0.6836 0.5119 0.5203
vn 0.0996 -0.9655 0.2407
vn -0.2018 -0.9790 0.0285
vn -0.6881 -0.6942 -0.2112
vn 0.5093 -0.8447 0.1646
vn -0.2482 -0.9636 0.0989
vn 0.0212 -0.9983 0.0548
vn -0.4393 -0.8755 0.2015
vn 0.0566 -0.9977 -0.0382
vn 0.0706 -0.9962 -0.0509
vn -0.6093 -0.1191 0.7840
vn 0.1290 -0.9734 -0.1896
vn 0.1417 -0.9625 -0.2314
vn 0.0662 -0.9870 0.1463
vn 0.0669 -0.9363 0.3447
vn -0.0579 -0.9973 -0.0442
vn -0.1295 -0.9817 -0.1394
vn -0.5445 -0.7089 -0.4483
vn 0.1089 -0.9926 -0.0531
vn -0.2226 -0.9639 -0.1458
vn 0.1348 -0.9872 -0.0847
vn 0.4628 0.8861 -0.0255
vn 0.0750 -0.9954 -0.0601
vn -0.8624 -0.1890 0.4697
vn -0.2755 -0.9596 0.0571
vn 0.2842 -0.8824 -0.3750
vn -0.0532 -0.9986 0.0083
vn -0.3114 -0.6439 0.6988
vn 0.1034 -0.6598 -0.7442
vn -0.0798 -0.9531 0.2921
vn -0.0891 -0.9677 0.2359
vn -0.3311 -0.8536 -0.4022
vn -0.1964 -0.9763 -0.0912
vn -0.8138 0.3691 0.4489
vn -0.0329 0.3422 0.9390
vn -0.0790 0.3469 0.9346
vn -0.5657 0.3275 0.7568
vn 0.3784 0.3583 0.8535
vn -0.1433 0.3283 0.9336
vn -0.1159 0.3341 0.9354
vn 0.4611 0.4183 0.7826
vn 0.9402 0.3402 -0.0175
vn -0.6220 -0.0656 0.7802
vn 0.8312 0.4294 0.3532
vn 0.7706 0.4141 0.4844
vn 0.8545 0.4432 0.2709
vn 0.7401 0.4134 -0.5305
vn 0.9123 0.4096 -0.0022
vn 0.3401 0.4174 -0.8427
vn 0.9144 0.1677 0.3683
vn 0.4813 0.5099 -0.7130
vn 0.2544 0.5147 -0.8188
vn 0.0067 0.4968 -0.8678
vn -0.3658 -0.4619 0.8080
vn -0.0230 0.4926 -0.8699
vn 0.8200 0.1547 -0.5510
vn -0.9419 0.2993 -0.1523
vn -0.6724 0.4424 -0.5935
vn -0.6242 0.4466 -0.6410
vn -0.8357 0.2238 0.5016
vn -0.6193 0.3814 -0.6864
vn -0.8975 0.3518 0.2660
vn -0.9112 0.3580 0.2037
vn -0.8495 0.2660 -0.4556
vn -0.7453 0.3734 0.5524
vn 0.1683 -0.9701 0.1750
vn -0.1806 -0.9787 -0.0980
vn -0.7031 -0.6218 -0.3451
vn 0.6120 -0.7828 0.1128
vn -0.2412 -0.9704 -0.0134
vn 0.0878 -0.9945 -0.0566
vn -0.4712 -0.8753 0.1087
vn 0.1344 -0.9770 -0.1658
vn 0.1515 -0.9720 -0.1797
vn -0.6397 -0.1717 0.7492
vn 0.2226 -0.9163 -0.3330
vn 0.2373 -0.8951 -0.3774
vn 0.1358 -0.9890 0.0577
vn 0.1211 -0.9463 0.2996
vn -0.0020 -0.9837 -0.1800
vn -0.0831 -0.9521 -0.2942
vn -0.5278 -0.6057 -0.5955
vn 0.1963 -0.9640 -0.1792
vn -0.1940 -0.9329 -0.3035
vn 0.2273 -0.9501 -0.2137
vn 0.4873 0.8673 0.1013
vn 0.1570 -0.9691 -0.1901
vn -0.8835 -0.2104 0.4185
vn -0.2713 -0.9603 -0.0648
vn 0.3886 -0.7699 -0.5062
vn 0.0009 -0.9931 -0.1170
vn -0.3380 -0.6490 0.6816
vn 0.1807 -0.5025 -0.8455
vn -0.0496 -0.9720 0.2299
vn -0.0570 -0.9854 0.1605
vn -0.3004 -0.7633 -0.5719
vn -0.1663 -0.9563 -0.2403
vn -0.8335 0.4460 0.3262
vn -0.0821 0.3542 0.9315
vn -0.1277 0.3642 0.9225
vn -0.6109 0.3985 0.6841
vn 0.3468 0.3078 0.8860
vn -0.1960 0.3561 0.9136
vn -0.1675 0.3577 0.9187
vn 0.4542 0.3434 0.8221
vn 0.9871 0.1516 0.0508
vn -0.7000 0.0812 0.7095
vn 0.8718 0.2684 0.4098
vn 0.7946 0.2745 0.5415
vn 0.9064 0.2697 0.3252
vn 0.8486 0.1902 -0.4936
vn 0.9759 0.2115 0.0540
vn 0.4937 0.2146 -0.8428
vn 0.8859 0.0496 0.4613
vn 0.6368 0.2808 -0.7181
vn 0.4306 0.3030 -0.8502
vn 0.1949 0.3157 -0.9286
vn -0.5242 -0.2488 0.8145
vn 0.1658 0.3159 -0.9342
vn 0.8820 -0.0191 -0.4708
vn -0.8824 0.3463 -0.3185
vn -0.5227 0.3894 -0.7583
vn -0.4657 0.3815 -0.7985
vn -0.8634 0.3223 0.3882
vn -0.4622 0.3217 -0.8264
vn -0.8970 0.4254 0.1205
vn -0.9027 0.4273 0.0513
vn -0.7434 0.2785 -0.6081
vn -0.7741 0.4494 0.4459
vn -0.0381 -0.9190 0.3925
vn -0.4171 -0.9088 0.0109
vn -0.8095 -0.4533 -0.3730
vn 0.5178 -0.7853 0.3395
vn -0.4890 -0.8663 0.1023
vn -0.1102 -0.9882 0.1067
vn -0.7034 -0.6856 0.1876
vn -0.0334 -0.9991 -0.0275
vn -0.0090 -0.9990 -0.0436
vn -0.7277 -0.0003 0.6859
vn 0.1140 -0.9648 -0.2370
vn 0.1427 -0.9453 -0.2932
vn -0.0656 -0.9650 0.2539
vn -0.1027 -0.8501 0.5165
vn -0.2002 -0.9776 -0.0649
vn -0.2731 -0.9354 -0.2245
vn -0.6018 -0.4897 -0.6309
vn 0.0483 -0.9981 -0.0374
vn -0.3945 -0.8839 -0.2511
vn 0.0950 -0.9923 -0.0792
vn 0.7052 0.7071 0.0522
vn -0.0001 -0.9984 -0.0566
vn -0.9402 -0.0261 0.3395
vn -0.5145 -0.8568 0.0346
vn 0.3610 -0.8242 -0.4363
vn -0.2073 -0.9781 0.0170
vn -0.5315 -0.4157 0.7381
vn 0.1999 -0.5184 -0.8315
vn -0.2951 -0.8600 0.4162
vn -0.3016 -0.8907 0.3402
vn -0.4205 -0.6908 -0.5882
vn -0.3782 -0.9106 -0.1667
vn -0.9729 0.1767 0.1494
vn -0.3728 0.2493 0.8938
vn -0.4157 0.2482 0.8750
vn -0.8183 0.1855 0.5440
vn 0.0495 0.2956 0.9540
vn -0.4730 0.2300 0.8505
vn -0.4487 0.2363 0.8619
vn 0.1582 0.3451 0.9252
vn 0.9256 0.2918 0.2411
vn -0.8195 -0.0480 0.5711
vn 0.7050 0.3708 0.6045
vn 0.5886 0.3600 0.7238
vn 0.7636 0.3788 0.5229
vn 0.8874 0.2816 -0.3650
vn 0.9088 0.3395 0.2426
vn 0.5883 0.2223 -0.7775
vn 0.7393 0.1988 0.6434
vn 0.6994 0.3056 -0.6461
vn 0.5112 0.2783 -0.8132
vn 0.2922 0.2410 -0.9255
vn -0.6074 -0.2551 0.7523
vn 0.2651 0.2357 -0.9350
vn 0.9416 0.1287 -0.3112
vn -0.8606 0.0879 -0.5016
vn -0.4430 0.1713 -0.8800
vn -0.3784 0.1745 -0.9090
vn -0.9737 0.0861 0.2108
vn -0.3497 0.1318 -0.9275
vn -0.9867 0.1484 -0.0669
vn -0.9794 0.1478 -0.1375
vn -0.6468 0.0583 -0.7604
vn -0.9412 0.1907 0.2787
vn 0.1858 -0.8153 0.5484
vn -0.1814 -0.9830 -0.0290
vn -0.6268 -0.5275 -0.5734
vn 0.6961 -0.4970 0.5181
vn -0.3155 -0.9459 0.0762
vn 0.2156 -0.9590 0.1842
vn -0.6385 -0.7606 0.1175
vn 0.3487 -0.9370 0.0217
vn 0.3806 -0.9247 0.0063
vn -0.8259 -0.1107 0.5528
vn 0.5378 -0.8171 -0.2076
vn 0.5670 -0.7794 -0.2665
vn 0.2150 -0.8985 0.3828
vn 0.0494 -0.7435 0.6669
vn 0.1485 -0.9862 -0.0727
vn 0.0829 -0.9480 -0.3073
vn -0.3209 -0.5073 -0.7998
vn 0.4420 -0.8966 0.0280
vn -0.0818 -0.9234 -0.3751
vn 0.4990 -0.8665 -0.0152
vn 0.5750 0.7956 0.1909
vn 0.3935 -0.9193 -0.0087
vn -0.9694 -0.1756 0.1718
vn -0.3319 -0.9430 -0.0243
vn 0.7333 -0.5759 -0.3614
vn 0.1166 -0.9924 0.0382
vn -0.5758 -0.3968 0.7149
vn 0.5189 -0.3490 -0.7804
vn -0.1506 -0.8368 0.5264
vn -0.1292 -0.8894 0.4385
vn -0.0821 -0.6641 -0.7431
vn -0.0765 -0.9622 -0.2614
s 0
f 1//1 2//1 3//1 4//1 5//1 6//1
f 1//2 7//2 8//2 2//2
f 2//3 8//3 9//3 3//3
f 3//4 9//4 10//4 4//4
f 4//5 10//5 11//5 5//5
f 5//6 11//6 12//6 6//6
f 6//7 12//7 7//7 1//7
f 7//8 13//8 14//8 8//8
f 8//9 14//9 15//9 9//9
f 9//10 15//10 16//10 10//10
f 10//11 16//11 17//11 11//11
f 11//12 17//12 18//12 12//12
f 12//13 18//13 13//13 7//13
f 18//14 17//14 16//14 15//14 14//14 13//14
f 20//15 21//15 19//15
f 21//16 22//16 19//16
f 22//17 23//17 19//17
f 23//18 24//18 19//18
f 24//19 25//19 19//19
f 25//20 26//20 19//20
f 26//21 27//21 19//21
f 27//22 28//22 19//22
f 28//23 29//23 19//23
f 29//24 30//24 19//24
f 30//25 31//25 19//25
f 31//26 32//26 19//26
f 32//27 33//27 19//27
f 33//28 34//28 19//28
f 34//29 35//29 19//29
f 35//30 36//30 19//30
f 36//31 37//31 19//31
f 37//32 38//32 19//32
f 38//33 39//33 19//33
f 39//34 40//34 19//34
f 40//35 41//35 19//35
f 41//36 42//36 19//36
f 42//37 43//37 19//37
f 43//38 44//38 19//38
f 44//39 45//39 19//39
f 45//40 46//40 19//40
f 46//41 47//41 19//41
f 47//42 48//42 19//42
f 48//43 49//43 19//43
f 49//44 50//44 19//44
f 50//45 51//45 19//45
f 51//46 20//46 19//46
f 20//47 52//47 21//47
f 21//48 52//48 22//48
f 22//49 52//49 23//49
f 23//50 52//50 24//50
f 24//51 52//51 25//51
f 25//52 52//52 26//52
f 26//53 52//53 27//53
f 27//54 52//54 28//54
f 28//55 52//55 29//55
f 29//56 52//56 30//56
f 30//57 52//57 31//57
f 31//58 52//58 32//58
f 32//59 52//59 33//59
f 33//60 52//60 34//60
f 34//61 52//61 35//61
f 35//62 52//62 36//62
f 36//63 52//63 37//63
f 37//64 52//64 38//64
f 38//65 52//65 39//65
f 39//66 52//66 40//66
f 40//67 52//67 41//67
f 41//68 52//68 42//68
f 42//69 52//69 43//69
f 43//70 52//70 44//70
f 44//71 52//71 45//71
f 45//72 52//72 46//72
f 46//73 52//73 47//73
f 47//74 52//74 48//74
f 48//75 52//75 49//75
f 49//76 52//76 50//76
f 50//77 52//77 51//77
f 51//78 52//78 20//78
f 54//79 55//79 53//79
f 55//80 56//80 53//80
f 56//81 57//81 53//81
f 57//82 58//82 53//82
f 58//83 59//83 53//83
f 59//84 60//84 53//84
f 60//85 61//85 53//85
f 61//86 62//86 53//86
f 62//87 63//87 53//87
f 63//88 64//88 53//88
f 64//89 65//89 53//89
f 65//90 66//90 53//90
f 66//91 67//91 53//91
f 67//92 68//92 53//92
f 68//93 69//93 53//93
f 69//94 70//94 53//94
f 70//95 71//95 53//95
f 71//96 72//96 53//96
f 72//97 73//97 53//97
f 73//98 74//98 53//98
f 74//99 75//99 53//99
f 75//100 76//100 53//100
f 76//101 77//101 53//101
f 77//102 78//102 53//102
f 78//103 79//103 53//103
f 79//104 80//104 53//104
f 80//105 81//105 53//105
f 81//106 82//106 53//106
f 82//107 83//107 53//107
f 83//108 84//108 53//108
f 84//109 85//109 53//109
f 85//110 54//110 53//110
f 54//111 86//111 55//111
f 55//112 86//112 56//112
f 56//113 86//113 57//113
f 57//114 86//114 58//114
f 58//115 86//115 59//115
f 59//116 86//116 60//116
f 60//117 86//117 61//117
f 61//118 86//118 62//118
f 62//119 86//119 63//119
f 63//120 86//120 64//120
f 64//121 86//121 65//121
f 65//122 86//122 66//122
f 66//123 86//123 67//123
f 67//124 86//124 68//124
f 68//125 86//125 69//125
f 69//126 86//126 70//126
f 70//127 86//127 71//127
f 71//128 86//128 72//128
f 72//129 86//129 73//129
f 73//130 86//130 74//130
f 74//131 86//131 75//131
f 75//132 86//132 76//132
f 76//133 86//133 77//133
f 77//134 86//134 78//134
f 78//135 86//135 79//135
f 79//136 86//136 80//136
f 80//137 86//137 81//137
f 81//138 86//138 82//138
f 82//139 86//139 83//139
f 83//140 86//140 84//140
f 84//141 86//141 85//141
f 85//142 86//142 54//142
f 88//143 89//143 87//143
f 89//144 90//144 87//144
f 90//145 91//145 87//145
f 91//146 92//146 87//146
f 92//147 93//147 87//147
f 93//148 94//148 87//148
f 94//149 95//149 87//149
f 95//150 96//150 87//150
f 96//151 97//151 87//151
f 97//152 98//152 87//152
f 98//153 99//153 87//153
f 99//154 100//154 87//154
f 100//155 101//155 87//155
f 101//156 102//156 87//156
f 102//157 103//157 87//157
f 103//158 104//158 87//158
f 104//159 105//159 87//159
f 105//160 106//160 87//160
f 106//161 107//161 87//161
f 107//162 108//162 87//162
f 108//163 109//163 87//163
f 109//164 110//164 87//164
f 110//165 111//165 87//165
f 111//166 112//166 87//166
f 112//167 113//167 87//167
f 113//168 114//168 87//168
f 114//169 115//169 87//169
f 115//170 116//170 87//170
f 116//171 117//171 87//171
f 117//172 118//172 87//172
f 118//173 119//173 87//173
f 119//174 88//174 87//174
f 88//175 120//175 89//175
f 89//176 120//176 90//176
f 90//177 120//177 91//177
f 91//178 120//178 92//178
f 92//179 120//179 93//179
f 93//180 120//180 94//180
f 94//181 120//181 95//181
f 95//182 120//182 96//182
f 96//183 120//183 97//183
f 97//184 120//184 98//184
f 98//185 120//185 99//185
f 99//186 120//186 100//186
f 100//187 120//187 101//187
f 101//188 120//188 102//188
f 102//189 120//189 103//189
f 103//190 120//190 104//190
f 104//191 120//191 105//191
f 105//192 120//192 106//192
f 106//193 120//193 107//193
f 107//194 120//194 108//194
f 108//195 120//195 109//195
f 109//196 120//196 110//196
f 110//197 120//197 111//197
f 111//198 120//198 112//198
f 112//199 120//199 113//199
f 113//200 120//200 114//200
f 114//201 120//201 115//201
f 115//202 120//202 116//202
f 116//203 120//203 117//203
f 117//204 120//204 118//204
f 118//205 120//205 119//205
f 119//206 120//206 88//206
f 122//207 123//207 121//207
f 123//208 124//208 121//208
f 124//209 125//209 121//209
f 125//210 126//210 121//210
f 126//211 127//211 121//211
f 127//212 128//212 121//212
f 128//213 129//213 121//213
f 129//214 130//214 121//214
f 130//215 131//215 121//215
f 131//216 132//216 121//216
f 132//217 133//217 121//217
f 133//218 134//218 121//218
f 134//219 135//219 121//219
f 135//220 136//220 121//220
f 136//221 137//221 121//221
f 137//222 138//222 121//222
f 138//223 139//223 121//223
f 139//224 140//224 121//224
f 140//225 141//225 121//225
f 141//226 142//226 121//226
f 142//227 143//227 121//227
f 143//228 144//228 121//228
f 144//229 145//229 121//229
f 145//230 146//230 121//230
f 146//231 147//231 121//231
f 147//232 148//232 121//232
f 148//233 149//233 121//233
f 149//234 150//234 121//234
f 150//235 151//235 121//235
f 151//236 152//236 121//236
f 152//237 153//237 121//237
f 153//238 122//238 121//238
f 122//239 154//239 123//239
f 123//240 154//240 124//240
f 124//241 154//241 125//241
f 125//242 154//242 126//242
f 126//243 154//243 127//243
f 127//244 154//244 128//244
f 128//245 154//245 129//245
f 129//246 154//246 130//246
f 130//247 154//247 131//247
f 131//248 154//248 132//248
f 132//249 154//249 133//249
f 133//250 154//250 134//250
f 134//251 154//251 135//251
f 135//252 154//252 136//252
f 136//253 154//253 137//253
f 137//254 154//254 138//254
f 138//255 154//255 139//255
f 139//256 154//256 140//256
f 140//257 154//257 141//257
f 141//258 154//258 142//258
f 142//259 154//259 143//259
f 143//260 154//260 144//260
f 144//261 154//261 145//261
f 145//262 154//262 146//262
f 146//263 154//263 147//263
f 147//264 154//264 148//264
f 148//265 154//265 149//265
f 149//266 154//266 150//266
f 150//267 154//267 151//267
f 151//268 154//268 152//268
f 152//269 154//269 153//269
f 153//270 154//270 122//270
f 156//271 157//271 155//271
f 157//272 158//272 155//272
f 158//273 159//273 155//273
f 159//274 160//274 155//274
f 160//275 161//275 155//275
f 161//276 162//276 155//276
f 162//277 163//277 155//277
f 163//278 164//278 155//278
f 164//279 165//279 155//279
f 165//280 166//280 155//280
f 166//281 167//281 155//281
f 167//282 168//282 155//282
f 168//283 169//283 155//283
f 169//284 170//284 155//284
f 170//285 171//285 155//285
f 171//286 172//286 155//286
f 172//287 173//287 155//287
f 173//288 174//288 155//288
f 174//289 175//289 155//289
f 175//290 176//290 155//290
f 176//291 177//291 155//291
f 177//292 178//292 155//292
f 178//293 179//293 155//293
f 179//294 180//294 155//294
f 180//295 181//295 155//295
f 181//296 182//296 155//296
f 182//297 183//297 155//297
f 183//298 184//298 155//298
f 184//299 185//299 155//299
f 185//300 186//300 155//300
f 186//301 187//301 155//301
f 187//302 156//302 155//302
f 156//303 188//303 157//303
f 157//304 188//304 158//304
f 158//305 188//305 159//305
f 159//306 188//306 160//306
f 160//307 188//307 161//307
f 161//308 188//308 162//308
f 162//309 188//309 163//309
f 163//310 188//310 164//310
f 164//311 188//311 165//311
f 165//312 188//312 166//312
f 166//313 188//313 167//313
f 167//314 188//314 168//314
f 168//315 188//315 169//315
f 169//316 188//316 170//316
f 170//317 188//317 171//317
f 171//318 188//318 172//318
f 172//319 188//319 173//319
f 173//320 188//320 174//320
f 174//321 188//321 175//321
f 175//322 188//322 176//322
f 176//323 188//323 177//323
f 177//324 188//324 178//324
f 178//325 188//325 179//325
f 179//326 188//326 180//326
f 180//327 188//327 181//327
f 181//328 188//328 182//328
f 182//329 188//329 183//329
f 183//330 188//330 184//330
f 184//331 188//331 185//331
f 185//332 188//332 186//332
f 186//333 188//333 187//333
f 187//334 188//334 156//334
