# Blender 4.1.1
# www.blender.org
o Fir
v -0.020044 0.097436 0.012770
v 0.000889 0.097436 0.023511
v 0.020933 0.097436 0.010742
v 0.020044 0.097436 -0.012770
v -0.000889 0.097436 -0.023511
v -0.020933 0.097436 -0.010742
v -0.020044 0.048718 0.012770
v 0.000889 0.048718 0.023511
v 0.020933 0.048718 0.010742
v 0.020044 0.048718 -0.012770
v -0.000889 0.048718 -0.023511
v -0.020933 0.048718 -0.010742
v -0.035872 0.000000 0.022853
v 0.001591 0.000000 0.042078
v 0.037463 0.000000 0.019225
v 0.035872 0.000000 -0.022853
v -0.001591 0.000000 -0.042078
v -0.037463 0.000000 -0.019225
v 0.009166 0.141460 -0.006366
v -0.101521 0.057042 0.008654
v -0.101534 0.060689 0.031104
v -0.083193 0.056872 0.046874
v -0.080756 0.051339 0.055995
v -0.067980 0.057516 0.070758
v -0.040648 0.051505 0.079194
v -0.029031 0.051035 0.088933
v -0.019709 0.046805 0.101512
v 0.011702 0.045890 0.101383
v 0.025443 0.045424 0.081534
v 0.029373 0.043343 0.095132
v 0.056045 0.045474 0.073941
v 0.064333 0.046337 0.068874
v 0.081429 0.043714 0.057788
v 0.084958 0.038101 0.033424
v 0.102470 0.037668 0.007949
v 0.086461 0.040990 -0.012459
v 0.100002 0.044167 -0.022108
v 0.090160 0.043564 -0.048762
v 0.082762 0.045410 -0.055780
v 0.055779 0.044480 -0.077901
v 0.057560 0.043656 -0.076173
v 0.025094 0.043933 -0.099683
v 0.024623 0.048766 -0.104435
v 0.005624 0.051476 -0.087775
v -0.014453 0.047522 -0.089847
v -0.052215 0.050896 -0.086482
v -0.050401 0.056474 -0.067141
v -0.069711 0.051198 -0.070946
v -0.078017 0.056481 -0.041230
v -0.086347 0.059876 -0.020260
v -0.097570 0.059359 -0.016654
v 0.004972 0.045020 0.004735
v -0.010597 0.184731 -0.005733
v -0.054063 0.087961 0.061238
v -0.041865 0.092708 0.075374
v -0.020739 0.092157 0.074450
v -0.012925 0.087498 0.078357
v 0.002263 0.096008 0.080612
v 0.025147 0.094092 0.069889
v 0.038010 0.095647 0.069273
v 0.051812 0.093348 0.071484
v 0.071310 0.096538 0.053460
v 0.068472 0.096848 0.033319
v 0.079117 0.096014 0.039367
v 0.082992 0.100498 0.011198
v 0.085031 0.102168 0.003396
v 0.089718 0.101244 -0.013367
v 0.078968 0.094921 -0.030814
v 0.075218 0.095465 -0.056582
v 0.052960 0.095593 -0.059888
v 0.055162 0.099989 -0.073370
v 0.033876 0.096736 -0.084303
v 0.024918 0.097226 -0.084318
v -0.004284 0.091649 -0.082705
v -0.002032 0.091159 -0.082702
v -0.035649 0.085984 -0.078750
v -0.039602 0.090435 -0.081117
v -0.042276 0.091483 -0.059814
v -0.055104 0.084864 -0.049916
v -0.077135 0.083433 -0.026116
v -0.065968 0.090160 -0.014823
v -0.079064 0.082250 -0.006519
v -0.068124 0.087900 0.016941
v -0.061864 0.091238 0.034880
v -0.066621 0.089451 0.043470
v 0.011753 0.089817 -0.002589
v -0.008052 0.235325 0.012544
v -0.051984 0.134479 0.042993
v -0.042694 0.136688 0.056099
v -0.025338 0.135071 0.056332
v -0.019374 0.129573 0.058867
v -0.006716 0.136785 0.063363
v 0.012654 0.134951 0.055469
v 0.023304 0.135828 0.055986
v 0.034383 0.132519 0.057983
v 0.051656 0.136796 0.045144
v 0.050634 0.139770 0.028792
v 0.058938 0.137598 0.034049
v 0.064108 0.145288 0.012483
v 0.066349 0.147784 0.006656
v 0.071228 0.148702 -0.006847
v 0.063273 0.145278 -0.022901
v 0.061875 0.149234 -0.043796
v 0.043844 0.151026 -0.047599
v 0.046696 0.156895 -0.057405
v 0.029812 0.156266 -0.068068
v 0.022488 0.157254 -0.068438
v -0.001786 0.153226 -0.069891
v 0.000040 0.152618 -0.069880
v -0.027989 0.148943 -0.069584
v -0.030893 0.153828 -0.070719
v -0.034409 0.152353 -0.053415
v -0.045834 0.145349 -0.047550
v -0.065482 0.142221 -0.029787
v -0.056774 0.146785 -0.018594
v -0.068370 0.138727 -0.014316
v -0.060672 0.140731 0.006457
v -0.056553 0.141418 0.022015
v -0.061078 0.138863 0.028312
v 0.006146 0.140542 -0.004732
v 0.000407 0.289089 -0.009157
v -0.029546 0.203181 0.055456
v -0.018915 0.207090 0.061569
v -0.006126 0.203901 0.057929
v -0.001342 0.198583 0.059979
v 0.009681 0.205176 0.057640
v 0.021689 0.199907 0.047903
v 0.029751 0.199816 0.045329
v 0.038293 0.195983 0.045026
v 0.047740 0.195745 0.030397
v 0.042622 0.195319 0.018295
v 0.050087 0.193516 0.020590
v 0.048373 0.195924 0.001794
v 0.048558 0.196892 -0.003630
v 0.048468 0.194512 -0.014555
v 0.037934 0.188703 -0.022664
v 0.031334 0.188317 -0.038155
v 0.017066 0.191004 -0.036893
v 0.016797 0.194320 -0.046327
v 0.001330 0.193165 -0.049353
v -0.004124 0.194747 -0.048105
v -0.022695 0.192960 -0.041776
v -0.021379 0.192203 -0.042027
v -0.042217 0.191478 -0.033658
v -0.044389 0.196200 -0.035297
v -0.042269 0.198698 -0.021884
v -0.049494 0.194320 -0.012696
v -0.059261 0.196903 0.005588
v -0.049452 0.202726 0.009754
v -0.057306 0.197031 0.018217
v -0.045735 0.202479 0.030137
v -0.038334 0.205941 0.039737
v -0.040079 0.205235 0.046076
v 0.000502 0.193483 0.005756
v -0.003861 0.344370 -0.006290
v -0.034875 0.249361 0.009879
v -0.034157 0.253495 0.018583
v -0.025721 0.252068 0.023901
v -0.023569 0.247075 0.027604
v -0.018644 0.254905 0.032410
v -0.006835 0.252102 0.034401
v -0.001759 0.253116 0.037585
v 0.003071 0.250235 0.042191
v 0.015336 0.252707 0.040335
v 0.019653 0.253256 0.031710
v 0.022171 0.251943 0.036941
v 0.031080 0.256419 0.026912
v 0.033904 0.258045 0.024386
v 0.040268 0.257029 0.019120
v 0.041064 0.251285 0.009540
v 0.046536 0.252140 -0.001529
v 0.038819 0.253220 -0.008794
v 0.043128 0.257589 -0.013540
v 0.037976 0.255306 -0.023460
v 0.034498 0.256169 -0.025878
v 0.022999 0.251824 -0.032987
v 0.023887 0.251242 -0.032372
v 0.010035 0.247468 -0.039760
v 0.008969 0.252083 -0.041823
v 0.002155 0.253111 -0.034248
v -0.005208 0.246993 -0.033712
v -0.020078 0.246345 -0.030313
v -0.019071 0.252511 -0.023029
v -0.026057 0.245128 -0.023164
v -0.028372 0.250158 -0.011176
v -0.030918 0.253113 -0.002556
v -0.035000 0.251480 -0.000449
v 0.007684 0.248842 0.002605
vn -0.0000 1.0000 -0.0000
vn -0.4566 -0.0000 0.8897
vn 0.5373 -0.0000 0.8434
vn 0.9993 -0.0000 -0.0378
vn 0.4566 -0.0000 -0.8897
vn -0.5373 -0.0000 -0.8434
vn -0.9993 -0.0000 0.0378
vn -0.4332 0.3155 0.8443
vn 0.5104 0.3127 0.8011
vn 0.9482 0.3155 -0.0358
vn 0.4332 0.3155 -0.8443
vn -0.5104 0.3127 -0.8011
vn -0.9482 0.3155 0.0358
vn -0.0000 -1.0000 -0.0000
vn -0.6124 0.7803 -0.1271
vn -0.3437 0.7395 0.5787
vn -0.3672 0.7485 0.5522
vn -0.6139 0.7601 0.2132
vn -0.0626 0.7058 0.7056
vn -0.4165 0.7370 0.5324
vn -0.3970 0.7400 0.5430
vn 0.0245 0.7482 0.6630
vn 0.6947 0.5462 0.4681
vn -0.9510 0.1050 0.2909
vn 0.4127 0.6946 0.5893
vn 0.3209 0.6950 0.6434
vn 0.4613 0.6994 0.5459
vn 0.8096 0.5867 -0.0179
vn 0.6411 0.6357 0.4300
vn 0.6933 0.5608 -0.4526
vn 0.4946 0.3318 0.8033
vn 0.6824 0.6803 -0.2673
vn 0.5880 0.6777 -0.4416
vn 0.4629 0.6594 -0.5924
vn -0.6750 -0.6197 0.4003
vn 0.4466 0.6556 -0.6089
vn 0.9910 0.1296 0.0337
vn -0.4775 0.5997 -0.6421
vn -0.0558 0.6710 -0.7393
vn -0.0071 0.6653 -0.7466
vn -0.7770 0.6205 -0.1061
vn 0.0017 0.5809 -0.8140
vn -0.6017 0.7403 -0.2998
vn -0.5787 0.7370 -0.3492
vn -0.2885 0.4789 -0.8291
vn -0.6082 0.7935 -0.0223
vn -0.1049 -0.9816 0.1594
vn -0.1585 -0.9859 -0.0543
vn -0.3183 -0.8458 -0.4281
vn 0.1102 -0.9472 0.3010
vn -0.2031 -0.9784 -0.0392
vn -0.0747 -0.9964 0.0410
vn -0.3346 -0.9399 -0.0680
vn -0.0291 -0.9995 0.0110
vn -0.0190 -0.9998 0.0103
vn -0.9572 -0.1355 0.2559
vn 0.0535 -0.9980 -0.0330
vn 0.0743 -0.9961 -0.0483
vn -0.0868 -0.9911 0.1007
vn -0.1555 -0.9673 0.2003
vn -0.0740 -0.9967 -0.0340
vn -0.0713 -0.9919 -0.1055
vn -0.1454 -0.8609 -0.4875
vn -0.0024 -0.9997 0.0235
vn -0.1079 -0.9835 -0.1450
vn 0.0193 -0.9996 0.0184
vn 0.2780 0.9463 0.1647
vn -0.0141 -0.9999 0.0077
vn -0.9464 -0.2686 -0.1796
vn -0.2004 -0.9772 -0.0696
vn 0.1994 -0.9776 -0.0668
vn -0.0897 -0.9959 -0.0079
vn -0.5297 -0.8004 0.2805
vn 0.3127 -0.8707 -0.3797
vn -0.1993 -0.9729 0.1172
vn -0.1828 -0.9794 0.0859
vn -0.0628 -0.9418 -0.3303
vn -0.1155 -0.9874 -0.1084
vn -0.6976 0.5923 0.4031
vn 0.0501 0.6507 0.7576
vn 0.0116 0.6539 0.7565
vn -0.4340 0.5953 0.6763
vn 0.3579 0.6774 0.6427
vn -0.0392 0.6310 0.7748
vn -0.0169 0.6386 0.7694
vn 0.3914 0.7351 0.5536
vn 0.7610 0.6414 -0.0974
vn -0.4967 -0.0622 0.8657
vn 0.6338 0.7456 0.2059
vn 0.6030 0.7332 0.3145
vn 0.6398 0.7562 0.1372
vn 0.5080 0.6609 -0.5525
vn 0.6934 0.7154 -0.0858
vn 0.1232 0.5779 -0.8067
vn 0.8539 0.4374 0.2821
vn 0.2325 0.7105 -0.6641
vn 0.0382 0.6762 -0.7357
vn -0.1612 0.6224 -0.7659
vn -0.1395 -0.6366 0.7584
vn -0.1847 0.6142 -0.7672
vn 0.7116 0.2920 -0.6390
vn -0.9122 0.3874 -0.1336
vn -0.6724 0.5288 -0.5179
vn -0.6375 0.5311 -0.5582
vn -0.7599 0.3953 0.5160
vn -0.6554 0.4426 -0.6120
vn -0.8066 0.5370 0.2468
vn -0.8243 0.5338 0.1884
vn -0.8613 0.2914 -0.4163
vn -0.6182 0.6158 0.4885
vn 0.1866 -0.9686 0.1643
vn -0.0252 -0.9995 0.0197
vn -0.4448 -0.8810 -0.1609
vn 0.4719 -0.8736 0.1188
vn -0.0515 -0.9963 0.0683
vn 0.1216 -0.9919 0.0360
vn -0.1853 -0.9717 0.1465
vn 0.1371 -0.9902 -0.0269
vn 0.1452 -0.9888 -0.0357
vn -0.4919 -0.2661 0.8290
vn 0.1719 -0.9763 -0.1317
vn 0.1768 -0.9709 -0.1616
vn 0.1576 -0.9826 0.0982
vn 0.1731 -0.9553 0.2396
vn 0.0630 -0.9976 -0.0302
vn 0.0083 -0.9955 -0.0944
vn -0.3530 -0.8710 -0.3417
vn 0.1697 -0.9848 -0.0374
vn -0.0542 -0.9936 -0.0988
vn 0.1841 -0.9811 -0.0593
vn 0.2125 0.9770 -0.0202
vn 0.1472 -0.9882 -0.0419
vn -0.7633 -0.4140 0.4959
vn -0.0730 -0.9965 0.0399
vn 0.2639 -0.9242 -0.2760
vn 0.0703 -0.9975 0.0051
vn -0.0944 -0.8115 0.5767
vn 0.0920 -0.7895 -0.6068
vn 0.0727 -0.9768 0.2014
vn 0.0631 -0.9849 0.1612
vn -0.1644 -0.9436 -0.2873
vn -0.0315 -0.9976 -0.0614
vn -0.7564 0.4676 0.4573
vn 0.0246 0.3966 0.9177
vn -0.0176 0.4027 0.9151
vn -0.4981 0.3921 0.7734
vn 0.3755 0.4288 0.8217
vn -0.0760 0.3788 0.9224
vn -0.0508 0.3861 0.9210
vn 0.4296 0.5075 0.7469
vn 0.8481 0.5282 0.0430
vn -0.5615 -0.2087 0.8008
vn 0.7221 0.5785 0.3794
vn 0.6787 0.5436 0.4938
vn 0.7353 0.6043 0.3068
vn 0.6100 0.6573 -0.4425
vn 0.7940 0.6048 0.0614
vn 0.2180 0.6522 -0.7260
vn 0.8787 0.2513 0.4060
vn 0.3351 0.7466 -0.5748
vn 0.1330 0.7381 -0.6614
vn -0.0745 0.7037 -0.7065
vn -0.2365 -0.6974 0.6766
vn -0.0989 0.6976 -0.7097
vn 0.7730 0.3343 -0.5392
vn -0.9022 0.4049 -0.1488
vn -0.6245 0.5979 -0.5025
vn -0.5844 0.6059 -0.5398
vn -0.8105 0.2618 0.5239
vn -0.5942 0.5374 -0.5984
vn -0.8486 0.4546 0.2706
vn -0.8605 0.4653 0.2073
vn -0.8176 0.3785 -0.4339
vn -0.6825 0.4671 0.5622
vn 0.1514 -0.9867 0.0590
vn -0.0901 -0.9868 -0.1349
vn -0.5496 -0.7580 -0.3513
vn 0.4830 -0.8745 0.0430
vn -0.1256 -0.9890 -0.0783
vn 0.0866 -0.9911 -0.1014
vn -0.2873 -0.9578 0.0068
vn 0.1118 -0.9781 -0.1754
vn 0.1225 -0.9751 -0.1850
vn -0.5642 -0.3654 0.7403
vn 0.1649 -0.9408 -0.2960
vn 0.1741 -0.9277 -0.3304
vn 0.1236 -0.9921 -0.0228
vn 0.1277 -0.9810 0.1460
vn 0.0218 -0.9820 -0.1874
vn -0.0388 -0.9622 -0.2695
vn -0.4296 -0.7143 -0.5525
vn 0.1524 -0.9710 -0.1841
vn -0.1144 -0.9533 -0.2794
vn 0.1722 -0.9628 -0.2084
vn 0.3117 0.9391 0.1449
vn 0.1256 -0.9733 -0.1922
vn -0.8300 -0.4041 0.3845
vn -0.1492 -0.9822 -0.1140
vn 0.2897 -0.8465 -0.4467
vn 0.0272 -0.9892 -0.1441
vn -0.1932 -0.8468 0.4956
vn 0.1170 -0.5918 -0.7975
vn 0.0125 -0.9957 0.0914
vn 0.0044 -0.9991 0.0429
vn -0.2254 -0.8356 -0.5010
vn -0.0904 -0.9682 -0.2331
vn -0.5506 0.6158 0.5636
vn 0.3530 0.5620 0.7480
vn 0.3120 0.5729 0.7579
vn -0.1926 0.5980 0.7780
vn 0.6659 0.5083 0.5461
vn 0.2571 0.5636 0.7850
vn 0.2812 0.5656 0.7753
vn 0.7067 0.5480 0.4475
vn 0.8794 0.2841 -0.3819
vn -0.2532 0.1651 0.9532
vn 0.8899 0.4555 -0.0228
vn 0.8779 0.4653 0.1130
vn 0.8840 0.4553 -0.1065
vn 0.4781 0.2903 -0.8290
vn 0.8519 0.3685 -0.3721
vn -0.0350 0.2664 -0.9632
vn 0.9868 0.1597 0.0280
vn 0.1497 0.3834 -0.9114
vn -0.0988 0.3838 -0.9181
vn -0.3312 0.3736 -0.8664
vn -0.0037 -0.3205 0.9472
vn -0.3572 0.3711 -0.8571
vn 0.5547 -0.0335 -0.8314
vn -0.9059 0.4185 0.0652
vn -0.7968 0.4352 -0.4192
vn -0.7724 0.4244 -0.4726
vn -0.5676 0.4750 0.6725
vn -0.7923 0.3477 -0.5013
vn -0.7049 0.5682 0.4246
vn -0.7407 0.5618 0.3685
vn -0.9273 0.3017 -0.2217
vn -0.4427 0.6324 0.6356
vn 0.1782 -0.9399 0.2912
vn -0.1930 -0.9666 0.1685
vn -0.7500 -0.6604 0.0366
vn 0.5260 -0.8449 0.0974
vn -0.2115 -0.9448 0.2503
vn 0.0318 -0.9903 0.1350
vn -0.3628 -0.8404 0.4026
vn 0.0294 -0.9989 0.0353
vn 0.0379 -0.9991 0.0192
vn -0.2865 0.0328 0.9575
vn 0.0397 -0.9906 -0.1305
vn 0.0357 -0.9840 -0.1744
vn 0.1101 -0.9713 0.2107
vn 0.1881 -0.8976 0.3987
vn -0.0818 -0.9949 0.0596
vn -0.1864 -0.9824 -0.0153
vn -0.6828 -0.6951 -0.2248
vn 0.0731 -0.9973 0.0069
vn -0.2782 -0.9605 0.0014
vn 0.0854 -0.9959 -0.0307
vn 0.4519 0.8619 -0.2300
vn 0.0384 -0.9992 0.0092
vn -0.6756 -0.0555 0.7351
vn -0.2544 -0.9427 0.2157
vn 0.1145 -0.9288 -0.3525
vn -0.0571 -0.9923 0.1097
vn -0.0335 -0.5436 0.8386
vn -0.1873 -0.7256 -0.6621
vn 0.0282 -0.9192 0.3927
vn -0.0029 -0.9400 0.3413
vn -0.4702 -0.8536 -0.2244
vn -0.2328 -0.9713 0.0488
vn -0.9518 0.2998 -0.0639
vn -0.4491 0.3721 0.8123
vn -0.4893 0.3736 0.7880
vn -0.8691 0.3103 0.3853
vn -0.0579 0.4044 0.9127
vn -0.5468 0.3525 0.7594
vn -0.5227 0.3596 0.7730
vn 0.0416 0.4599 0.8870
vn 0.8132 0.3900 0.4319
vn -0.9051 -0.0580 0.4211
vn 0.5408 0.4765 0.6931
vn 0.4278 0.4630 0.7763
vn 0.6014 0.4879 0.6327
vn 0.8987 0.4051 -0.1683
vn 0.7857 0.4512 0.4232
vn 0.6707 0.3323 -0.6631
vn 0.5880 0.2542 0.7679
vn 0.7481 0.4461 -0.4913
vn 0.5871 0.4103 -0.6979
vn 0.3894 0.3578 -0.8487
vn -0.6810 -0.3785 0.6269
vn 0.3647 0.3503 -0.8627
vn 0.9781 0.1776 -0.1081
vn -0.7233 0.1582 -0.6721
vn -0.2859 0.2634 -0.9213
vn -0.2258 0.2669 -0.9369
vn -0.9865 0.1637 -0.0022
vn -0.2011 0.2077 -0.9573
vn -0.9238 0.2551 -0.2855
vn -0.9010 0.2527 -0.3527
vn -0.4902 0.1099 -0.8647
vn -0.9438 0.3213 0.0773
vn 0.0614 -0.9036 0.4240
vn -0.1317 -0.9897 -0.0567
vn -0.4526 -0.6488 -0.6117
vn 0.4923 -0.6588 0.5689
vn -0.2301 -0.9732 -0.0053
vn 0.1036 -0.9835 0.1482
vn -0.4931 -0.8696 -0.0269
vn 0.2057 -0.9769 0.0584
vn 0.2296 -0.9718 0.0530
vn -0.9047 -0.1575 0.3959
vn 0.3779 -0.9227 -0.0761
vn 0.4145 -0.9024 -0.1176
vn 0.0906 -0.9518 0.2930
vn -0.0434 -0.8584 0.5112
vn 0.0806 -0.9961 -0.0371
vn 0.0606 -0.9760 -0.2094
vn -0.1862 -0.6328 -0.7516
vn 0.2727 -0.9589 0.0791
vn -0.0401 -0.9579 -0.2842
vn 0.3208 -0.9453 0.0588
vn 0.4051 0.8800 0.2480
vn 0.2403 -0.9697 0.0448
vn -0.9686 -0.2442 -0.0458
vn -0.2323 -0.9696 -0.0774
vn 0.6206 -0.7628 -0.1815
vn 0.0510 -0.9982 0.0327
vn -0.6120 -0.5599 0.5586
vn 0.5557 -0.5139 -0.6535
vn -0.1687 -0.9201 0.3534
vn -0.1428 -0.9484 0.2830
vn -0.0044 -0.7862 -0.6180
vn -0.0461 -0.9787 -0.2002
s 0
f 1//1 2//1 3//1 4//1 5//1 6//1
f 1//2 7//2 8//2 2//2
f 2//3 8//3 9//3 3//3
f 3//4 9//4 10//4 4//4
f 4//5 10//5 11//5 5//5
f 5//6 11//6 12//6 6//6
f 6//7 12//7 7//7 1//7
f 7//8 13//8 14//8 8//8
f 8//9 14//9 15//9 9//9
f 9//10 15//10 16//10 10//10
f 10//11 16//11 17//11 11//11
f 11//12 17//12 18//12 12//12
f 12//13 18//13 13//13 7//13
f 18//14 17//14 16//14 15//14 14//14 13//14
f 20//15 21//15 19//15
f 21//16 22//16 19//16
f 22//17 23//17 19//17
f 23//18 24//18 19//18
f 24//19 25//19 19//19
f 25//20 26//20 19//20
f 26//21 27//21 19//21
f 27//22 28//22 19//22
f 28//23 29//23 19//23
f 29//24 30//24 19//24
f 30//25 31//25 19//25
f 31//26 32//26 19//26
f 32//27 33//27 19//27
f 33//28 34//28 19//28
f 34//29 35//29 19//29
f 35//30 36//30 19//30
f 36//31 37//31 19//31
f 37//32 38//32 19//32
f 38//33 39//33 19//33
f 39//34 40//34 19//34
f 40//35 41//35 19//35
f 41//36 42//36 19//36
f 42//37 43//37 19//37
f 43//38 44//38 19//38
f 44//39 45//39 19//39
f 45//40 46//40 19//40
f 46//41 47//41 19//41
f 47//42 48//42 19//42
f 48//43 49//43 19//43
f 49//44 50//44 19//44
f 50//45 51//45 19//45
f 51//46 20//46 19//46
f 20//47 52//47 21//47
f 21//48 52//48 22//48
f 22//49 52//49 23//49
f 23//50 52//50 24//50
f 24//51 52//51 25//51
f 25//52 52//52 26//52
f 26//53 52//53 27//53
f 27//54 52//54 28//54
f 28//55 52//55 29//55
f 29//56 52//56 30//56
f 30//57 52//57 31//57
f 31//58 52//58 32//58
f 32//59 52//59 33//59
f 33//60 52//60 34//60
f 34//61 52//61 35//61
f 35//62 52//62 36//62
f 36//63 52//63 37//63
f 37//64 52//64 38//64
f 38//65 52//65 39//65
f 39//66 52//66 40//66
f 40//67 52//67 41//67
f 41//68 52//68 42//68
f 42//69 52//69 43//69
f 43//70 52//70 44//70
f 44//71 52//71 45//71
f 45//72 52//72 46//72
f 46//73 52//73 47//73
f 47//74 52//74 48//74
f 48//75 52//75 49//75
f 49//76 52//76 50//76
f 50//77 52//77 51//77
f 51//78 52//78 20//78
f 54//79 55//79 53//79
f 55//80 56//80 53//80
f 56//81 57//81 53//81
f 57//82 58//82 53//82
f 58//83 59//83 53//83
f 59//84 60//84 53//84
f 60//85 61//85 53//85
f 61//86 62//86 53//86
f 62//87 63//87 53//87
f 63//88 64//88 53//88
f 64//89 65//89 53//89
f 65//90 66//90 53//90
f 66//91 67//91 53//91
f 67//92 68//92 53//92
f 68//93 69//93 53//93
f 69//94 70//94 53//94
f 70//95 71//95 53//95
f 71//96 72//96 53//96
f 72//97 73//97 53//97
f 73//98 74//98 53//98
f 74//99 75//99 53//99
f 75//100 76//100 53//100
f 76//101 77//101 53//101
f 77//102 78//102 53//102
f 78//103 79//103 53//103
f 79//104 80//104 53//104
f 80//105 81//105 53//105
f 81//106 82//106 53//106
f 82//107 83//107 53//107
f 83//108 84//108 53//108
f 84//109 85//109 53//109
f 85//110 54//110 53//110
f 54//111 86//111 55//111
f 55//112 86//112 56//112
f 56//113 86//113 57//113
f 57//114 86//114 58//114
f 58//115 86//115 59//115
f 59//116 86//116 60//116
f 60//117 86//117 61//117
f 61//118 86//118 62//118
f 62//119 86//119 63//119
f 63//120 86//120 64//120
f 64//121 86//121 65//121
f 65//122 86//122 66//122
f 66//123 86//123 67//123
f 67//124 86//124 68//124
f 68//125 86//125 69//125
f 69//126 86//126 70//126
f 70//127 86//127 71//127
f 71//128 86//128 72//128
f 72//129 86//129 73//129
f 73//130 86//130 74//130
f 74//131 86//131 75//131
f 75//132 86//132 76//132
f 76//133 86//133 77//133
f 77//134 86//134 78//134
f 78//135 86//135 79//135
f 79//136 86//136 80//136
f 80//137 86//137 81//137
f 81//138 86//138 82//138
f 82//139 86//139 83//139
f 83//140 86//140 84//140
f 84//141 86//141 85//141
f 85//142 86//142 54//142
f 88//143 89//143 87//143
f 89//144 90//144 87//144
f 90//145 91//145 87//145
f 91//146 92//146 87//146
f 92//147 93//147 87//147
f 93//148 94//148 87//148
f 94//149 95//149 87//149
f 95//150 96//150 87//150
f 96//151 97//151 87//151
f 97//152 98//152 87//152
f 98//153 99//153 87//153
f 99//154 100//154 87//154
f 100//155 101//155 87//155
f 101//156 102//156 87//156
f 102//157 103//157 87//157
f 103//158 104//158 87//158
f 104//159 105//159 87//159
f 105//160 106//160 87//160
f 106//161 107//161 87//161
f 107//162 108//162 87//162
f 108//163 109//163 87//163
f 109//164 110//164 87//164
f 110//165 111//165 87//165
f 111//166 112//166 87//166
f 112//167 113//167 87//167
f 113//168 114//168 87//168
f 114//169 115//169 87//169
f 115//170 116//170 87//170
f 116//171 117//171 87//171
f 117//172 118//172 87//172
f 118//173 119//173 87//173
f 119//174 88//174 87//174
f 88//175 120//175 89//175
f 89//176 120//176 90//176
f 90//177 120//177 91//177
f 91//178 120//178 92//178
f 92//179 120//179 93//179
f 93//180 120//180 94//180
f 94//181 120//181 95//181
f 95//182 120//182 96//182
f 96//183 120//183 97//183
f 97//184 120//184 98//184
f 98//185 120//185 99//185
f 99//186 120//186 100//186
f 100//187 120//187 101//187
f 101//188 120//188 102//188
f 102//189 120//189 103//189
f 103//190 120//190 104//190
f 104//191 120//191 105//191
f 105//192 120//192 106//192
f 106//193 120//193 107//193
f 107//194 120//194 108//194
f 108//195 120//195 109//195
f 109//196 120//196 110//196
f 110//197 120//197 111//197
f 111//198 120//198 112//198
f 112//199 120//199 113//199
f 113//200 120//200 114//200
f 114//201 120//201 115//201
f 115//202 120//202 116//202
f 116//203 120//203 117//203
f 117//204 120//204 118//204
f 118//205 120//205 119//205
f 119//206 120//206 88//206
f 122//207 123//207 121//207
f 123//208 124//208 121//208
f 124//209 125//209 121//209
f 125//210 126//210 121//210
f 126//211 127//211 121//211
f 127//212 128//212 121//212
f 128//213 129//213 121//213
f 129//214 130//214 121//214
f 130//215 131//215 121//215
f 131//216 132//216 121//216
f 132//217 133//217 121//217
f 133//218 134//218 121//218
f 134//219 135//219 121//219
f 135//220 136//220 121//220
f 136//221 137//221 121//221
f 137//222 138//222 121//222
f 138//223 139//223 121//223
f 139//224 140//224 121//224
f 140//225 141//225 121//225
f 141//226 142//226 121//226
f 142//227 143//227 121//227
f 143//228 144//228 121//228
f 144//229 145//229 121//229
f 145//230 146//230 121//230
f 146//231 147//231 121//231
f 147//232 148//232 121//232
f 148//233 149//233 121//233
f 149//234 150//234 121//234
f 150//235 151//235 121//235
f 151//236 152//236 121//236
f 152//237 153//237 121//237
f 153//238 122//238 121//238
f 122//239 154//239 123//239
f 123//240 154//240 124//240
f 124//241 154//241 125//241
f 125//242 154//242 126//242
f 126//243 154//243 127//243
f 127//244 154//244 128//244
f 128//245 154//245 129//245
f 129//246 154//246 130//246
f 130//247 154//247 131//247
f 131//248 154//248 132//248
f 132//249 154//249 133//249
f 133//250 154//250 134//250
f 134//251 154//251 135//251
f 135//252 154//252 136//252
f 136//253 154//253 137//253
f 137//254 154//254 138//254
f 138//255 154//255 139//255
f 139//256 154//256 140//256
f 140//257 154//257 141//257
f 141//258 154//258 142//258
f 142//259 154//259 143//259
f 143//260 154//260 144//260
f 144//261 154//261 145//261
f 145//262 154//262 146//262
f 146//263 154//263 147//263
f 147//264 154//264 148//264
f 148//265 154//265 149//265
f 149//266 154//266 150//266
f 150//267 154//267 151//267
f 151//268 154//268 152//268
f 152//269 154//269 153//269
f 153//270 154//270 122//270
f 156//271 157//271 155//271
f 157//272 158//272 155//272
f 158//273 159//273 155//273
f 159//274 160//274 155//274
f 160//275 161//275 155//275
f 161//276 162//276 155//276
f 162//277 163//277 155//277
f 163//278 164//278 155//278
f 164//279 165//279 155//279
f 165//280 166//280 155//280
f 166//281 167//281 155//281
f 167//282 168//282 155//282
f 168//283 169//283 155//283
f 169//284 170//284 155//284
f 170//285 171//285 155//285
f 171//286 172//286 155//286
f 172//287 173//287 155//287
f 173//288 174//288 155//288
f 174//289 175//289 155//289
f 175//290 176//290 155//290
f 176//291 177//291 155//291
f 177//292 178//292 155//292
f 178//293 179//293 155//293
f 179//294 180//294 155//294
f 180//295 181//295 155//295
f 181//296 182//296 155//296
f 182//297 183//297 155//297
f 183//298 184//298 155//298
f 184//299 185//299 155//299
f 185//300 186//300 155//300
f 186//301 187//301 155//301
f 187//302 156//302 155//302
f 156//303 188//303 157//303
f 157//304 188//304 158//304
f 158//305 188//305 159//305
f 159//306 188//306 160//306
f 160//307 188//307 161//307
f 161//308 188//308 162//308
f 162//309 188//309 163//309
f 163//310 188//310 164//310
f 164//311 188//311 165//311
f 165//312 188//312 166//312
f 166//313 188//313 167//313
f 167//314 188//314 168//314
f 168//315 188//315 169//315
f 169//316 188//316 170//316
f 170//317 188//317 171//317
f 171//318 188//318 172//318
f 172//319 188//319 173//319
f 173//320 188//320 174//320
f 174//321 188//321 175//321
f 175//322 188//322 176//322
f 176//323 188//323 177//323
f 177//324 188//324 178//324
f 178//325 188//325 179//325
f 179//326 188//326 180//326
f 180//327 188//327 181//327
f 181//328 188//328 182//328
f 182//329 188//329 183//329
f 183//330 188//330 184//330
f 184//331 188//331 185//331
f 185//332 188//332 186//332
f 186//333 188//333 187//333
f 187//334 188//334 156//334
