# Blender 4.1.1
# www.blender.org
o Fir
v -0.018888 0.144342 0.012033
v 0.000256 0.144342 0.021242
v 0.019144 0.144342 0.009209
v 0.018888 0.144342 -0.012033
v -0.000256 0.144342 -0.021242
v -0.019144 0.144342 -0.009209
v -0.018888 0.072171 0.012033
v 0.000256 0.072171 0.021242
v 0.019144 0.072171 0.009209
v 0.018888 0.072171 -0.012033
v -0.000256 0.072171 -0.021242
v -0.019144 0.072171 -0.009209
v -0.034351 0.000000 0.021884
v 0.000465 0.000000 0.038633
v 0.034816 0.000000 0.016748
v 0.034351 0.000000 -0.021884
v -0.000465 0.000000 -0.038633
v -0.034816 0.000000 -0.016748
v -0.016548 0.208445 -0.001890
v -0.085573 0.057493 0.043568
v -0.079182 0.063492 0.062379
v -0.057547 0.063366 0.068662
v -0.051186 0.056314 0.074943
v -0.037014 0.069121 0.083070
v -0.009578 0.067974 0.079966
v 0.003577 0.070700 0.083878
v 0.016603 0.067476 0.090679
v 0.043507 0.074500 0.079422
v 0.048875 0.076833 0.058142
v 0.057127 0.075314 0.067841
v 0.072438 0.084794 0.041074
v 0.077640 0.088081 0.034025
v 0.089222 0.088473 0.018647
v 0.085674 0.080504 -0.003126
v 0.092419 0.083704 -0.030381
v 0.071383 0.083583 -0.041355
v 0.079012 0.091460 -0.053879
v 0.062141 0.087104 -0.072467
v 0.053128 0.087576 -0.075523
v 0.023220 0.078336 -0.084341
v 0.025494 0.077675 -0.083601
v -0.009819 0.068678 -0.091545
v -0.012921 0.075383 -0.094961
v -0.024336 0.074791 -0.074300
v -0.041140 0.063671 -0.069209
v -0.072990 0.058617 -0.052862
v -0.066516 0.067792 -0.037127
v -0.082912 0.054909 -0.033832
v -0.081614 0.061304 -0.005976
v -0.082718 0.064680 0.014529
v -0.090974 0.061067 0.021432
v 0.006654 0.068303 0.001894
v -0.004082 0.274670 -0.005803
v -0.085956 0.139367 0.007013
v -0.087538 0.145527 0.024151
v -0.073834 0.142312 0.036667
v -0.072084 0.134713 0.043902
v -0.063363 0.145642 0.055227
v -0.042032 0.139850 0.062307
v -0.033470 0.140677 0.069977
v -0.026618 0.135824 0.079925
v -0.001933 0.137668 0.080307
v 0.010036 0.137691 0.065258
v 0.012456 0.135494 0.075839
v 0.034460 0.140617 0.059857
v 0.041195 0.142560 0.056050
v 0.055424 0.140045 0.047860
v 0.060007 0.131276 0.029368
v 0.075260 0.131536 0.010046
v 0.063691 0.134097 -0.005986
v 0.074654 0.139827 -0.013319
v 0.068553 0.137010 -0.033932
v 0.063043 0.138735 -0.039497
v 0.043264 0.133846 -0.056860
v 0.044615 0.132872 -0.055478
v 0.020539 0.129157 -0.074028
v 0.020121 0.136074 -0.077851
v 0.004066 0.138716 -0.065405
v -0.011275 0.130765 -0.067153
v -0.041296 0.132014 -0.065220
v -0.041393 0.141102 -0.050512
v -0.055941 0.131219 -0.053536
v -0.064561 0.139199 -0.030986
v -0.072555 0.144088 -0.015097
v -0.081527 0.142308 -0.012467
v -0.001455 0.132341 0.005931
v 0.006867 0.349339 -0.007147
v -0.048522 0.224233 0.051354
v -0.037888 0.228323 0.060827
v -0.022470 0.221866 0.058989
v -0.017807 0.213227 0.061754
v -0.004321 0.221497 0.062005
v 0.011763 0.212248 0.052897
v 0.021641 0.211032 0.051613
v 0.031289 0.204129 0.052626
v 0.045999 0.202860 0.037960
v 0.043420 0.203325 0.023174
v 0.051227 0.199510 0.027112
v 0.054462 0.203893 0.005721
v 0.056181 0.205466 -0.000286
v 0.058928 0.202275 -0.012910
v 0.048859 0.195412 -0.024814
v 0.045510 0.196252 -0.043734
v 0.029027 0.202249 -0.044939
v 0.031418 0.207490 -0.055345
v 0.014558 0.208088 -0.062032
v 0.008075 0.211180 -0.061571
v -0.014878 0.211004 -0.058361
v -0.013344 0.209700 -0.058453
v -0.039385 0.211364 -0.053288
v -0.041209 0.218731 -0.055115
v -0.042310 0.221730 -0.039248
v -0.053220 0.215995 -0.030751
v -0.069180 0.220680 -0.011778
v -0.058871 0.227788 -0.004485
v -0.070360 0.220210 0.002931
v -0.060157 0.226275 0.019324
v -0.054165 0.230060 0.032044
v -0.057898 0.229074 0.038796
v -0.001271 0.207023 0.000226
v 0.003078 0.429612 -0.001116
v -0.045939 0.290897 0.015645
v -0.044121 0.296178 0.026615
v -0.033273 0.292869 0.032070
v -0.030891 0.284999 0.036023
v -0.023519 0.295693 0.041941
v -0.008705 0.290345 0.042780
v -0.001973 0.291117 0.046179
v 0.004092 0.286046 0.051081
v 0.019865 0.288764 0.047498
v 0.024967 0.289934 0.036365
v 0.028296 0.287325 0.042430
v 0.039596 0.293998 0.029298
v 0.043234 0.296363 0.025957
v 0.050943 0.294756 0.018614
v 0.050827 0.287041 0.006264
v 0.057304 0.288771 -0.008005
v 0.047231 0.291671 -0.015977
v 0.052944 0.298140 -0.022038
v 0.045625 0.296084 -0.033843
v 0.041171 0.297872 -0.036351
v 0.025701 0.293096 -0.044071
v 0.026800 0.292107 -0.043462
v 0.008385 0.288405 -0.051204
v 0.007429 0.295481 -0.053287
v -0.000731 0.296946 -0.043037
v -0.010737 0.288533 -0.041938
v -0.029542 0.288601 -0.036004
v -0.027206 0.296975 -0.026676
v -0.036907 0.286721 -0.026543
v -0.038677 0.293308 -0.011088
v -0.041142 0.297148 0.000083
v -0.046403 0.294920 0.003055
v 0.007749 0.286991 0.001520
v -0.006645 0.509927 0.003168
v -0.013932 0.368985 0.033618
v -0.007612 0.375229 0.038130
v 0.001450 0.373295 0.035371
v 0.005438 0.365975 0.036006
v 0.011740 0.377701 0.035389
v 0.020724 0.373733 0.028394
v 0.026133 0.375345 0.026728
v 0.032420 0.371200 0.026042
v 0.038986 0.375003 0.016534
v 0.035874 0.375765 0.008610
v 0.041075 0.373920 0.009877
v 0.039887 0.380541 -0.002008
v 0.039951 0.382956 -0.005399
v 0.040467 0.381471 -0.012808
v 0.034550 0.372850 -0.018868
v 0.030508 0.374050 -0.028990
v 0.020588 0.375453 -0.027845
v 0.020047 0.381923 -0.033529
v 0.010022 0.378345 -0.035681
v 0.006128 0.379546 -0.034673
v -0.006022 0.372866 -0.030844
v -0.005023 0.372023 -0.031105
v -0.018883 0.366153 -0.025815
v -0.021050 0.372948 -0.026256
v -0.020282 0.374475 -0.017211
v -0.024539 0.365321 -0.011846
v -0.031758 0.364205 0.000345
v -0.026255 0.373445 0.003846
v -0.030706 0.362413 0.008564
v -0.024112 0.369985 0.017053
v -0.019924 0.374437 0.023761
v -0.021082 0.371990 0.027778
v 0.008441 0.368695 0.000132
vn -0.0000 1.0000 -0.0000
vn -0.4335 -0.0000 0.9012
vn 0.5373 -0.0000 0.8434
vn 0.9999 -0.0000 -0.0120
vn 0.4335 -0.0000 -0.9012
vn -0.5373 -0.0000 -0.8434
vn -0.9999 -0.0000 0.0120
vn -0.4237 0.2110 0.8809
vn 0.5264 0.2006 0.8262
vn 0.9774 0.2110 -0.0118
vn 0.4237 0.2110 -0.8809
vn -0.5264 0.2006 -0.8262
vn -0.9774 0.2110 0.0118
vn -0.0000 -1.0000 -0.0000
vn -0.8798 0.4492 0.1557
vn -0.2423 0.4788 0.8438
vn -0.2829 0.4829 0.8287
vn -0.7114 0.4391 0.5487
vn 0.1179 0.5043 0.8554
vn -0.3394 0.4610 0.8200
vn -0.3152 0.4680 0.8256
vn 0.1863 0.5695 0.8006
vn 0.8112 0.5227 0.2620
vn -0.7654 -0.0899 0.6372
vn 0.5787 0.6061 0.5457
vn 0.5001 0.5826 0.6407
vn 0.6158 0.6250 0.4797
vn 0.7344 0.5900 -0.3356
vn 0.7561 0.6016 0.2578
vn 0.3935 0.5173 -0.7600
vn 0.7157 0.3055 0.6281
vn 0.4789 0.6523 -0.5875
vn 0.2823 0.6125 -0.7383
vn 0.0753 0.5501 -0.8317
vn -0.3996 -0.5747 0.7142
vn 0.0510 0.5410 -0.8395
vn 0.9100 0.2540 -0.3277
vn -0.8397 0.2957 -0.4555
vn -0.5111 0.4323 -0.7429
vn -0.4646 0.4370 -0.7701
vn -0.9348 0.2761 0.2236
vn -0.4500 0.3641 -0.8154
vn -0.9129 0.4051 -0.0505
vn -0.9073 0.4044 -0.1154
vn -0.6820 0.2348 -0.6927
vn -0.8384 0.4677 0.2801
vn 0.2150 -0.9492 0.2297
vn 0.0122 -0.9980 -0.0621
vn -0.4169 -0.7846 -0.4589
vn 0.5400 -0.7870 0.2984
vn -0.0432 -0.9990 -0.0132
vn 0.1925 -0.9806 0.0359
vn -0.2495 -0.9682 0.0189
vn 0.2384 -0.9705 -0.0358
vn 0.2519 -0.9668 -0.0425
vn -0.7569 -0.2461 0.6054
vn 0.3220 -0.9353 -0.1470
vn 0.3389 -0.9234 -0.1804
vn 0.2096 -0.9687 0.1331
vn 0.1643 -0.9346 0.3153
vn 0.1472 -0.9859 -0.0793
vn 0.1042 -0.9764 -0.1890
vn -0.2337 -0.7525 -0.6157
vn 0.2824 -0.9588 -0.0316
vn 0.0259 -0.9736 -0.2268
vn 0.3085 -0.9498 -0.0512
vn 0.2287 0.9610 0.1557
vn 0.2570 -0.9652 -0.0492
vn -0.9245 -0.3454 0.1616
vn -0.0587 -0.9964 -0.0610
vn 0.4751 -0.8392 -0.2647
vn 0.1413 -0.9895 -0.0305
vn -0.2983 -0.7660 0.5694
vn 0.3656 -0.6385 -0.6772
vn 0.0575 -0.9736 0.2208
vn 0.0633 -0.9842 0.1654
vn -0.0349 -0.8677 -0.4959
vn 0.0393 -0.9849 -0.1686
vn -0.8385 0.4836 -0.2512
vn -0.5189 0.4967 0.6957
vn -0.5529 0.5042 0.6633
vn -0.8543 0.4831 0.1916
vn -0.1562 0.4801 0.8632
vn -0.6082 0.4876 0.6263
vn -0.5857 0.4925 0.6437
vn -0.0527 0.5308 0.8458
vn 0.7255 0.3744 0.5775
vn -0.9739 0.0170 0.2263
vn 0.4328 0.4938 0.7542
vn 0.3179 0.4892 0.8122
vn 0.4964 0.5018 0.7084
vn 0.9099 0.4138 0.0292
vn 0.6984 0.4489 0.5574
vn 0.7788 0.3761 -0.5019
vn 0.4599 0.2206 0.8601
vn 0.8139 0.4924 -0.3082
vn 0.6941 0.4765 -0.5396
vn 0.5282 0.4407 -0.7258
vn -0.7786 -0.4281 0.4588
vn 0.5066 0.4348 -0.7445
vn 0.9875 0.1178 0.1052
vn -0.5510 0.3071 -0.7759
vn -0.1004 0.3944 -0.9134
vn -0.0428 0.3936 -0.9183
vn -0.9217 0.3272 -0.2083
vn -0.0228 0.3231 -0.9461
vn -0.7806 0.4324 -0.4514
vn -0.7475 0.4281 -0.5078
vn -0.3156 0.2310 -0.9204
vn -0.8545 0.5059 -0.1179
vn -0.0740 -0.9406 0.3313
vn -0.1657 -0.9836 -0.0712
vn -0.3627 -0.6850 -0.6318
vn 0.2705 -0.7884 0.5525
vn -0.2467 -0.9679 -0.0486
vn -0.0137 -0.9924 0.1223
vn -0.4583 -0.8814 -0.1144
vn 0.0732 -0.9947 0.0717
vn 0.0921 -0.9932 0.0717
vn -0.9733 -0.1144 0.1988
vn 0.2260 -0.9741 -0.0010
vn 0.2629 -0.9645 -0.0271
vn -0.0387 -0.9721 0.2312
vn -0.1641 -0.9064 0.3892
vn -0.0094 -0.9997 -0.0208
vn -0.0020 -0.9877 -0.1563
vn -0.1111 -0.6956 -0.7098
vn 0.1221 -0.9876 0.0988
vn -0.0682 -0.9700 -0.2333
vn 0.1622 -0.9825 0.0919
vn 0.3593 0.8911 0.2773
vn 0.1012 -0.9926 0.0674
vn -0.9473 -0.1969 -0.2527
vn -0.2401 -0.9651 -0.1048
vn 0.4636 -0.8850 -0.0432
vn -0.0398 -0.9988 0.0269
vn -0.6785 -0.6269 0.3828
vn 0.5560 -0.6664 -0.4968
vn -0.2425 -0.9400 0.2400
vn -0.2138 -0.9587 0.1874
vn 0.0148 -0.8508 -0.5253
vn -0.0838 -0.9823 -0.1674
vn -0.6669 0.5369 0.5168
vn 0.2697 0.3938 0.8787
vn 0.2285 0.4064 0.8847
vn -0.3058 0.4735 0.8260
vn 0.6033 0.3379 0.7224
vn 0.1665 0.4006 0.9010
vn 0.1929 0.4011 0.8955
vn 0.6703 0.3761 0.6398
vn 0.9647 0.2079 -0.1618
vn -0.4157 0.0840 0.9056
vn 0.9246 0.3207 0.2056
vn 0.8855 0.3196 0.3372
vn 0.9372 0.3270 0.1212
vn 0.6578 0.2606 -0.7067
vn 0.9483 0.2766 -0.1556
vn 0.1672 0.2689 -0.9485
vn 0.9623 0.0781 0.2604
vn 0.3555 0.3553 -0.8645
vn 0.1084 0.3652 -0.9246
vn -0.1318 0.3623 -0.9227
vn -0.2084 -0.3106 0.9274
vn -0.1592 0.3607 -0.9190
vn 0.7069 -0.0004 -0.7073
vn -0.9124 0.3859 -0.1363
vn -0.6847 0.4146 -0.5993
vn -0.6475 0.4059 -0.6449
vn -0.6956 0.3894 0.6037
vn -0.6583 0.3413 -0.6709
vn -0.8040 0.5053 0.3135
vn -0.8296 0.5037 0.2410
vn -0.8536 0.2959 -0.4287
vn -0.5603 0.5412 0.6270
vn 0.0435 -0.9340 0.3546
vn -0.3745 -0.9220 0.0978
vn -0.8420 -0.5104 -0.1748
vn 0.5069 -0.8334 0.2203
vn -0.4067 -0.8937 0.1893
vn -0.1053 -0.9867 0.1239
vn -0.5740 -0.7559 0.3149
vn -0.0870 -0.9962 -0.0010
vn -0.0729 -0.9972 -0.0187
vn -0.4580 -0.0200 0.8887
vn -0.0347 -0.9780 -0.2057
vn -0.0285 -0.9650 -0.2608
vn -0.0242 -0.9705 0.2400
vn 0.0348 -0.8782 0.4770
vn -0.2271 -0.9739 -0.0030
vn -0.3313 -0.9354 -0.1234
vn -0.7299 -0.5284 -0.4338
vn -0.0260 -0.9994 -0.0237
vn -0.4343 -0.8919 -0.1257
vn -0.0018 -0.9977 -0.0674
vn 0.6413 0.7611 -0.0972
vn -0.0699 -0.9971 -0.0311
vn -0.8154 -0.0590 0.5759
vn -0.4476 -0.8839 0.1360
vn 0.1152 -0.8857 -0.4498
vn -0.2079 -0.9759 0.0661
vn -0.2469 -0.4960 0.8324
vn -0.1413 -0.5748 -0.8060
vn -0.1536 -0.8918 0.4255
vn -0.1829 -0.9154 0.3586
vn -0.5615 -0.7159 -0.4151
vn -0.3961 -0.9164 -0.0576
vn -0.9430 0.3328 -0.0038
vn -0.3508 0.3079 0.8844
vn -0.3944 0.3144 0.8635
vn -0.8281 0.3138 0.4645
vn 0.0529 0.2961 0.9537
vn -0.4570 0.3023 0.8365
vn -0.4307 0.3057 0.8492
vn 0.1526 0.3386 0.9285
vn 0.8699 0.2504 0.4250
vn -0.8782 -0.0093 0.4782
vn 0.6276 0.3274 0.7064
vn 0.5208 0.3179 0.7922
vn 0.6852 0.3376 0.6454
vn 0.9326 0.3021 -0.1975
vn 0.8520 0.3073 0.4240
vn 0.6440 0.2827 -0.7109
vn 0.6503 0.1275 0.7489
vn 0.7582 0.3727 -0.5350
vn 0.5634 0.3616 -0.7428
vn 0.3368 0.3329 -0.8808
vn -0.6646 -0.3223 0.6742
vn 0.3093 0.3282 -0.8925
vn 0.9849 0.0896 -0.1481
vn -0.7478 0.2195 -0.6266
vn -0.3435 0.2919 -0.8926
vn -0.2869 0.2921 -0.9124
vn -0.9757 0.2125 0.0536
vn -0.2673 0.2408 -0.9330
vn -0.9247 0.3004 -0.2339
vn -0.9049 0.2993 -0.3026
vn -0.5389 0.1724 -0.8245
vn -0.9274 0.3452 0.1445
vn 0.0467 -0.9030 0.4270
vn -0.2314 -0.9648 -0.1251
vn -0.5620 -0.5007 -0.6583
vn 0.5195 -0.6591 0.5438
vn -0.3361 -0.9400 -0.0576
vn 0.0609 -0.9926 0.1050
vn -0.6112 -0.7892 -0.0602
vn 0.1684 -0.9857 -0.0064
vn 0.1952 -0.9807 -0.0136
vn -0.8893 -0.0949 0.4474
vn 0.3493 -0.9219 -0.1679
vn 0.3854 -0.8972 -0.2155
vn 0.0631 -0.9590 0.2761
vn -0.0573 -0.8465 0.5293
vn 0.0137 -0.9934 -0.1142
vn -0.0260 -0.9495 -0.3126
vn -0.3019 -0.4961 -0.8140
vn 0.2471 -0.9689 0.0156
vn -0.1456 -0.9093 -0.3898
vn 0.2994 -0.9541 -0.0099
vn 0.5329 0.7853 0.3150
vn 0.2066 -0.9781 -0.0237
vn -0.9902 -0.1385 -0.0157
vn -0.3447 -0.9279 -0.1417
vn 0.5993 -0.7494 -0.2815
vn -0.0130 -0.9995 -0.0299
vn -0.6267 -0.4953 0.6016
vn 0.4748 -0.4588 -0.7511
vn -0.2213 -0.9060 0.3608
vn -0.2032 -0.9389 0.2779
vn -0.1201 -0.6806 -0.7227
vn -0.1466 -0.9438 -0.2962
vn -0.6866 0.1873 0.7025
vn 0.3286 0.2351 0.9147
vn 0.2851 0.2359 0.9290
vn -0.2667 0.1930 0.9443
vn 0.6624 0.2630 0.7015
vn 0.2262 0.2212 0.9486
vn 0.2518 0.2261 0.9410
vn 0.7219 0.3056 0.6209
vn 0.9040 0.2732 -0.3288
vn -0.2498 -0.0399 0.9675
vn 0.9382 0.3337 0.0922
vn 0.9154 0.3194 0.2448
vn 0.9387 0.3447 -0.0038
vn 0.4630 0.2746 -0.8427
vn 0.8925 0.3194 -0.3185
vn -0.0831 0.2079 -0.9746
vn 0.9791 0.1741 0.1050
vn 0.0994 0.2933 -0.9508
vn -0.1662 0.2598 -0.9513
vn -0.4008 0.2189 -0.8896
vn 0.0503 -0.2403 0.9694
vn -0.4260 0.2135 -0.8792
vn 0.5466 0.1205 -0.8287
vn -0.9936 0.0896 0.0693
vn -0.8855 0.1551 -0.4380
vn -0.8560 0.1571 -0.4925
vn -0.6444 0.0964 0.7586
vn -0.8459 0.1190 -0.5198
vn -0.8427 0.1563 0.5152
vn -0.8809 0.1543 0.4474
vn -0.9681 0.0578 -0.2438
vn -0.5672 0.2018 0.7984
vn 0.5180 -0.7792 0.3528
vn -0.1810 -0.9792 0.0919
vn -0.8688 -0.4829 -0.1094
vn 0.8810 -0.4715 0.0380
vn -0.2131 -0.9417 0.2605
vn 0.2968 -0.9540 0.0411
vn -0.4442 -0.7540 0.4840
vn 0.2891 -0.9409 -0.1766
vn 0.3041 -0.9295 -0.2089
vn -0.2695 -0.1024 0.9575
vn 0.2783 -0.8270 -0.4885
vn 0.2594 -0.7891 -0.5568
vn 0.4333 -0.8774 0.2061
vn 0.4893 -0.7008 0.5191
vn 0.0558 -0.9887 -0.1395
vn -0.1674 -0.9393 -0.2996
vn -0.7713 -0.4552 -0.4448
vn 0.3701 -0.9010 -0.2264
vn -0.3452 -0.9023 -0.2583
vn 0.3862 -0.8730 -0.2978
vn 0.6067 0.7745 -0.1790
vn 0.3040 -0.9246 -0.2295
vn -0.6707 -0.1670 0.7227
vn -0.2992 -0.9364 0.1835
vn 0.3288 -0.5867 -0.7400
vn 0.1108 -0.9935 -0.0253
vn 0.0472 -0.3784 0.9245
vn -0.1459 -0.3387 -0.9295
vn 0.2447 -0.8102 0.5326
vn 0.2004 -0.8693 0.4518
vn -0.5744 -0.6150 -0.5402
vn -0.2627 -0.9503 -0.1673
s 0
f 1//1 2//1 3//1 4//1 5//1 6//1
f 1//2 7//2 8//2 2//2
f 2//3 8//3 9//3 3//3
f 3//4 9//4 10//4 4//4
f 4//5 10//5 11//5 5//5
f 5//6 11//6 12//6 6//6
f 6//7 12//7 7//7 1//7
f 7//8 13//8 14//8 8//8
f 8//9 14//9 15//9 9//9
f 9//10 15//10 16//10 10//10
f 10//11 16//11 17//11 11//11
f 11//12 17//12 18//12 12//12
f 12//13 18//13 13//13 7//13
f 18//14 17//14 16//14 15//14 14//14 13//14
f 20//15 21//15 19//15
f 21//16 22//16 19//16
f 22//17 23//17 19//17
f 23//18 24//18 19//18
f 24//19 25//19 19//19
f 25//20 26//20 19//20
f 26//21 27//21 19//21
f 27//22 28//22 19//22
f 28//23 29//23 19//23
f 29//24 30//24 19//24
f 30//25 31//25 19//25
f 31//26 32//26 19//26
f 32//27 33//27 19//27
f 33//28 34//28 19//28
f 34//29 35//29 19//29
f 35//30 36//30 19//30
f 36//31 37//31 19//31
f 37//32 38//32 19//32
f 38//33 39//33 19//33
f 39//34 40//34 19//34
f 40//35 41//35 19//35
f 41//36 42//36 19//36
f 42//37 43//37 19//37
f 43//38 44//38 19//38
f 44//39 45//39 19//39
f 45//40 46//40 19//40
f 46//41 47//41 19//41
f 47//42 48//42 19//42
f 48//43 49//43 19//43
f 49//44 50//44 19//44
f 50//45 51//45 19//45
f 51//46 20//46 19//46
f 20//47 52//47 21//47
f 21//48 52//48 22//48
f 22//49 52//49 23//49
f 23//50 52//50 24//50
f 24//51 52//51 25//51
f 25//52 52//52 26//52
f 26//53 52//53 27//53
f 27//54 52//54 28//54
f 28//55 52//55 29//55
f 29//56 52//56 30//56
f 30//57 52//57 31//57
f 31//58 52//58 32//58
f 32//59 52//59 33//59
f 33//60 52//60 34//60
f 34//61 52//61 35//61
f 35//62 52//62 36//62
f 36//63 52//63 37//63
f 37//64 52//64 38//64
f 38//65 52//65 39//65
f 39//66 52//66 40//66
f 40//67 52//67 41//67
f 41//68 52//68 42//68
f 42//69 52//69 43//69
f 43//70 52//70 44//70
f 44//71 52//71 45//71
f 45//72 52//72 46//72
f 46//73 52//73 47//73
f 47//74 52//74 48//74
f 48//75 52//75 49//75
f 49//76 52//76 50//76
f 50//77 52//77 51//77
f 51//78 52//78 20//78
f 54//79 55//79 53//79
f 55//80 56//80 53//80
f 56//81 57//81 53//81
f 57//82 58//82 53//82
f 58//83 59//83 53//83
f 59//84 60//84 53//84
f 60//85 61//85 53//85
f 61//86 62//86 53//86
f 62//87 63//87 53//87
f 63//88 64//88 53//88
f 64//89 65//89 53//89
f 65//90 66//90 53//90
f 66//91 67//91 53//91
f 67//92 68//92 53//92
f 68//93 69//93 53//93
f 69//94 70//94 53//94
f 70//95 71//95 53//95
f 71//96 72//96 53//96
f 72//97 73//97 53//97
f 73//98 74//98 53//98
f 74//99 75//99 53//99
f 75//100 76//100 53//100
f 76//101 77//101 53//101
f 77//102 78//102 53//102
f 78//103 79//103 53//103
f 79//104 80//104 53//104
f 80//105 81//105 53//105
f 81//106 82//106 53//106
f 82//107 83//107 53//107
f 83//108 84//108 53//108
f 84//109 85//109 53//109
f 85//110 54//110 53//110
f 54//111 86//111 55//111
f 55//112 86//112 56//112
f 56//113 86//113 57//113
f 57//114 86//114 58//114
f 58//115 86//115 59//115
f 59//116 86//116 60//116
f 60//117 86//117 61//117
f 61//118 86//118 62//118
f 62//119 86//119 63//119
f 63//120 86//120 64//120
f 64//121 86//121 65//121
f 65//122 86//122 66//122
f 66//123 86//123 67//123
f 67//124 86//124 68//124
f 68//125 86//125 69//125
f 69//126 86//126 70//126
f 70//127 86//127 71//127
f 71//128 86//128 72//128
f 72//129 86//129 73//129
f 73//130 86//130 74//130
f 74//131 86//131 75//131
f 75//132 86//132 76//132
f 76//133 86//133 77//133
f 77//134 86//134 78//134
f 78//135 86//135 79//135
f 79//136 86//136 80//136
f 80//137 86//137 81//137
f 81//138 86//138 82//138
f 82//139 86//139 83//139
f 83//140 86//140 84//140
f 84//141 86//141 85//141
f 85//142 86//142 54//142
f 88//143 89//143 87//143
f 89//144 90//144 87//144
f 90//145 91//145 87//145
f 91//146 92//146 87//146
f 92//147 93//147 87//147
f 93//148 94//148 87//148
f 94//149 95//149 87//149
f 95//150 96//150 87//150
f 96//151 97//151 87//151
f 97//152 98//152 87//152
f 98//153 99//153 87//153
f 99//154 100//154 87//154
f 100//155 101//155 87//155
f 101//156 102//156 87//156
f 102//157 103//157 87//157
f 103//158 104//158 87//158
f 104//159 105//159 87//159
f 105//160 106//160 87//160
f 106//161 107//161 87//161
f 107//162 108//162 87//162
f 108//163 109//163 87//163
f 109//164 110//164 87//164
f 110//165 111//165 87//165
f 111//166 112//166 87//166
f 112//167 113//167 87//167
f 113//168 114//168 87//168
f 114//169 115//169 87//169
f 115//170 116//170 87//170
f 116//171 117//171 87//171
f 117//172 118//172 87//172
f 118//173 119//173 87//173
f 119//174 88//174 87//174
f 88//175 120//175 89//175
f 89//176 120//176 90//176
f 90//177 120//177 91//177
f 91//178 120//178 92//178
f 92//179 120//179 93//179
f 93//180 120//180 94//180
f 94//181 120//181 95//181
f 95//182 120//182 96//182
f 96//183 120//183 97//183
f 97//184 120//184 98//184
f 98//185 120//185 99//185
f 99//186 120//186 100//186
f 100//187 120//187 101//187
f 101//188 120//188 102//188
f 102//189 120//189 103//189
f 103//190 120//190 104//190
f 104//191 120//191 105//191
f 105//192 120//192 106//192
f 106//193 120//193 107//193
f 107//194 120//194 108//194
f 108//195 120//195 109//195
f 109//196 120//196 110//196
f 110//197 120//197 111//197
f 111//198 120//198 112//198
f 112//199 120//199 113//199
f 113//200 120//200 114//200
f 114//201 120//201 115//201
f 115//202 120//202 116//202
f 116//203 120//203 117//203
f 117//204 120//204 118//204
f 118//205 120//205 119//205
f 119//206 120//206 88//206
f 122//207 123//207 121//207
f 123//208 124//208 121//208
f 124//209 125//209 121//209
f 125//210 126//210 121//210
f 126//211 127//211 121//211
f 127//212 128//212 121//212
f 128//213 129//213 121//213
f 129//214 130//214 121//214
f 130//215 131//215 121//215
f 131//216 132//216 121//216
f 132//217 133//217 121//217
f 133//218 134//218 121//218
f 134//219 135//219 121//219
f 135//220 136//220 121//220
f 136//221 137//221 121//221
f 137//222 138//222 121//222
f 138//223 139//223 121//223
f 139//224 140//224 121//224
f 140//225 141//225 121//225
f 141//226 142//226 121//226
f 142//227 143//227 121//227
f 143//228 144//228 121//228
f 144//229 145//229 121//229
f 145//230 146//230 121//230
f 146//231 147//231 121//231
f 147//232 148//232 121//232
f 148//233 149//233 121//233
f 149//234 150//234 121//234
f 150//235 151//235 121//235
f 151//236 152//236 121//236
f 152//237 153//237 121//237
f 153//238 122//238 121//238
f 122//239 154//239 123//239
f 123//240 154//240 124//240
f 124//241 154//241 125//241
f 125//242 154//242 126//242
f 126//243 154//243 127//243
f 127//244 154//244 128//244
f 128//245 154//245 129//245
f 129//246 154//246 130//246
f 130//247 154//247 131//247
f 131//248 154//248 132//248
f 132//249 154//249 133//249
f 133//250 154//250 134//250
f 134//251 154//251 135//251
f 135//252 154//252 136//252
f 136//253 154//253 137//253
f 137//254 154//254 138//254
f 138//255 154//255 139//255
f 139//256 154//256 140//256
f 140//257 154//257 141//257
f 141//258 154//258 142//258
f 142//259 154//259 143//259
f 143//260 154//260 144//260
f 144//261 154//261 145//261
f 145//262 154//262 146//262
f 146//263 154//263 147//263
f 147//264 154//264 148//264
f 148//265 154//265 149//265
f 149//266 154//266 150//266
f 150//267 154//267 151//267
f 151//268 154//268 152//268
f 152//269 154//269 153//269
f 153//270 154//270 122//270
f 156//271 157//271 155//271
f 157//272 158//272 155//272
f 158//273 159//273 155//273
f 159//274 160//274 155//274
f 160//275 161//275 155//275
f 161//276 162//276 155//276
f 162//277 163//277 155//277
f 163//278 164//278 155//278
f 164//279 165//279 155//279
f 165//280 166//280 155//280
f 166//281 167//281 155//281
f 167//282 168//282 155//282
f 168//283 169//283 155//283
f 169//284 170//284 155//284
f 170//285 171//285 155//285
f 171//286 172//286 155//286
f 172//287 173//287 155//287
f 173//288 174//288 155//288
f 174//289 175//289 155//289
f 175//290 176//290 155//290
f 176//291 177//291 155//291
f 177//292 178//292 155//292
f 178//293 179//293 155//293
f 179//294 180//294 155//294
f 180//295 181//295 155//295
f 181//296 182//296 155//296
f 182//297 183//297 155//297
f 183//298 184//298 155//298
f 184//299 185//299 155//299
f 185//300 186//300 155//300
f 186//301 187//301 155//301
f 187//302 156//302 155//302
f 156//303 188//303 157//303
f 157//304 188//304 158//304
f 158//305 188//305 159//305
f 159//306 188//306 160//306
f 160//307 188//307 161//307
f 161//308 188//308 162//308
f 162//309 188//309 163//309
f 163//310 188//310 164//310
f 164//311 188//311 165//311
f 165//312 188//312 166//312
f 166//313 188//313 167//313
f 167//314 188//314 168//314
f 168//315 188//315 169//315
f 169//316 188//316 170//316
f 170//317 188//317 171//317
f 171//318 188//318 172//318
f 172//319 188//319 173//319
f 173//320 188//320 174//320
f 174//321 188//321 175//321
f 175//322 188//322 176//322
f 176//323 188//323 177//323
f 177//324 188//324 178//324
f 178//325 188//325 179//325
f 179//326 188//326 180//326
f 180//327 188//327 181//327
f 181//328 188//328 182//328
f 182//329 188//329 183//329
f 183//330 188//330 184//330
f 184//331 188//331 185//331
f 185//332 188//332 186//332
f 186//333 188//333 187//333
f 187//334 188//334 156//334
