# Blender 4.1.1
# www.blender.org
o Stone.007
v -0.111482 -0.012180 -0.027700
v -0.094759 -0.021754 -0.034860
v -0.110027 -0.018125 -0.026642
v -0.132530 -0.025287 0.056942
v -0.127172 0.002130 0.016183
v -0.133008 0.032998 0.038248
v -0.111365 -0.006024 -0.025446
v -0.033313 0.107268 -0.032861
v -0.033239 -0.019073 -0.061106
v -0.048282 -0.025716 -0.056259
v -0.057356 -0.027026 -0.052345
v -0.035883 -0.056692 -0.058541
v -0.076817 -0.027720 -0.042921
v -0.030088 -0.028052 -0.063112
v -0.024109 -0.063361 -0.061941
v -0.033823 -0.060818 -0.056539
v -0.077935 -0.063950 -0.017885
v -0.102933 -0.024068 -0.028787
v -0.071135 -0.070814 -0.014983
v -0.127645 -0.030762 0.051647
v -0.108980 -0.022139 -0.021387
v -0.056572 -0.074256 0.013001
v -0.118718 -0.032714 0.050590
v -0.065941 -0.075907 -0.011379
v -0.059502 -0.081442 -0.010029
v -0.056738 -0.083346 -0.005674
v -0.053817 -0.079598 0.006781
v -0.004550 -0.084843 -0.009512
v -0.015486 -0.064427 0.025260
v -0.049076 -0.074873 0.012463
v -0.080037 0.011068 0.087852
v -0.067400 -0.032480 0.056394
v -0.062468 -0.029541 0.057648
v -0.007382 -0.063280 0.024287
v 0.034073 -0.017812 0.040657
v 0.024664 -0.017641 0.044455
v 0.010512 -0.013299 0.052477
v 0.004583 -0.084071 -0.012226
v 0.010149 -0.079344 -0.008927
v 0.024601 -0.055671 0.014275
v 0.040747 -0.032712 0.025650
v 0.039932 -0.026610 0.031149
v 0.049142 -0.027263 0.025981
v 0.040326 -0.020405 0.035629
v 0.029627 -0.011758 0.046589
v 0.048446 -0.020294 0.030270
v 0.039406 -0.011313 0.040513
v 0.037101 -0.005550 0.043847
v 0.055680 -0.019386 0.024562
v 0.055848 0.007200 0.030915
v 0.048957 0.007039 0.036446
v 0.049193 0.015884 0.035771
v 0.062281 0.008169 0.025258
v 0.065868 0.023164 0.016770
v 0.064630 -0.000128 0.020339
v 0.065746 0.009813 0.020972
v 0.068690 0.013854 0.016846
v 0.070371 0.025907 0.010699
v 0.068229 0.007907 0.016777
v 0.072253 0.016966 0.010665
v 0.073797 0.027569 0.004033
v 0.071726 0.007239 0.009374
v 0.074377 0.012539 0.004276
v 0.075041 0.020596 0.004183
v 0.077012 0.022036 -0.002711
v 0.076397 0.012223 -0.002763
v 0.077048 0.005952 -0.011117
v 0.073807 0.002659 0.001848
v 0.075746 0.003667 -0.004863
v 0.075205 -0.004627 -0.011013
v 0.074153 -0.004568 -0.004706
v 0.072054 -0.012976 -0.004886
v 0.071693 -0.008150 0.001370
v 0.070687 -0.002206 0.007903
v 0.068227 -0.013640 0.006793
v 0.067362 -0.006563 0.012975
v 0.064954 -0.012290 0.014579
v 0.063758 -0.020767 0.011442
v 0.068755 -0.018395 0.000012
v 0.057003 -0.043508 0.001885
v 0.064654 -0.024104 0.004835
v 0.056382 -0.046212 -0.004325
v 0.051863 -0.049568 0.001430
v 0.057253 -0.032707 0.014064
v 0.052357 -0.044466 0.007819
v 0.046032 -0.049035 0.007373
v 0.049008 -0.034130 0.020118
v 0.055956 -0.027528 0.019988
v 0.052037 -0.038476 0.013574
v 0.013707 -0.066699 -0.056382
v 0.041158 -0.045882 -0.052596
v 0.065443 -0.016557 -0.039806
v 0.074608 -0.007171 -0.023311
v 0.074980 -0.007432 -0.017292
v 0.072255 -0.012902 -0.011033
v 0.076199 0.001104 -0.017288
v 0.076700 0.015248 -0.009171
v 0.049762 -0.010674 -0.061279
v 0.063332 -0.015977 -0.044517
v 0.048846 -0.017731 -0.061213
v 0.045965 -0.038705 -0.051759
v 0.044296 -0.019839 -0.065242
v 0.046321 -0.011187 -0.064842
v 0.017508 -0.042711 -0.068378
v 0.025592 -0.042303 -0.067501
v 0.010996 -0.049472 -0.067983
v 0.018305 -0.061138 -0.058203
v 0.018352 -0.056105 -0.062095
v 0.018361 -0.050242 -0.066484
v -0.010939 -0.066187 -0.061652
v 0.010369 -0.055655 -0.064539
v -0.012750 -0.069842 -0.058202
v -0.018228 -0.066351 -0.061176
v -0.020712 -0.069233 -0.055463
v -0.005207 -0.076872 -0.043427
v -0.013303 -0.076703 -0.040876
v -0.008957 -0.078598 -0.036621
v 0.004457 -0.045288 -0.068103
v -0.004071 0.064726 -0.054050
v -0.010288 -0.044076 -0.066092
v -0.004533 0.113911 -0.029343
v 0.002821 0.113987 -0.028438
v 0.008844 0.107566 -0.029283
v 0.046441 -0.004169 -0.062079
v 0.073314 0.025276 -0.006713
v 0.073526 0.031593 -0.001351
v -0.003059 0.108231 -0.003940
v 0.006969 0.110011 -0.024543
v -0.049943 0.104838 0.047914
v -0.005940 0.106327 0.001584
v -0.001118 0.113857 -0.023130
v -0.023338 0.117587 -0.018353
v -0.034783 0.118781 -0.014491
v -0.028787 0.117003 -0.020503
v -0.028803 0.110514 -0.030125
v -0.043449 0.118245 -0.009895
v -0.038514 0.106651 -0.028429
v -0.067837 0.096568 -0.006291
v -0.050307 0.114977 -0.004254
v -0.069807 0.108264 0.018592
v -0.087005 0.092609 0.031043
v -0.072096 0.094468 -0.001192
v -0.081174 0.099450 0.044487
v -0.084332 0.096422 0.048510
v -0.135139 0.008773 0.059016
v -0.065261 0.082169 0.069739
v -0.066486 0.085543 0.066515
v -0.042433 0.059993 0.083442
v -0.086021 0.010823 0.085034
v -0.115453 -0.004833 0.072344
v -0.135685 -0.007355 0.059096
v -0.136292 0.000998 0.057565
v -0.130995 0.004100 0.033106
v -0.031059 0.045471 0.084006
v 0.040858 0.021273 0.041052
v 0.045640 0.024303 0.034707
v 0.043012 0.030856 0.031918
v 0.037807 0.035215 0.032809
v 0.061630 0.029021 0.016598
v -0.021819 0.034220 0.082680
v -0.014585 0.035653 0.076688
v -0.071113 0.009141 0.084617
v -0.027500 0.038251 0.084301
v -0.073110 0.088802 -0.005932
v -0.084431 0.055474 -0.017197
v -0.089143 0.050074 -0.015658
v 0.063110 -0.009589 0.018556
v 0.068528 0.002702 0.014572
vn -0.7410 -0.0285 -0.6709
vn -0.4110 -0.0381 -0.9108
vn -0.4730 -0.1965 -0.8589
vn -0.7439 -0.3917 -0.5415
vn -0.7478 -0.6068 0.2696
vn -0.9536 -0.0609 -0.2947
vn -0.9247 0.3797 -0.0270
vn -0.7377 0.2778 -0.6153
vn -0.3254 0.5382 -0.7775
vn -0.2944 0.1524 -0.9435
vn -0.3756 0.0456 -0.9257
vn -0.4392 -0.1224 -0.8900
vn -0.4536 -0.3327 -0.8268
vn -0.5702 -0.4457 -0.6902
vn -0.2354 0.0343 -0.9713
vn -0.3055 -0.4617 -0.8328
vn -0.5089 -0.5821 -0.6342
vn -0.6284 -0.6563 -0.4176
vn -0.7702 -0.5744 -0.2771
vn -0.5694 -0.7444 -0.3488
vn -0.5673 -0.7862 0.2452
vn -0.0768 -0.7282 0.6811
vn -0.1250 -0.8803 0.4576
vn -0.0810 -0.7594 0.6455
vn -0.6335 -0.7618 -0.1352
vn -0.4277 -0.8604 -0.2770
vn -0.2623 -0.9644 0.0331
vn -0.0117 -0.7609 0.6488
vn 0.0865 -0.9794 0.1823
vn 0.1174 -0.7141 0.6902
vn -0.1375 -0.1561 0.9781
vn 0.2484 -0.6853 0.6846
vn 0.1450 -0.5544 0.8195
vn 0.0147 -0.6415 0.7669
vn 0.2584 -0.4635 0.8476
vn 0.3595 -0.5774 0.7330
vn 0.3785 -0.5090 0.7730
vn 0.2939 -0.5441 0.7859
vn 0.3263 -0.9404 0.0959
vn 0.4223 -0.7914 0.4421
vn 0.3806 -0.6893 0.6164
vn 0.3628 -0.6024 0.7110
vn 0.4455 -0.4659 0.7645
vn 0.4938 -0.5021 0.7100
vn 0.4001 -0.3654 0.8405
vn 0.5691 -0.2715 0.7762
vn 0.5737 -0.3313 0.7491
vn 0.5508 -0.1467 0.8217
vn 0.6518 -0.0559 0.7564
vn 0.6961 -0.2763 0.6627
vn 0.5988 -0.0338 0.8002
vn 0.6278 0.1739 0.7587
vn 0.7226 0.0049 0.6913
vn 0.6680 0.3330 0.6655
vn 0.8083 0.0780 0.5836
vn 0.7959 -0.1840 0.5768
vn 0.7960 -0.0097 0.6052
vn 0.7299 0.4036 0.5516
vn 0.8841 0.0388 0.4656
vn 0.8632 -0.1137 0.4919
vn 0.8217 0.4079 0.3981
vn 0.9314 0.0606 0.3589
vn 0.9114 -0.1313 0.3900
vn 0.9411 -0.1005 0.3229
vn 0.9781 0.2034 -0.0440
vn 0.9741 -0.0894 0.2075
vn 0.9988 -0.0454 -0.0187
vn 0.9680 -0.1525 0.1995
vn 0.9412 -0.1612 0.2970
vn 0.9706 -0.2173 0.1034
vn 0.9551 -0.2102 0.2086
vn 0.9284 -0.3400 0.1499
vn 0.9256 -0.2401 0.2927
vn 0.8928 -0.2858 0.3481
vn 0.9080 -0.1919 0.3723
vn 0.8993 -0.3673 0.2373
vn 0.8698 -0.2169 0.4431
vn 0.8369 -0.2603 0.4816
vn 0.8509 -0.3357 0.4040
vn 0.8068 -0.5205 0.2796
vn 0.8731 -0.3838 0.3008
vn 0.7726 -0.6340 -0.0335
vn 0.5942 -0.7527 0.2836
vn 0.5645 -0.6185 0.5465
vn 0.7324 -0.4702 0.4924
vn 0.4260 -0.7031 0.5694
vn 0.4568 -0.5938 0.6624
vn 0.5441 -0.5654 0.6199
vn 0.6850 -0.4191 0.5959
vn 0.3776 -0.7603 -0.5286
vn 0.6647 -0.5917 -0.4562
vn 0.8665 -0.3620 -0.3437
vn 0.9385 -0.1328 -0.3187
vn 0.9540 -0.2990 -0.0200
vn 0.9048 -0.4252 0.0230
vn 0.9486 0.0773 -0.3068
vn 0.9049 0.2307 -0.3576
vn 0.7548 0.1179 -0.6453
vn 0.8359 -0.1107 -0.5377
vn 0.7264 -0.2309 -0.6473
vn 0.7440 -0.4303 -0.5112
vn 0.4563 -0.1774 -0.8720
vn 0.4235 0.1017 -0.9002
vn 0.0418 -0.0168 -0.9990
vn 0.3455 -0.2815 -0.8952
vn 0.0484 -0.2756 -0.9601
vn 0.2909 -0.4488 -0.8450
vn 0.4894 -0.5915 -0.6408
vn 0.4326 -0.5471 -0.7166
vn 0.0336 -0.5358 -0.8437
vn 0.1523 -0.5291 -0.8348
vn -0.1659 -0.6234 -0.7641
vn -0.0385 -0.8253 -0.5633
vn -0.2787 -0.8311 -0.4812
vn -0.1355 -0.9267 -0.3505
vn 0.0769 -0.9327 -0.3525
vn -0.0388 -0.9659 -0.2558
vn -0.0800 -0.0252 -0.9965
vn 0.0088 0.3035 -0.9528
vn -0.1543 -0.0462 -0.9869
vn 0.0326 0.7588 -0.6505
vn 0.3884 0.8417 -0.3750
vn 0.6319 0.5812 -0.5128
vn 0.5705 0.3536 -0.7413
vn 0.7519 0.3979 -0.5256
vn 0.8359 0.5483 -0.0253
vn 0.6615 0.7303 0.1705
vn 0.4717 0.7885 0.3947
vn 0.1633 0.8371 0.5221
vn 0.2769 0.9289 0.2458
vn 0.5483 0.6497 0.5266
vn 0.1157 0.9932 -0.0125
vn -0.0763 0.9857 -0.1501
vn -0.1236 0.8916 -0.4356
vn -0.1454 0.7738 -0.6165
vn -0.3232 0.9283 -0.1840
vn -0.5949 0.5300 -0.6043
vn -0.6768 0.5437 -0.4964
vn -0.6228 0.7038 -0.3418
vn -0.5038 0.8618 -0.0589
vn -0.7632 0.6257 -0.1614
vn -0.7478 0.5496 -0.3726
vn -0.4620 0.8625 0.2065
vn -0.5743 0.7010 0.4228
vn -0.8112 0.2177 0.5427
vn -0.2030 0.5194 0.8301
vn -0.2070 0.6602 0.7220
vn -0.4383 0.1985 0.8766
vn 0.1851 0.4127 0.8919
vn -0.3383 -0.1987 0.9198
vn -0.5208 -0.1916 0.8319
vn -0.9796 -0.0862 0.1815
vn -0.9894 -0.0068 0.1448
vn -0.9758 -0.0332 -0.2161
vn 0.3252 0.2778 0.9039
vn 0.5599 0.5578 0.6126
vn 0.5878 0.2814 0.7585
vn 0.5911 0.4672 0.6575
vn 0.5675 0.5237 0.6354
vn 0.5892 0.5400 0.6010
vn 0.4072 -0.0283 0.9129
vn 0.5665 0.3651 0.7387
vn 0.1043 -0.0719 0.9919
vn 0.2259 -0.4265 0.8758
vn 0.4221 0.2438 0.8731
vn -0.7271 0.4588 -0.5107
vn -0.7113 0.4023 -0.5764
vn -0.6365 0.3950 -0.6625
vn 0.7953 -0.2421 0.5557
vn 0.8757 -0.1649 0.4539
s 1
f 1//1 11//2 2//3
f 1//1 2//3 3//4
f 1//1 3//4 4//5
f 1//1 4//5 5//6
f 1//1 5//6 6//7
f 1//1 6//7 7//8
f 1//1 7//8 8//9
f 1//1 8//9 9//10
f 1//1 9//10 10//11
f 1//1 10//11 11//2
f 2//3 11//2 13//12
f 10//11 12//13 11//2
f 11//2 12//13 13//12
f 2//3 13//12 12//13
f 2//3 12//13 3//4
f 3//4 12//13 18//14
f 10//11 14//15 12//13
f 12//13 14//15 15//16
f 12//13 15//16 16//17
f 12//13 16//17 17//18
f 12//13 17//18 18//14
f 3//4 18//14 17//18
f 3//4 17//18 21//19
f 17//18 15//16 19//20
f 17//18 19//20 20//21
f 17//18 20//21 21//19
f 17//18 16//17 15//16
f 3//4 21//19 20//21
f 3//4 20//21 4//5
f 4//5 20//21 23//22
f 20//21 27//23 22//24
f 20//21 22//24 23//22
f 20//21 19//20 24//25
f 20//21 24//25 25//26
f 20//21 25//26 26//27
f 20//21 26//27 27//23
f 22//24 27//23 30//28
f 26//27 28//29 27//23
f 27//23 28//29 29//30
f 27//23 29//30 30//28
f 22//24 30//28 29//30
f 31//31 29//30 34//32
f 31//31 33//33 29//30
f 32//34 29//30 33//33
f 32//34 22//24 29//30
f 29//30 28//29 34//32
f 31//31 34//32 37//35
f 34//32 42//36 35//37
f 34//32 35//37 36//38
f 34//32 36//38 37//35
f 34//32 28//29 38//39
f 34//32 38//39 39//40
f 34//32 39//40 40//41
f 34//32 40//41 41//42
f 34//32 41//42 42//36
f 35//37 42//36 44//43
f 41//42 43//44 42//36
f 42//36 43//44 44//43
f 35//37 44//43 45//45
f 45//45 44//43 47//46
f 44//43 43//44 46//47
f 44//43 46//47 47//46
f 45//45 47//46 48//48
f 48//48 47//46 50//49
f 47//46 46//47 49//50
f 47//46 49//50 50//49
f 48//48 50//49 51//51
f 51//51 50//49 52//52
f 52//52 50//49 53//53
f 50//49 49//50 53//53
f 52//52 53//53 54//54
f 54//54 53//53 57//55
f 53//53 49//50 55//56
f 53//53 55//56 56//57
f 53//53 56//57 57//55
f 54//54 57//55 58//58
f 58//58 57//55 60//59
f 57//55 56//57 59//60
f 57//55 59//60 60//59
f 58//58 60//59 61//61
f 61//61 60//59 64//62
f 60//59 59//60 62//63
f 60//59 62//63 63//64
f 60//59 63//64 64//62
f 61//61 64//62 65//65
f 65//65 64//62 66//66
f 64//62 63//64 66//66
f 65//65 66//66 67//67
f 67//67 66//66 69//68
f 66//66 63//64 68//69
f 66//66 68//69 69//68
f 67//67 69//68 70//70
f 70//70 69//68 71//71
f 69//68 68//69 71//71
f 72//72 71//71 73//73
f 72//72 70//70 71//71
f 73//73 71//71 68//69
f 72//72 73//73 75//74
f 73//73 68//69 74//75
f 73//73 74//75 75//74
f 72//72 75//74 79//76
f 75//74 74//75 76//77
f 75//74 76//77 77//78
f 75//74 77//78 78//79
f 75//74 78//79 79//76
f 72//72 79//76 80//80
f 80//80 79//76 81//81
f 79//76 78//79 81//81
f 80//80 81//81 78//79
f 82//82 80//80 83//83
f 82//82 72//72 80//80
f 83//83 80//80 85//84
f 80//80 78//79 84//85
f 80//80 84//85 85//84
f 83//83 85//84 86//86
f 86//86 85//84 87//87
f 87//87 85//84 89//88
f 85//84 84//85 88//89
f 85//84 88//89 89//88
f 87//87 89//88 88//89
f 87//87 88//89 43//44
f 43//44 88//89 49//50
f 88//89 84//85 78//79
f 88//89 78//79 77//78
f 88//89 77//78 49//50
f 40//41 87//87 43//44
f 40//41 86//86 87//87
f 39//40 86//86 40//41
f 39//40 83//83 86//86
f 38//39 83//83 39//40
f 38//39 82//82 83//83
f 38//39 90//90 82//82
f 90//90 91//91 82//82
f 82//82 91//91 92//92
f 82//82 92//92 93//93
f 82//82 93//93 94//94
f 82//82 94//94 95//95
f 82//82 95//95 72//72
f 94//94 72//72 95//95
f 67//67 94//94 96//96
f 67//67 70//70 94//94
f 96//96 94//94 93//93
f 94//94 70//70 72//72
f 97//97 96//96 98//98
f 97//97 67//67 96//96
f 98//98 96//96 99//99
f 96//96 93//93 99//99
f 98//98 99//99 100//100
f 100//100 99//99 101//101
f 99//99 93//93 92//92
f 99//99 92//92 101//101
f 100//100 101//101 102//102
f 102//102 101//101 91//91
f 101//101 92//92 91//91
f 103//103 102//102 104//104
f 103//103 100//100 102//102
f 104//104 102//102 105//105
f 102//102 91//91 105//105
f 104//104 105//105 106//106
f 106//106 105//105 109//107
f 105//105 91//91 107//108
f 105//105 107//108 108//109
f 105//105 108//109 109//107
f 106//106 109//107 110//110
f 110//110 109//107 111//111
f 109//107 108//109 90//90
f 109//107 90//90 111//111
f 110//110 111//111 90//90
f 15//16 110//110 113//112
f 15//16 106//106 110//110
f 110//110 90//90 112//113
f 110//110 112//113 113//112
f 15//16 113//112 114//114
f 113//112 112//113 114//114
f 15//16 114//114 25//26
f 25//26 114//114 112//113
f 25//26 112//113 116//115
f 112//113 90//90 115//116
f 112//113 115//116 116//115
f 25//26 116//115 26//27
f 26//27 116//115 115//116
f 26//27 115//116 117//117
f 115//116 90//90 38//39
f 115//116 38//39 117//117
f 26//27 117//117 28//29
f 117//117 38//39 28//29
f 90//90 108//109 107//108
f 90//90 107//108 91//91
f 15//16 118//118 106//106
f 104//104 106//106 118//118
f 119//119 118//118 14//15
f 119//119 104//104 118//118
f 14//15 118//118 120//120
f 15//16 120//120 118//118
f 14//15 120//120 15//16
f 8//9 119//119 9//10
f 8//9 121//121 119//119
f 9//10 119//119 14//15
f 121//121 122//122 119//119
f 119//119 122//122 123//123
f 119//119 123//123 124//124
f 119//119 124//124 103//103
f 119//119 103//103 104//104
f 123//123 125//125 124//124
f 124//124 125//125 97//97
f 124//124 97//97 98//98
f 124//124 98//98 103//103
f 123//123 126//126 125//125
f 126//126 97//97 125//125
f 123//123 128//127 126//126
f 127//128 126//126 128//127
f 127//128 61//61 126//126
f 126//126 61//61 65//65
f 126//126 65//65 97//97
f 122//122 128//127 123//123
f 122//122 127//128 128//127
f 129//129 127//128 131//130
f 129//129 130//131 127//128
f 122//122 131//130 127//128
f 130//131 58//58 127//128
f 127//128 58//58 61//61
f 129//129 131//130 132//132
f 132//132 131//130 122//122
f 133//133 129//129 132//132
f 133//133 132//132 134//134
f 134//134 132//132 121//121
f 121//121 132//132 122//122
f 8//9 134//134 135//135
f 8//9 133//133 134//134
f 134//134 121//121 135//135
f 8//9 135//135 121//121
f 8//9 136//136 133//133
f 136//136 129//129 133//133
f 8//9 137//137 136//136
f 137//137 138//138 136//136
f 136//136 138//138 139//139
f 136//136 139//139 140//140
f 136//136 140//140 129//129
f 141//141 140//140 142//142
f 141//141 143//143 140//140
f 142//142 140//140 138//138
f 129//129 140//140 143//143
f 140//140 139//139 138//138
f 144//144 143//143 141//141
f 144//144 129//129 143//143
f 6//7 144//144 141//141
f 6//7 145//145 144//144
f 145//145 146//146 144//144
f 144//144 146//146 147//147
f 144//144 147//147 129//129
f 146//146 129//129 147//147
f 31//31 146//146 149//148
f 31//31 148//149 146//146
f 145//145 149//148 146//146
f 148//149 129//129 146//146
f 31//31 149//148 150//150
f 150//150 149//148 145//145
s 0
f 4//151 150//151 151//151
s 1
f 4//5 31//31 150//150
f 150//150 145//145 151//152
f 4//5 151//152 5//6
f 5//6 151//152 152//153
f 151//152 145//145 152//153
f 5//6 152//153 153//154
f 6//7 152//153 145//145
f 6//7 153//154 152//153
f 5//6 153//154 6//7
f 31//31 154//155 148//149
f 148//149 158//156 129//129
f 148//149 154//155 155//157
f 148//149 155//157 156//158
f 148//149 156//158 157//159
f 148//149 157//159 158//156
f 129//129 158//156 159//160
f 157//159 159//160 158//156
f 129//129 159//160 130//131
f 156//158 159//160 157//159
f 156//158 58//58 159//160
f 159//160 58//58 130//131
f 155//157 54//54 156//158
f 156//158 54//54 58//58
f 160//161 155//157 161//162
f 160//161 52//52 155//157
f 154//155 161//162 155//157
f 155//157 52//52 54//54
f 160//161 161//162 154//155
f 31//31 160//161 163//163
f 31//31 162//164 160//161
f 37//35 160//161 162//164
f 37//35 45//45 160//161
s 0
f 160//165 154//165 163//165
s 1
f 160//161 45//45 48//48
f 160//161 48//48 51//51
f 160//161 51//51 52//52
f 31//31 163//163 154//155
f 31//31 37//35 162//164
f 6//7 142//142 164//166
f 6//7 141//141 142//142
f 142//142 138//138 164//166
f 6//7 164//166 166//167
f 164//166 138//138 165//168
f 164//166 165//168 166//167
f 6//7 166//167 7//8
f 7//8 166//167 165//168
f 7//8 165//168 8//9
f 8//9 165//168 137//137
f 165//168 138//138 137//137
f 103//103 98//98 100//100
f 97//97 65//65 67//67
f 49//50 77//78 167//169
f 55//56 77//78 76//77
f 55//56 167//169 77//78
f 49//50 167//169 55//56
f 55//56 76//77 168//170
f 76//77 74//75 168//170
f 55//56 168//170 59//60
f 59//60 168//170 62//63
f 62//63 168//170 74//75
f 62//63 74//75 68//69
f 62//63 68//69 63//64
f 55//56 59//60 56//57
f 43//44 49//50 46//47
f 37//35 36//38 45//45
f 35//37 45//45 36//38
f 40//41 43//44 41//42
f 31//31 32//34 33//33
f 4//5 32//34 31//31
f 4//5 23//22 32//34
f 23//22 22//24 32//34
f 15//16 25//26 19//20
f 19//20 25//26 24//25
f 9//10 14//15 10//11
