# Blender 4.1.1
# www.blender.org
o Stone.077
v -0.440069 -0.116946 0.496254
v -0.456619 -0.120303 0.403008
v -0.434578 -0.141233 0.478029
v 0.053151 -0.376662 0.547063
v -0.178536 -0.173063 0.584583
v -0.023864 -0.104648 0.664456
v -0.420307 -0.097180 0.506830
v -0.204509 0.459907 0.364753
v -0.487176 0.018074 0.131840
v -0.494619 -0.036204 0.187183
v -0.490551 -0.060348 0.225435
v -0.505918 -0.140318 0.072010
v -0.473465 -0.105932 0.311227
v -0.500196 -0.009707 0.100829
v -0.506838 -0.145951 0.006090
v -0.491498 -0.158710 0.054217
v -0.341477 -0.305694 0.241422
v -0.437269 -0.152083 0.434683
v -0.312710 -0.331478 0.196421
v 0.025373 -0.381369 0.515545
v -0.401183 -0.167389 0.464296
v -0.100627 -0.389003 0.115983
v 0.037008 -0.376568 0.471071
v -0.281590 -0.353578 0.161989
v -0.262691 -0.371121 0.121560
v -0.229640 -0.384950 0.104156
v -0.139106 -0.393630 0.094738
v -0.138624 -0.322480 -0.137617
v 0.079080 -0.329077 -0.057290
v -0.087784 -0.381656 0.080490
v 0.400623 -0.238355 0.367017
v 0.190162 -0.329085 0.234174
v 0.211695 -0.314417 0.216767
v 0.091845 -0.313068 -0.092126
v 0.327071 -0.119709 -0.200531
v 0.330793 -0.138091 -0.157900
v 0.354629 -0.154473 -0.086614
v -0.135180 -0.303008 -0.177460
v -0.097508 -0.284916 -0.194902
v 0.104464 -0.224243 -0.222216
v 0.232723 -0.138855 -0.255727
v 0.271460 -0.127403 -0.241781
v 0.258001 -0.108201 -0.284067
v 0.306365 -0.111942 -0.232941
v 0.360436 -0.113567 -0.170088
v 0.289809 -0.090541 -0.268720
v 0.343205 -0.087373 -0.212683
v 0.364241 -0.074301 -0.191990
v 0.269623 -0.066234 -0.298828
v 0.332179 0.026066 -0.250759
v 0.352567 0.005509 -0.220770
v 0.355643 0.042462 -0.204914
v 0.310570 0.049583 -0.277087
v 0.275155 0.131805 -0.263024
v 0.277333 0.029902 -0.302395
v 0.291751 0.069403 -0.288828
v 0.274683 0.097816 -0.293670
v 0.247907 0.161060 -0.277005
v 0.268536 0.073758 -0.302814
v 0.244904 0.127698 -0.302609
v 0.213527 0.186059 -0.287945
v 0.227690 0.091157 -0.318311
v 0.204629 0.126349 -0.319175
v 0.211833 0.159401 -0.306923
v 0.172523 0.182334 -0.311535
v 0.163113 0.142665 -0.327305
v 0.105301 0.136532 -0.340110
v 0.179801 0.091613 -0.334686
v 0.141279 0.112391 -0.340014
v 0.093549 0.092058 -0.351727
v 0.132272 0.077426 -0.348352
v 0.119795 0.041915 -0.354603
v 0.163475 0.047172 -0.345350
v 0.208385 0.055532 -0.331079
v 0.186673 0.009576 -0.341182
v 0.230505 0.023374 -0.325320
v 0.231049 -0.005678 -0.325514
v 0.201304 -0.034018 -0.335313
v 0.140008 0.005932 -0.350935
v 0.106123 -0.111659 -0.345011
v 0.157707 -0.031967 -0.344112
v 0.062204 -0.109696 -0.345736
v 0.086871 -0.140723 -0.332758
v 0.194400 -0.094735 -0.328708
v 0.133552 -0.133673 -0.326947
v 0.112871 -0.158189 -0.306427
v 0.214168 -0.123007 -0.295014
v 0.234094 -0.088434 -0.314401
v 0.174982 -0.122655 -0.315553
v -0.388384 -0.127713 -0.175456
v -0.285802 -0.021395 -0.263104
v -0.125069 0.095654 -0.322306
v 0.010194 0.107870 -0.350744
v 0.049984 0.094228 -0.354448
v 0.080305 0.055753 -0.353855
v 0.059441 0.129610 -0.343862
v 0.124468 0.168931 -0.321368
v -0.295381 0.147510 -0.233722
v -0.160011 0.105732 -0.310330
v -0.302540 0.118210 -0.242909
v -0.263941 0.010907 -0.271800
v -0.340625 0.113301 -0.224990
v -0.326691 0.149217 -0.217986
v -0.439103 -0.001841 -0.144446
v -0.414928 0.007197 -0.181052
v -0.456453 -0.037121 -0.127432
v -0.385551 -0.096333 -0.185592
v -0.406828 -0.067808 -0.175295
v -0.430765 -0.034948 -0.163123
v -0.477607 -0.142657 -0.059882
v -0.440297 -0.069921 -0.137136
v -0.462086 -0.166767 -0.059346
v -0.491004 -0.152734 -0.026805
v -0.461665 -0.179446 -0.022275
v -0.354527 -0.218061 -0.111034
v -0.355974 -0.232237 -0.074133
v -0.320018 -0.243991 -0.098766
v -0.468633 -0.027730 -0.089412
v -0.310089 0.370077 0.154933
v -0.487700 -0.044246 -0.019836
v -0.111803 0.511896 0.244177
v -0.089344 0.518712 0.210292
v -0.086355 0.501913 0.170642
v -0.302947 0.171319 -0.205919
v 0.140726 0.199638 -0.287398
v 0.181043 0.213427 -0.277724
v 0.052346 0.435969 0.220302
v -0.057806 0.499220 0.182717
v 0.281832 0.256169 0.416466
v 0.080326 0.413109 0.228562
v -0.063751 0.502162 0.226831
v -0.079625 0.481072 0.334855
v -0.079255 0.464280 0.388769
v -0.106305 0.477122 0.359331
v -0.174035 0.472102 0.349493
v -0.069226 0.442212 0.426441
v -0.187835 0.441862 0.386383
v -0.117519 0.319997 0.496536
v -0.050481 0.409084 0.450360
v 0.049130 0.310420 0.521578
v 0.079265 0.201313 0.567839
v -0.095548 0.295687 0.510860
v 0.185195 0.206157 0.550660
v 0.201910 0.181754 0.558432
v 0.087495 -0.248535 0.623133
v 0.371679 0.101000 0.438450
v 0.350601 0.120005 0.451280
v 0.494704 0.009328 0.288048
v 0.368661 -0.240125 0.394760
v 0.207742 -0.308894 0.503518
v 0.074142 -0.313558 0.595040
v 0.069367 -0.277680 0.614049
v -0.075457 -0.206267 0.601677
v 0.512528 -0.036617 0.208081
v 0.375518 0.042886 -0.157694
v 0.347346 0.074196 -0.172350
v 0.328435 0.103302 -0.147145
v 0.325967 0.112736 -0.115175
v 0.269109 0.150615 -0.232393
v 0.515824 -0.067905 0.144599
v 0.494196 -0.040889 0.115555
v 0.398095 -0.228743 0.323148
v 0.516778 -0.061907 0.177953
v -0.133112 0.282222 0.505960
v -0.257952 0.160863 0.497597
v -0.262752 0.130599 0.508629
v 0.254905 -0.005658 -0.312907
v 0.250778 0.058150 -0.313507
vn -0.7849 -0.1171 0.6084
vn -0.9838 0.0462 0.1733
vn -0.9616 -0.2152 0.1701
vn -0.6885 -0.5919 0.4191
vn -0.0747 -0.8982 0.4331
vn -0.3529 -0.4114 0.8403
vn -0.0618 -0.0214 0.9979
vn -0.5497 0.1895 0.8136
vn -0.5516 0.7299 0.4037
vn -0.9098 0.3967 0.1221
vn -0.9652 0.1955 0.1736
vn -0.9818 -0.0981 0.1629
vn -0.9416 -0.3287 0.0734
vn -0.8052 -0.5652 0.1797
vn -0.9636 0.2651 -0.0349
vn -0.9272 -0.3438 -0.1484
vn -0.7422 -0.6671 0.0642
vn -0.5901 -0.7846 0.1902
vn -0.4582 -0.7975 0.3926
vn -0.5372 -0.8360 0.1117
vn -0.1399 -0.9629 0.2307
vn 0.2202 -0.9742 -0.0494
vn 0.0018 -0.9914 -0.1311
vn 0.1816 -0.9808 -0.0717
vn -0.3865 -0.8969 0.2150
vn -0.4817 -0.8756 -0.0352
vn -0.3044 -0.9446 -0.1224
vn 0.1925 -0.9718 -0.1364
vn -0.1588 -0.9042 -0.3966
vn 0.2849 -0.9273 -0.2429
vn 0.7356 -0.5933 0.3269
vn 0.3261 -0.8658 -0.3795
vn 0.4767 -0.8614 -0.1755
vn 0.3578 -0.9302 -0.0821
vn 0.6017 -0.7518 -0.2698
vn 0.4324 -0.7689 -0.4710
vn 0.5236 -0.7138 -0.4651
vn 0.4904 -0.7913 -0.3652
vn -0.1820 -0.7484 -0.6378
vn 0.0837 -0.7685 -0.6343
vn 0.2698 -0.7919 -0.5477
vn 0.3959 -0.7779 -0.4880
vn 0.5586 -0.6295 -0.5400
vn 0.4871 -0.6121 -0.6230
vn 0.7109 -0.5656 -0.4180
vn 0.7148 -0.3317 -0.6156
vn 0.6478 -0.3932 -0.6525
vn 0.8395 -0.1907 -0.5088
vn 0.8016 0.0250 -0.5974
vn 0.5934 -0.2152 -0.7756
vn 0.8620 0.0089 -0.5069
vn 0.8630 0.2969 -0.4088
vn 0.7450 0.1601 -0.6476
vn 0.7715 0.5182 -0.3692
vn 0.6431 0.3274 -0.6923
vn 0.5398 -0.0004 -0.8418
vn 0.6392 0.2126 -0.7391
vn 0.6678 0.6115 -0.4244
vn 0.5056 0.3375 -0.7940
vn 0.4761 0.1466 -0.8671
vn 0.5343 0.6728 -0.5117
vn 0.4094 0.3926 -0.8236
vn 0.3681 0.1735 -0.9135
vn 0.3184 0.2342 -0.9186
vn 0.1635 0.5665 -0.8077
vn 0.2285 0.2786 -0.9328
vn 0.0760 0.3608 -0.9295
vn 0.1968 0.2158 -0.9564
vn 0.2728 0.1744 -0.9461
vn 0.0985 0.1661 -0.9812
vn 0.1817 0.1477 -0.9722
vn 0.0913 0.0220 -0.9956
vn 0.2371 0.0819 -0.9680
vn 0.2665 0.0025 -0.9638
vn 0.3271 0.1075 -0.9389
vn 0.1460 -0.0458 -0.9882
vn 0.3828 0.0424 -0.9228
vn 0.4035 -0.0397 -0.9141
vn 0.2969 -0.0911 -0.9506
vn 0.1146 -0.2747 -0.9547
vn 0.1843 -0.0989 -0.9779
vn -0.1424 -0.2777 -0.9501
vn 0.0278 -0.5910 -0.8062
vn 0.2685 -0.6097 -0.7458
vn 0.3129 -0.3544 -0.8812
vn 0.2279 -0.7588 -0.6102
vn 0.3718 -0.7011 -0.6084
vn 0.3577 -0.6090 -0.7079
vn 0.4347 -0.3637 -0.8239
vn -0.5452 -0.4151 -0.7283
vn -0.4038 -0.1691 -0.8991
vn -0.2495 0.0964 -0.9636
vn -0.1628 0.3063 -0.9379
vn -0.0192 0.1114 -0.9936
vn -0.0353 -0.0437 -0.9984
vn -0.0752 0.5047 -0.8600
vn -0.0638 0.6405 -0.7653
vn -0.3026 0.5587 -0.7722
vn -0.2914 0.3609 -0.8859
vn -0.4160 0.2306 -0.8796
vn -0.3860 0.0254 -0.9222
vn -0.6458 0.2661 -0.7157
vn -0.5991 0.5494 -0.5824
vn -0.8587 0.3380 -0.3852
vn -0.7247 0.1358 -0.6755
vn -0.8802 0.0264 -0.4738
vn -0.7301 -0.1006 -0.6759
vn -0.5535 -0.1862 -0.8118
vn -0.6050 -0.1600 -0.7800
vn -0.8170 -0.2936 -0.4963
vn -0.7606 -0.2438 -0.6017
vn -0.8135 -0.4789 -0.3299
vn -0.6404 -0.6358 -0.4309
vn -0.6141 -0.7631 -0.2014
vn -0.5193 -0.7927 -0.3194
vn -0.4984 -0.7137 -0.4921
vn -0.4549 -0.8015 -0.3883
vn -0.9241 0.2728 -0.2676
vn -0.7380 0.6649 -0.1152
vn -0.9598 0.2051 -0.1917
vn -0.2409 0.9669 0.0838
vn 0.0035 0.9945 -0.1044
vn -0.1050 0.8882 -0.4473
vn -0.3287 0.7608 -0.5596
vn -0.1341 0.7770 -0.6151
vn 0.2776 0.8229 -0.4957
vn 0.4065 0.8826 -0.2360
vn 0.5606 0.8279 -0.0181
vn 0.6558 0.6977 0.2885
vn 0.4682 0.8663 0.1738
vn 0.6557 0.7482 -0.1010
vn 0.3031 0.9143 0.2688
vn 0.1781 0.8944 0.4104
vn -0.0232 0.9290 0.3694
vn -0.1919 0.9298 0.3140
vn 0.0901 0.7657 0.6368
vn -0.3759 0.5325 0.7583
vn -0.2816 0.4490 0.8480
vn -0.0636 0.5543 0.8299
vn 0.1645 0.5967 0.7854
vn 0.0235 0.3459 0.9380
vn -0.1636 0.3646 0.9167
vn 0.3376 0.5486 0.7649
vn 0.4463 0.3059 0.8410
vn 0.3510 -0.2358 0.9062
vn 0.7529 0.2194 0.6205
vn 0.6814 0.3549 0.6401
vn 0.6376 -0.2279 0.7358
vn 0.9256 0.2726 0.2624
vn 0.5755 -0.6446 0.5033
vn 0.4537 -0.6301 0.6302
vn 0.0174 -0.5084 0.8609
vn -0.0332 -0.4322 0.9012
vn -0.2747 -0.4049 0.8721
vn 0.9769 0.1934 0.0907
vn 0.7265 0.6743 -0.1324
vn 0.8739 0.3839 -0.2981
vn 0.7679 0.6082 -0.2013
vn 0.7468 0.6474 -0.1522
vn 0.7203 0.6715 -0.1739
vn 0.9607 -0.1799 -0.2115
vn 0.8457 0.4894 -0.2130
vn 0.8980 -0.4039 0.1747
vn 0.6402 -0.7417 -0.2001
vn 0.9659 0.2485 -0.0723
vn -0.3323 0.3411 0.8793
vn -0.4269 0.3172 0.8468
vn -0.5170 0.3941 0.7598
vn 0.4841 -0.0649 -0.8726
vn 0.4151 0.1026 -0.9040
s 1
f 1//1 11//2 2//3
f 1//1 2//3 3//4
f 1//1 3//4 4//5
f 1//1 4//5 5//6
f 1//1 5//6 6//7
f 1//1 6//7 7//8
f 1//1 7//8 8//9
f 1//1 8//9 9//10
f 1//1 9//10 10//11
f 1//1 10//11 11//2
f 2//3 11//2 13//12
f 10//11 12//13 11//2
f 11//2 12//13 13//12
f 2//3 13//12 12//13
f 2//3 12//13 3//4
f 3//4 12//13 18//14
f 10//11 14//15 12//13
f 12//13 14//15 15//16
f 12//13 15//16 16//17
f 12//13 16//17 17//18
f 12//13 17//18 18//14
f 3//4 18//14 17//18
f 3//4 17//18 21//19
f 17//18 15//16 19//20
f 17//18 19//20 20//21
f 17//18 20//21 21//19
f 17//18 16//17 15//16
f 3//4 21//19 20//21
f 3//4 20//21 4//5
f 4//5 20//21 23//22
f 20//21 27//23 22//24
f 20//21 22//24 23//22
f 20//21 19//20 24//25
f 20//21 24//25 25//26
f 20//21 25//26 26//27
f 20//21 26//27 27//23
f 22//24 27//23 30//28
f 26//27 28//29 27//23
f 27//23 28//29 29//30
f 27//23 29//30 30//28
f 22//24 30//28 29//30
f 31//31 29//30 34//32
f 31//31 33//33 29//30
f 32//34 29//30 33//33
f 32//34 22//24 29//30
f 29//30 28//29 34//32
f 31//31 34//32 37//35
f 34//32 42//36 35//37
f 34//32 35//37 36//38
f 34//32 36//38 37//35
f 34//32 28//29 38//39
f 34//32 38//39 39//40
f 34//32 39//40 40//41
f 34//32 40//41 41//42
f 34//32 41//42 42//36
f 35//37 42//36 44//43
f 41//42 43//44 42//36
f 42//36 43//44 44//43
f 35//37 44//43 45//45
f 45//45 44//43 47//46
f 44//43 43//44 46//47
f 44//43 46//47 47//46
f 45//45 47//46 48//48
f 48//48 47//46 50//49
f 47//46 46//47 49//50
f 47//46 49//50 50//49
f 48//48 50//49 51//51
f 51//51 50//49 52//52
f 52//52 50//49 53//53
f 50//49 49//50 53//53
f 52//52 53//53 54//54
f 54//54 53//53 57//55
f 53//53 49//50 55//56
f 53//53 55//56 56//57
f 53//53 56//57 57//55
f 54//54 57//55 58//58
f 58//58 57//55 60//59
f 57//55 56//57 59//60
f 57//55 59//60 60//59
f 58//58 60//59 61//61
f 61//61 60//59 64//62
f 60//59 59//60 62//63
f 60//59 62//63 63//64
f 60//59 63//64 64//62
f 61//61 64//62 65//65
f 65//65 64//62 66//66
f 64//62 63//64 66//66
f 65//65 66//66 67//67
f 67//67 66//66 69//68
f 66//66 63//64 68//69
f 66//66 68//69 69//68
f 67//67 69//68 70//70
f 70//70 69//68 71//71
f 69//68 68//69 71//71
f 72//72 71//71 73//73
f 72//72 70//70 71//71
f 73//73 71//71 68//69
f 72//72 73//73 75//74
f 73//73 68//69 74//75
f 73//73 74//75 75//74
f 72//72 75//74 79//76
f 75//74 74//75 76//77
f 75//74 76//77 77//78
f 75//74 77//78 78//79
f 75//74 78//79 79//76
f 72//72 79//76 80//80
f 80//80 79//76 81//81
f 79//76 78//79 81//81
f 80//80 81//81 78//79
f 82//82 80//80 83//83
f 82//82 72//72 80//80
f 83//83 80//80 85//84
f 80//80 78//79 84//85
f 80//80 84//85 85//84
f 83//83 85//84 86//86
f 86//86 85//84 87//87
f 87//87 85//84 89//88
f 85//84 84//85 88//89
f 85//84 88//89 89//88
f 87//87 89//88 88//89
f 87//87 88//89 43//44
f 43//44 88//89 49//50
f 88//89 84//85 78//79
f 88//89 78//79 77//78
f 88//89 77//78 49//50
f 40//41 87//87 43//44
f 40//41 86//86 87//87
f 39//40 86//86 40//41
f 39//40 83//83 86//86
f 38//39 83//83 39//40
f 38//39 82//82 83//83
f 38//39 90//90 82//82
f 90//90 91//91 82//82
f 82//82 91//91 92//92
f 82//82 92//92 93//93
f 82//82 93//93 94//94
f 82//82 94//94 95//95
f 82//82 95//95 72//72
f 94//94 72//72 95//95
f 67//67 94//94 96//96
f 67//67 70//70 94//94
f 96//96 94//94 93//93
f 94//94 70//70 72//72
f 97//97 96//96 98//98
f 97//97 67//67 96//96
f 98//98 96//96 99//99
f 96//96 93//93 99//99
f 98//98 99//99 100//100
f 100//100 99//99 101//101
f 99//99 93//93 92//92
f 99//99 92//92 101//101
f 100//100 101//101 102//102
f 102//102 101//101 91//91
f 101//101 92//92 91//91
f 103//103 102//102 104//104
f 103//103 100//100 102//102
f 104//104 102//102 105//105
f 102//102 91//91 105//105
f 104//104 105//105 106//106
f 106//106 105//105 109//107
f 105//105 91//91 107//108
f 105//105 107//108 108//109
f 105//105 108//109 109//107
f 106//106 109//107 110//110
f 110//110 109//107 111//111
f 109//107 108//109 90//90
f 109//107 90//90 111//111
f 110//110 111//111 90//90
f 15//16 110//110 113//112
f 15//16 106//106 110//110
f 110//110 90//90 112//113
f 110//110 112//113 113//112
f 15//16 113//112 114//114
f 113//112 112//113 114//114
f 15//16 114//114 25//26
f 25//26 114//114 112//113
f 25//26 112//113 116//115
f 112//113 90//90 115//116
f 112//113 115//116 116//115
f 25//26 116//115 26//27
f 26//27 116//115 115//116
f 26//27 115//116 117//117
f 115//116 90//90 38//39
f 115//116 38//39 117//117
f 26//27 117//117 28//29
f 117//117 38//39 28//29
f 90//90 108//109 107//108
f 90//90 107//108 91//91
f 15//16 118//118 106//106
f 104//104 106//106 118//118
f 119//119 118//118 14//15
f 119//119 104//104 118//118
f 14//15 118//118 120//120
f 15//16 120//120 118//118
f 14//15 120//120 15//16
f 8//9 119//119 9//10
f 8//9 121//121 119//119
f 9//10 119//119 14//15
f 121//121 122//122 119//119
f 119//119 122//122 123//123
f 119//119 123//123 124//124
f 119//119 124//124 103//103
f 119//119 103//103 104//104
f 123//123 125//125 124//124
f 124//124 125//125 97//97
f 124//124 97//97 98//98
f 124//124 98//98 103//103
f 123//123 126//126 125//125
f 126//126 97//97 125//125
f 123//123 128//127 126//126
f 127//128 126//126 128//127
f 127//128 61//61 126//126
f 126//126 61//61 65//65
f 126//126 65//65 97//97
f 122//122 128//127 123//123
f 122//122 127//128 128//127
f 129//129 127//128 131//130
f 129//129 130//131 127//128
f 122//122 131//130 127//128
f 130//131 58//58 127//128
f 127//128 58//58 61//61
f 129//129 131//130 132//132
f 132//132 131//130 122//122
f 133//133 129//129 132//132
f 133//133 132//132 134//134
f 134//134 132//132 121//121
f 121//121 132//132 122//122
f 8//9 134//134 135//135
f 8//9 133//133 134//134
f 134//134 121//121 135//135
f 8//9 135//135 121//121
f 8//9 136//136 133//133
f 136//136 129//129 133//133
f 8//9 137//137 136//136
f 137//137 138//138 136//136
f 136//136 138//138 139//139
f 136//136 139//139 140//140
f 136//136 140//140 129//129
f 141//141 140//140 142//142
f 141//141 143//143 140//140
f 142//142 140//140 138//138
f 129//129 140//140 143//143
f 140//140 139//139 138//138
f 144//144 143//143 141//141
f 144//144 129//129 143//143
f 6//7 144//144 141//141
f 6//7 145//145 144//144
f 145//145 146//146 144//144
f 144//144 146//146 147//147
f 144//144 147//147 129//129
f 146//146 129//129 147//147
f 31//31 146//146 149//148
f 31//31 148//149 146//146
f 145//145 149//148 146//146
f 148//149 129//129 146//146
f 31//31 149//148 150//150
f 150//150 149//148 145//145
s 0
f 4//151 150//151 151//151
s 1
f 4//5 31//31 150//150
f 150//150 145//145 151//152
f 4//5 151//152 5//6
f 5//6 151//152 152//153
f 151//152 145//145 152//153
f 5//6 152//153 153//154
f 6//7 152//153 145//145
f 6//7 153//154 152//153
f 5//6 153//154 6//7
f 31//31 154//155 148//149
f 148//149 158//156 129//129
f 148//149 154//155 155//157
f 148//149 155//157 156//158
f 148//149 156//158 157//159
f 148//149 157//159 158//156
f 129//129 158//156 159//160
f 157//159 159//160 158//156
f 129//129 159//160 130//131
f 156//158 159//160 157//159
f 156//158 58//58 159//160
f 159//160 58//58 130//131
f 155//157 54//54 156//158
f 156//158 54//54 58//58
f 160//161 155//157 161//162
f 160//161 52//52 155//157
f 154//155 161//162 155//157
f 155//157 52//52 54//54
f 160//161 161//162 154//155
f 31//31 160//161 163//163
f 31//31 162//164 160//161
f 37//35 160//161 162//164
f 37//35 45//45 160//161
s 0
f 160//165 154//165 163//165
s 1
f 160//161 45//45 48//48
f 160//161 48//48 51//51
f 160//161 51//51 52//52
f 31//31 163//163 154//155
f 31//31 37//35 162//164
f 6//7 142//142 164//166
f 6//7 141//141 142//142
f 142//142 138//138 164//166
f 6//7 164//166 166//167
f 164//166 138//138 165//168
f 164//166 165//168 166//167
f 6//7 166//167 7//8
f 7//8 166//167 165//168
f 7//8 165//168 8//9
f 8//9 165//168 137//137
f 165//168 138//138 137//137
f 103//103 98//98 100//100
f 97//97 65//65 67//67
f 49//50 77//78 167//169
f 55//56 77//78 76//77
f 55//56 167//169 77//78
f 49//50 167//169 55//56
f 55//56 76//77 168//170
f 76//77 74//75 168//170
f 55//56 168//170 59//60
f 59//60 168//170 62//63
f 62//63 168//170 74//75
f 62//63 74//75 68//69
f 62//63 68//69 63//64
f 55//56 59//60 56//57
f 43//44 49//50 46//47
f 37//35 36//38 45//45
f 35//37 45//45 36//38
f 40//41 43//44 41//42
f 31//31 32//34 33//33
f 4//5 32//34 31//31
f 4//5 23//22 32//34
f 23//22 22//24 32//34
f 15//16 25//26 19//20
f 19//20 25//26 24//25
f 9//10 14//15 10//11
