# Blender 4.1.1
# www.blender.org
o Stone.040
v 0.029296 -0.026122 0.155606
v 0.010672 -0.025303 0.145049
v 0.027466 -0.030089 0.151136
v 0.113236 -0.073448 0.058823
v 0.082538 -0.037947 0.115715
v 0.116310 -0.027712 0.099185
v 0.033396 -0.022907 0.153874
v 0.024161 0.075149 0.107214
v -0.044813 0.002731 0.115288
v -0.034725 -0.007466 0.123271
v -0.026814 -0.012222 0.127380
v -0.053920 -0.023828 0.105488
v -0.008185 -0.021427 0.135290
v -0.051372 -0.001600 0.112461
v -0.065508 -0.023847 0.095819
v -0.054585 -0.026806 0.099508
v 0.002906 -0.055486 0.093290
v 0.019738 -0.031336 0.144974
v -0.000371 -0.059397 0.080285
v 0.103956 -0.073722 0.059493
v 0.030344 -0.034532 0.141807
v 0.016343 -0.068868 0.025244
v 0.097619 -0.072281 0.050824
v -0.001554 -0.062829 0.068481
v -0.005604 -0.065345 0.058323
v -0.003733 -0.067595 0.048887
v 0.007385 -0.069244 0.029521
v -0.035256 -0.053534 -0.002603
v 0.009242 -0.056515 -0.033624
v 0.011690 -0.067119 0.017733
v 0.126217 -0.047914 -0.031571
v 0.075952 -0.061083 -0.012559
v 0.075501 -0.058352 -0.018899
v 0.004473 -0.053272 -0.040768
v 0.013100 -0.018877 -0.097034
v 0.021587 -0.022696 -0.092044
v 0.037857 -0.026645 -0.086723
v -0.042287 -0.049588 -0.008555
v -0.040592 -0.046313 -0.017958
v -0.018932 -0.036013 -0.059723
v -0.009214 -0.021108 -0.087235
v -0.001678 -0.019442 -0.092432
v -0.011476 -0.015456 -0.095442
v 0.004326 -0.016996 -0.097512
v 0.022930 -0.018355 -0.098914
v -0.004812 -0.012713 -0.098893
v 0.012377 -0.013140 -0.101023
v 0.018605 -0.011236 -0.101716
v -0.013528 -0.007996 -0.098645
v 0.001263 0.007130 -0.101105
v 0.009892 0.003065 -0.101299
v 0.012171 0.009238 -0.098480
v -0.006965 0.011658 -0.100046
v -0.011490 0.025831 -0.088617
v -0.015529 0.008713 -0.097838
v -0.012145 0.015326 -0.097501
v -0.016086 0.020379 -0.094030
v -0.018473 0.031194 -0.084471
v -0.017937 0.016356 -0.094881
v -0.022548 0.025785 -0.088629
v -0.025801 0.035797 -0.078608
v -0.026771 0.019726 -0.088646
v -0.031016 0.025916 -0.083217
v -0.028700 0.031451 -0.081851
v -0.035545 0.035619 -0.074154
v -0.038619 0.028993 -0.075801
v -0.048734 0.028293 -0.066544
v -0.036307 0.020190 -0.081661
v -0.043115 0.023992 -0.074287
v -0.051279 0.020781 -0.067263
v -0.044943 0.018073 -0.074782
v -0.046871 0.012040 -0.074306
v -0.039319 0.012684 -0.081344
v -0.030791 0.013789 -0.087794
v -0.034413 0.006028 -0.086385
v -0.025893 0.008057 -0.092229
v -0.025113 0.003017 -0.093223
v -0.030243 -0.001667 -0.089676
v -0.042509 0.005681 -0.078789
v -0.043178 -0.014704 -0.074759
v -0.037890 -0.001049 -0.082372
v -0.049446 -0.014217 -0.066208
v -0.042952 -0.019865 -0.070049
v -0.028496 -0.012276 -0.089148
v -0.035635 -0.018870 -0.078126
v -0.034268 -0.023358 -0.071787
v -0.019105 -0.017731 -0.088905
v -0.020633 -0.011513 -0.094633
v -0.028164 -0.017252 -0.084239
v -0.081501 -0.018418 0.046496
v -0.085405 0.000983 0.016678
v -0.076509 0.021654 -0.020030
v -0.063067 0.023768 -0.050331
v -0.057855 0.021331 -0.059069
v -0.052568 0.014553 -0.066056
v -0.055578 0.027288 -0.058320
v -0.043600 0.033584 -0.066586
v -0.085852 0.029895 0.027861
v -0.079503 0.023337 -0.011132
v -0.087718 0.024966 0.027047
v -0.084724 0.006646 0.012075
v -0.089720 0.023972 0.036991
v -0.087468 0.030060 0.036353
v -0.086274 0.003130 0.064702
v -0.089595 0.005154 0.054858
v -0.084789 -0.003184 0.069556
v -0.083690 -0.012835 0.045380
v -0.085553 -0.007969 0.051902
v -0.087564 -0.002369 0.059347
v -0.073151 -0.022410 0.080502
v -0.083423 -0.008785 0.063998
v -0.070292 -0.026649 0.076829
v -0.068930 -0.024596 0.087686
v -0.063386 -0.029388 0.081817
v -0.063171 -0.035133 0.046661
v -0.056516 -0.038123 0.051946
v -0.055567 -0.039917 0.040940
v -0.080024 -0.002068 0.077803
v -0.025133 0.062928 0.094410
v -0.070002 -0.005883 0.091269
v 0.014472 0.085631 0.072887
v 0.011448 0.087235 0.063713
v 0.005310 0.084885 0.056807
v -0.082612 0.033646 0.034130
v -0.036146 0.038370 -0.063872
v -0.029202 0.040498 -0.069937
v 0.034962 0.072295 0.034996
v 0.011463 0.084155 0.052912
v 0.105884 0.037545 0.013566
v 0.040877 0.068122 0.030055
v 0.018329 0.084044 0.060642
v 0.035679 0.078869 0.078996
v 0.045647 0.075173 0.086347
v 0.036387 0.077911 0.087698
v 0.025391 0.077392 0.099366
v 0.054229 0.070767 0.089265
v 0.030739 0.071653 0.106593
v 0.062976 0.048694 0.105405
v 0.061881 0.064614 0.088129
v 0.090738 0.046155 0.076172
v 0.105832 0.026459 0.073843
v 0.069162 0.044200 0.102489
v 0.117375 0.027221 0.050721
v 0.121681 0.022823 0.047869
v 0.128134 -0.052424 0.067060
v 0.126156 0.010024 -0.005382
v 0.125009 0.013201 0.001191
v 0.119071 -0.004084 -0.054273
v 0.126713 -0.048525 -0.021290
v 0.125288 -0.061536 0.024161
v 0.122989 -0.063258 0.063626
v 0.124762 -0.057293 0.068413
v 0.100686 -0.044275 0.097062
v 0.108634 -0.010952 -0.070867
v 0.023228 0.008566 -0.095423
v 0.015946 0.014298 -0.091134
v 0.017021 0.019042 -0.082869
v 0.022066 0.020223 -0.077410
v -0.007414 0.028670 -0.082377
v 0.098711 -0.015472 -0.081762
v 0.089913 -0.010296 -0.080996
v 0.117900 -0.045603 -0.037236
v 0.104563 -0.014917 -0.076873
v 0.063432 0.042051 0.108726
v 0.047730 0.021500 0.128355
v 0.049775 0.016104 0.130021
v -0.019587 0.002764 -0.096041
v -0.021885 0.013857 -0.093436
vn -0.0143 -0.2349 0.9719
vn -0.4888 -0.1467 0.8600
vn -0.4608 -0.4541 0.7626
vn -0.1135 -0.7756 0.6210
vn 0.2041 -0.9482 0.2435
vn 0.4183 -0.5717 0.7058
vn 0.7629 -0.0566 0.6440
vn 0.3606 0.1506 0.9205
vn 0.0060 0.7453 0.6666
vn -0.4714 0.3461 0.8112
vn -0.4769 0.0663 0.8765
vn -0.4878 -0.3363 0.8056
vn -0.5197 -0.5295 0.6705
vn -0.3378 -0.7557 0.5612
vn -0.6537 0.1518 0.7414
vn -0.6704 -0.5050 0.5436
vn -0.3664 -0.8214 0.4370
vn -0.2127 -0.8926 0.3976
vn -0.0225 -0.9064 0.4217
vn -0.2344 -0.9176 0.3210
vn 0.0200 -0.9870 0.1594
vn 0.0158 -0.9841 -0.1770
vn -0.1375 -0.9867 -0.0868
vn -0.0177 -0.9863 -0.1641
vn -0.1033 -0.9538 0.2823
vn -0.2929 -0.9303 0.2207
vn -0.2651 -0.9602 0.0875
vn -0.0536 -0.9786 -0.1989
vn -0.3657 -0.9238 -0.1132
vn -0.0673 -0.9457 -0.3181
vn 0.7258 -0.5806 -0.3689
vn -0.1374 -0.9002 -0.4133
vn 0.0747 -0.9057 -0.4172
vn 0.0703 -0.9558 -0.2857
vn 0.0960 -0.8037 -0.5873
vn -0.1553 -0.8248 -0.5437
vn -0.1017 -0.7707 -0.6291
vn -0.0486 -0.8456 -0.5316
vn -0.5591 -0.8007 -0.2151
vn -0.4296 -0.8235 -0.3705
vn -0.2852 -0.8422 -0.4575
vn -0.1859 -0.8325 -0.5219
vn -0.1346 -0.6826 -0.7183
vn -0.2402 -0.6614 -0.7105
vn 0.0747 -0.5812 -0.8103
vn -0.0905 -0.3111 -0.9461
vn -0.1616 -0.3990 -0.9026
vn 0.1081 -0.0905 -0.9900
vn 0.0108 0.1957 -0.9806
vn -0.2860 -0.1892 -0.9394
vn 0.1244 0.1920 -0.9735
vn 0.2186 0.5279 -0.8207
vn -0.0589 0.3411 -0.9382
vn 0.1879 0.7273 -0.6601
vn -0.1482 0.5296 -0.8352
vn -0.3673 0.1052 -0.9241
vn -0.1930 0.3991 -0.8964
vn 0.0827 0.7857 -0.6130
vn -0.3079 0.5161 -0.7993
vn -0.4094 0.2841 -0.8670
vn -0.0456 0.8219 -0.5678
vn -0.3810 0.5596 -0.7360
vn -0.5124 0.2946 -0.8066
vn -0.5380 0.3605 -0.7619
vn -0.4839 0.6866 -0.5426
vn -0.5973 0.3952 -0.6979
vn -0.6775 0.4611 -0.5730
vn -0.6483 0.3110 -0.6949
vn -0.5996 0.2737 -0.7520
vn -0.7370 0.2186 -0.6395
vn -0.6803 0.2169 -0.7001
vn -0.7615 0.0328 -0.6474
vn -0.6520 0.1400 -0.7452
vn -0.6373 0.0416 -0.7695
vn -0.5696 0.1970 -0.7980
vn -0.7242 -0.0448 -0.6881
vn -0.5306 0.1244 -0.8384
vn -0.5150 0.0155 -0.8570
vn -0.6128 -0.0748 -0.7867
vn -0.7052 -0.3345 -0.6251
vn -0.6961 -0.1117 -0.7092
vn -0.8231 -0.3668 -0.4336
vn -0.5935 -0.6699 -0.4461
vn -0.4462 -0.6754 -0.5871
vn -0.5407 -0.3981 -0.7410
vn -0.3505 -0.8152 -0.4611
vn -0.2879 -0.7631 -0.5786
vn -0.3692 -0.6805 -0.6329
vn -0.4338 -0.3895 -0.8124
vn -0.8250 -0.5642 -0.0331
vn -0.9315 -0.2919 -0.2170
vn -0.9272 0.0634 -0.3692
vn -0.8497 0.3343 -0.4078
vn -0.8209 0.1256 -0.5571
vn -0.8324 -0.0854 -0.5476
vn -0.6863 0.5967 -0.4159
vn -0.5665 0.7463 -0.3495
vn -0.7579 0.6207 -0.2009
vn -0.8775 0.3827 -0.2889
vn -0.9601 0.1964 -0.1992
vn -0.9672 -0.0637 -0.2458
vn -0.9786 0.1954 0.0639
vn -0.8065 0.5790 0.1195
vn -0.8606 0.2681 0.4330
vn -0.9873 0.0257 0.1570
vn -0.9189 -0.1374 0.3697
vn -0.9494 -0.2817 0.1387
vn -0.9366 -0.3438 -0.0674
vn -0.9444 -0.3286 -0.0157
vn -0.8273 -0.4915 0.2721
vn -0.8783 -0.4447 0.1755
vn -0.6928 -0.6429 0.3265
vn -0.6316 -0.7606 0.1505
vn -0.4572 -0.8595 0.2285
vn -0.4822 -0.8674 0.1229
vn -0.5895 -0.8069 0.0383
vn -0.4949 -0.8670 0.0576
vn -0.8143 0.1707 0.5548
vn -0.5033 0.6877 0.5232
vn -0.7784 0.0703 0.6238
vn -0.0382 0.9752 0.2182
vn -0.0503 0.9987 0.0003
vn -0.3161 0.9418 -0.1148
vn -0.5481 0.8346 -0.0539
vn -0.4597 0.8649 -0.2016
vn -0.1538 0.9148 -0.3736
vn 0.0954 0.9478 -0.3042
vn 0.2972 0.9085 -0.2938
vn 0.5442 0.8092 -0.2214
vn 0.3693 0.9164 -0.1543
vn 0.2978 0.8701 -0.3928
vn 0.3520 0.9357 -0.0235
vn 0.3838 0.9164 0.1138
vn 0.2756 0.9389 0.2061
vn 0.1651 0.9455 0.2807
vn 0.5064 0.8094 0.2974
vn 0.3979 0.5964 0.6972
vn 0.5211 0.5179 0.6784
vn 0.5974 0.6437 0.4782
vn 0.6624 0.6753 0.3244
vn 0.7464 0.4461 0.4939
vn 0.6393 0.4423 0.6290
vn 0.7258 0.6598 0.1947
vn 0.8896 0.4312 0.1504
vn 0.9442 -0.2063 0.2567
vn 0.9108 0.3829 -0.1545
vn 0.8449 0.5270 -0.0914
vn 0.9870 -0.1536 -0.0484
vn 0.7696 0.4324 -0.4698
vn 0.7387 -0.6597 -0.1385
vn 0.7196 -0.6943 0.0116
vn 0.6748 -0.6102 0.4150
vn 0.6622 -0.5376 0.5220
vn 0.4925 -0.5579 0.6680
vn 0.6967 0.3766 -0.6105
vn 0.3167 0.8289 -0.4611
vn 0.3005 0.5975 -0.7434
vn 0.2974 0.7902 -0.5358
vn 0.3159 0.8134 -0.4884
vn 0.2883 0.8280 -0.4810
vn 0.4343 -0.0981 -0.8954
vn 0.3376 0.7074 -0.6209
vn 0.6874 -0.3901 -0.6127
vn 0.1687 -0.8004 -0.5752
vn 0.5270 0.4998 -0.6873
vn 0.5306 0.3897 0.7528
vn 0.4557 0.3480 0.8193
vn 0.3308 0.4312 0.8394
vn -0.4377 -0.0016 -0.8991
vn -0.4861 0.2132 -0.8475
s 1
f 1//1 11//2 2//3
f 1//1 2//3 3//4
f 1//1 3//4 4//5
f 1//1 4//5 5//6
f 1//1 5//6 6//7
f 1//1 6//7 7//8
f 1//1 7//8 8//9
f 1//1 8//9 9//10
f 1//1 9//10 10//11
f 1//1 10//11 11//2
f 2//3 11//2 13//12
f 10//11 12//13 11//2
f 11//2 12//13 13//12
f 2//3 13//12 12//13
f 2//3 12//13 3//4
f 3//4 12//13 18//14
f 10//11 14//15 12//13
f 12//13 14//15 15//16
f 12//13 15//16 16//17
f 12//13 16//17 17//18
f 12//13 17//18 18//14
f 3//4 18//14 17//18
f 3//4 17//18 21//19
f 17//18 15//16 19//20
f 17//18 19//20 20//21
f 17//18 20//21 21//19
f 17//18 16//17 15//16
f 3//4 21//19 20//21
f 3//4 20//21 4//5
f 4//5 20//21 23//22
f 20//21 27//23 22//24
f 20//21 22//24 23//22
f 20//21 19//20 24//25
f 20//21 24//25 25//26
f 20//21 25//26 26//27
f 20//21 26//27 27//23
f 22//24 27//23 30//28
f 26//27 28//29 27//23
f 27//23 28//29 29//30
f 27//23 29//30 30//28
f 22//24 30//28 29//30
f 31//31 29//30 34//32
f 31//31 33//33 29//30
f 32//34 29//30 33//33
f 32//34 22//24 29//30
f 29//30 28//29 34//32
f 31//31 34//32 37//35
f 34//32 42//36 35//37
f 34//32 35//37 36//38
f 34//32 36//38 37//35
f 34//32 28//29 38//39
f 34//32 38//39 39//40
f 34//32 39//40 40//41
f 34//32 40//41 41//42
f 34//32 41//42 42//36
f 35//37 42//36 44//43
f 41//42 43//44 42//36
f 42//36 43//44 44//43
f 35//37 44//43 45//45
f 45//45 44//43 47//46
f 44//43 43//44 46//47
f 44//43 46//47 47//46
f 45//45 47//46 48//48
f 48//48 47//46 50//49
f 47//46 46//47 49//50
f 47//46 49//50 50//49
f 48//48 50//49 51//51
f 51//51 50//49 52//52
f 52//52 50//49 53//53
f 50//49 49//50 53//53
f 52//52 53//53 54//54
f 54//54 53//53 57//55
f 53//53 49//50 55//56
f 53//53 55//56 56//57
f 53//53 56//57 57//55
f 54//54 57//55 58//58
f 58//58 57//55 60//59
f 57//55 56//57 59//60
f 57//55 59//60 60//59
f 58//58 60//59 61//61
f 61//61 60//59 64//62
f 60//59 59//60 62//63
f 60//59 62//63 63//64
f 60//59 63//64 64//62
f 61//61 64//62 65//65
f 65//65 64//62 66//66
f 64//62 63//64 66//66
f 65//65 66//66 67//67
f 67//67 66//66 69//68
f 66//66 63//64 68//69
f 66//66 68//69 69//68
f 67//67 69//68 70//70
f 70//70 69//68 71//71
f 69//68 68//69 71//71
f 72//72 71//71 73//73
f 72//72 70//70 71//71
f 73//73 71//71 68//69
f 72//72 73//73 75//74
f 73//73 68//69 74//75
f 73//73 74//75 75//74
f 72//72 75//74 79//76
f 75//74 74//75 76//77
f 75//74 76//77 77//78
f 75//74 77//78 78//79
f 75//74 78//79 79//76
f 72//72 79//76 80//80
f 80//80 79//76 81//81
f 79//76 78//79 81//81
f 80//80 81//81 78//79
f 82//82 80//80 83//83
f 82//82 72//72 80//80
f 83//83 80//80 85//84
f 80//80 78//79 84//85
f 80//80 84//85 85//84
f 83//83 85//84 86//86
f 86//86 85//84 87//87
f 87//87 85//84 89//88
f 85//84 84//85 88//89
f 85//84 88//89 89//88
f 87//87 89//88 88//89
f 87//87 88//89 43//44
f 43//44 88//89 49//50
f 88//89 84//85 78//79
f 88//89 78//79 77//78
f 88//89 77//78 49//50
f 40//41 87//87 43//44
f 40//41 86//86 87//87
f 39//40 86//86 40//41
f 39//40 83//83 86//86
f 38//39 83//83 39//40
f 38//39 82//82 83//83
f 38//39 90//90 82//82
f 90//90 91//91 82//82
f 82//82 91//91 92//92
f 82//82 92//92 93//93
f 82//82 93//93 94//94
f 82//82 94//94 95//95
f 82//82 95//95 72//72
f 94//94 72//72 95//95
f 67//67 94//94 96//96
f 67//67 70//70 94//94
f 96//96 94//94 93//93
f 94//94 70//70 72//72
f 97//97 96//96 98//98
f 97//97 67//67 96//96
f 98//98 96//96 99//99
f 96//96 93//93 99//99
f 98//98 99//99 100//100
f 100//100 99//99 101//101
f 99//99 93//93 92//92
f 99//99 92//92 101//101
f 100//100 101//101 102//102
f 102//102 101//101 91//91
f 101//101 92//92 91//91
f 103//103 102//102 104//104
f 103//103 100//100 102//102
f 104//104 102//102 105//105
f 102//102 91//91 105//105
f 104//104 105//105 106//106
f 106//106 105//105 109//107
f 105//105 91//91 107//108
f 105//105 107//108 108//109
f 105//105 108//109 109//107
f 106//106 109//107 110//110
f 110//110 109//107 111//111
f 109//107 108//109 90//90
f 109//107 90//90 111//111
f 110//110 111//111 90//90
f 15//16 110//110 113//112
f 15//16 106//106 110//110
f 110//110 90//90 112//113
f 110//110 112//113 113//112
f 15//16 113//112 114//114
f 113//112 112//113 114//114
f 15//16 114//114 25//26
f 25//26 114//114 112//113
f 25//26 112//113 116//115
f 112//113 90//90 115//116
f 112//113 115//116 116//115
f 25//26 116//115 26//27
f 26//27 116//115 115//116
f 26//27 115//116 117//117
f 115//116 90//90 38//39
f 115//116 38//39 117//117
f 26//27 117//117 28//29
f 117//117 38//39 28//29
f 90//90 108//109 107//108
f 90//90 107//108 91//91
f 15//16 118//118 106//106
f 104//104 106//106 118//118
f 119//119 118//118 14//15
f 119//119 104//104 118//118
f 14//15 118//118 120//120
f 15//16 120//120 118//118
f 14//15 120//120 15//16
f 8//9 119//119 9//10
f 8//9 121//121 119//119
f 9//10 119//119 14//15
f 121//121 122//122 119//119
f 119//119 122//122 123//123
f 119//119 123//123 124//124
f 119//119 124//124 103//103
f 119//119 103//103 104//104
f 123//123 125//125 124//124
f 124//124 125//125 97//97
f 124//124 97//97 98//98
f 124//124 98//98 103//103
f 123//123 126//126 125//125
f 126//126 97//97 125//125
f 123//123 128//127 126//126
f 127//128 126//126 128//127
f 127//128 61//61 126//126
f 126//126 61//61 65//65
f 126//126 65//65 97//97
f 122//122 128//127 123//123
f 122//122 127//128 128//127
f 129//129 127//128 131//130
f 129//129 130//131 127//128
f 122//122 131//130 127//128
f 130//131 58//58 127//128
f 127//128 58//58 61//61
f 129//129 131//130 132//132
f 132//132 131//130 122//122
f 133//133 129//129 132//132
f 133//133 132//132 134//134
f 134//134 132//132 121//121
f 121//121 132//132 122//122
f 8//9 134//134 135//135
f 8//9 133//133 134//134
f 134//134 121//121 135//135
f 8//9 135//135 121//121
f 8//9 136//136 133//133
f 136//136 129//129 133//133
f 8//9 137//137 136//136
f 137//137 138//138 136//136
f 136//136 138//138 139//139
f 136//136 139//139 140//140
f 136//136 140//140 129//129
f 141//141 140//140 142//142
f 141//141 143//143 140//140
f 142//142 140//140 138//138
f 129//129 140//140 143//143
f 140//140 139//139 138//138
f 144//144 143//143 141//141
f 144//144 129//129 143//143
f 6//7 144//144 141//141
f 6//7 145//145 144//144
f 145//145 146//146 144//144
f 144//144 146//146 147//147
f 144//144 147//147 129//129
f 146//146 129//129 147//147
f 31//31 146//146 149//148
f 31//31 148//149 146//146
f 145//145 149//148 146//146
f 148//149 129//129 146//146
f 31//31 149//148 150//150
f 150//150 149//148 145//145
s 0
f 4//151 150//151 151//151
s 1
f 4//5 31//31 150//150
f 150//150 145//145 151//152
f 4//5 151//152 5//6
f 5//6 151//152 152//153
f 151//152 145//145 152//153
f 5//6 152//153 153//154
f 6//7 152//153 145//145
f 6//7 153//154 152//153
f 5//6 153//154 6//7
f 31//31 154//155 148//149
f 148//149 158//156 129//129
f 148//149 154//155 155//157
f 148//149 155//157 156//158
f 148//149 156//158 157//159
f 148//149 157//159 158//156
f 129//129 158//156 159//160
f 157//159 159//160 158//156
f 129//129 159//160 130//131
f 156//158 159//160 157//159
f 156//158 58//58 159//160
f 159//160 58//58 130//131
f 155//157 54//54 156//158
f 156//158 54//54 58//58
f 160//161 155//157 161//162
f 160//161 52//52 155//157
f 154//155 161//162 155//157
f 155//157 52//52 54//54
f 160//161 161//162 154//155
f 31//31 160//161 163//163
f 31//31 162//164 160//161
f 37//35 160//161 162//164
f 37//35 45//45 160//161
s 0
f 160//165 154//165 163//165
s 1
f 160//161 45//45 48//48
f 160//161 48//48 51//51
f 160//161 51//51 52//52
f 31//31 163//163 154//155
f 31//31 37//35 162//164
f 6//7 142//142 164//166
f 6//7 141//141 142//142
f 142//142 138//138 164//166
f 6//7 164//166 166//167
f 164//166 138//138 165//168
f 164//166 165//168 166//167
f 6//7 166//167 7//8
f 7//8 166//167 165//168
f 7//8 165//168 8//9
f 8//9 165//168 137//137
f 165//168 138//138 137//137
f 103//103 98//98 100//100
f 97//97 65//65 67//67
f 49//50 77//78 167//169
f 55//56 77//78 76//77
f 55//56 167//169 77//78
f 49//50 167//169 55//56
f 55//56 76//77 168//170
f 76//77 74//75 168//170
f 55//56 168//170 59//60
f 59//60 168//170 62//63
f 62//63 168//170 74//75
f 62//63 74//75 68//69
f 62//63 68//69 63//64
f 55//56 59//60 56//57
f 43//44 49//50 46//47
f 37//35 36//38 45//45
f 35//37 45//45 36//38
f 40//41 43//44 41//42
f 31//31 32//34 33//33
f 4//5 32//34 31//31
f 4//5 23//22 32//34
f 23//22 22//24 32//34
f 15//16 25//26 19//20
f 19//20 25//26 24//25
f 9//10 14//15 10//11
