# Blender 4.1.1
# www.blender.org
o Stone.026
v 0.069169 -0.042291 -0.053774
v 0.067063 -0.044386 -0.043982
v 0.065838 -0.043654 -0.052417
v -0.012046 -0.019508 -0.066294
v 0.034921 -0.024098 -0.065037
v 0.023558 -0.005981 -0.072313
v 0.068570 -0.039192 -0.054494
v 0.076900 0.017557 -0.027500
v 0.069911 -0.038498 -0.012202
v 0.069121 -0.042684 -0.019241
v 0.068399 -0.043863 -0.023828
v 0.057754 -0.051611 -0.009429
v 0.066404 -0.045238 -0.033942
v 0.068158 -0.041712 -0.009528
v 0.054626 -0.052428 -0.002608
v 0.053736 -0.051811 -0.008008
v 0.031220 -0.048822 -0.031449
v 0.063508 -0.044872 -0.048088
v 0.023624 -0.048496 -0.027366
v -0.010164 -0.022312 -0.063007
v 0.058954 -0.042808 -0.051649
v -0.011563 -0.035382 -0.020748
v -0.013204 -0.021234 -0.058243
v 0.016457 -0.047659 -0.024319
v 0.010957 -0.047544 -0.020506
v 0.004896 -0.045870 -0.019071
v -0.007855 -0.039016 -0.018513
v -0.012456 -0.035124 0.007576
v -0.037630 -0.017096 -0.001609
v -0.014182 -0.033977 -0.016876
v -0.054115 0.018243 -0.045111
v -0.039507 -0.006366 -0.032612
v -0.041919 -0.003626 -0.030503
v -0.039553 -0.015079 0.002390
v -0.059889 0.017628 0.017563
v -0.059941 0.016852 0.012646
v -0.061213 0.018037 0.004702
v -0.013127 -0.033661 0.012205
v -0.017364 -0.029337 0.014353
v -0.040006 -0.008395 0.018071
v -0.051520 0.008148 0.023194
v -0.055057 0.012250 0.021882
v -0.053670 0.012277 0.026807
v -0.058012 0.016293 0.021208
v -0.062429 0.020993 0.014407
v -0.055781 0.016253 0.025505
v -0.060038 0.021202 0.019532
v -0.060877 0.023984 0.017592
v -0.052618 0.016147 0.029280
v -0.051636 0.028145 0.026137
v -0.054545 0.028533 0.022459
v -0.051461 0.031495 0.021616
v -0.048187 0.027884 0.029500
v -0.036775 0.030854 0.029969
v -0.046472 0.023595 0.031809
v -0.044756 0.027668 0.031234
v -0.040603 0.028243 0.032431
v -0.031635 0.030596 0.032175
v -0.042026 0.025977 0.032867
v -0.034873 0.027846 0.034127
v -0.025767 0.029460 0.033983
v -0.036095 0.023740 0.035001
v -0.030484 0.024319 0.035948
v -0.028382 0.027328 0.035385
v -0.021764 0.025668 0.036492
v -0.024234 0.021988 0.037282
v -0.017782 0.016685 0.038645
v -0.030578 0.019710 0.036862
v -0.024255 0.017959 0.037995
v -0.020136 0.012490 0.038895
v -0.026102 0.014685 0.038106
v -0.027452 0.011095 0.037995
v -0.032298 0.015144 0.037024
v -0.036852 0.019541 0.035591
v -0.037967 0.014422 0.035674
v -0.041901 0.019124 0.034200
v -0.044184 0.017105 0.033562
v -0.042913 0.012572 0.034032
v -0.032636 0.010237 0.036742
v -0.036929 -0.000897 0.033549
v -0.037505 0.009051 0.035120
v -0.031141 -0.004409 0.033786
v -0.036125 -0.004496 0.031652
v -0.046346 0.007721 0.031982
v -0.041369 -0.000089 0.031076
v -0.039681 -0.003441 0.028415
v -0.049602 0.007529 0.027741
v -0.050381 0.011539 0.030513
v -0.045395 0.004193 0.030016
v 0.032952 -0.042232 0.016621
v 0.024025 -0.026615 0.027990
v 0.009622 -0.005259 0.036451
v -0.008132 0.006695 0.039367
v -0.014463 0.009012 0.039345
v -0.021272 0.008801 0.038333
v -0.012547 0.012365 0.039004
v -0.016997 0.020674 0.037352
v 0.039334 -0.015265 0.028736
v 0.015410 -0.007384 0.035508
v 0.037643 -0.017987 0.029061
v 0.023282 -0.022550 0.029578
v 0.042954 -0.021406 0.027162
v 0.044180 -0.017663 0.027199
v 0.050377 -0.037346 0.016332
v 0.046376 -0.034885 0.020330
v 0.050668 -0.041204 0.013788
v 0.034533 -0.039821 0.018391
v 0.039885 -0.039509 0.018007
v 0.045990 -0.039101 0.017530
v 0.048281 -0.050107 0.004341
v 0.045678 -0.042242 0.014026
v 0.044470 -0.050527 0.003698
v 0.050660 -0.051764 0.000663
v 0.045039 -0.051201 -0.000495
v 0.024480 -0.045503 0.007702
v 0.025170 -0.046439 0.003498
v 0.018582 -0.044415 0.005733
v 0.054579 -0.041353 0.010026
v 0.074743 0.001326 -0.007145
v 0.058763 -0.043750 0.002372
v 0.063718 0.028326 -0.013864
v 0.059886 0.030500 -0.010199
v 0.056530 0.029351 -0.006409
v 0.043307 -0.014059 0.026365
v -0.015314 0.024380 0.034424
v -0.019059 0.028758 0.033610
v 0.035742 0.036444 -0.013496
v 0.053156 0.031593 -0.007817
v 0.000859 0.043749 -0.038832
v 0.030748 0.037187 -0.014957
v 0.056034 0.031536 -0.012383
v 0.061103 0.029278 -0.024200
v 0.062087 0.028395 -0.030261
v 0.065295 0.026908 -0.026798
v 0.073238 0.020876 -0.025697
v 0.060729 0.027855 -0.034755
v 0.074303 0.017772 -0.030231
v 0.060689 0.015528 -0.044776
v 0.056818 0.027183 -0.038074
v 0.039516 0.028818 -0.048069
v 0.029325 0.023812 -0.055489
v 0.056620 0.015700 -0.046893
v 0.015281 0.032865 -0.053848
v 0.011604 0.032560 -0.055262
v -0.003505 -0.007164 -0.071504
v -0.021574 0.040306 -0.044892
v -0.016862 0.039971 -0.045759
v -0.050847 0.043237 -0.031440
v -0.048936 0.015606 -0.047990
v -0.028726 -0.002081 -0.060581
v -0.007916 -0.013035 -0.069978
v -0.003764 -0.010786 -0.071158
v 0.019824 -0.017807 -0.067860
v -0.060054 0.041042 -0.024100
v -0.051975 0.033419 0.016598
v -0.046589 0.033227 0.018924
v -0.040861 0.033854 0.016975
v -0.038459 0.034484 0.013826
v -0.033257 0.031846 0.027183
v -0.065569 0.038766 -0.018126
v -0.061968 0.038738 -0.014399
v -0.054936 0.018489 -0.040265
v -0.063810 0.039444 -0.021508
v 0.060239 0.011599 -0.046582
v 0.066792 -0.007431 -0.048116
v 0.065587 -0.009922 -0.049949
v -0.046723 0.019153 0.032171
v -0.041375 0.023339 0.033688
vn 0.6430 -0.5301 -0.5527
vn 0.7366 -0.6763 0.0096
vn 0.4756 -0.8765 -0.0751
vn 0.0883 -0.8794 -0.4678
vn -0.3969 -0.7071 -0.5852
vn 0.0574 -0.4269 -0.9025
vn 0.1687 0.0817 -0.9823
vn 0.6241 -0.0016 -0.7813
vn 0.9109 0.3881 -0.1398
vn 0.9580 -0.2184 0.1860
vn 0.8683 -0.4922 0.0605
vn 0.5830 -0.8120 -0.0280
vn 0.3848 -0.9227 0.0223
vn 0.1117 -0.9734 -0.1998
vn 0.8250 -0.4466 0.3463
vn 0.3296 -0.9095 0.2532
vn -0.0031 -0.9930 -0.1179
vn -0.1171 -0.9516 -0.2842
vn -0.1622 -0.8502 -0.5009
vn -0.1778 -0.9577 -0.2264
vn -0.3993 -0.8121 -0.4255
vn -0.6455 -0.7229 -0.2464
vn -0.5341 -0.8362 -0.1243
vn -0.6291 -0.7470 -0.2149
vn -0.2618 -0.8959 -0.3590
vn -0.2447 -0.9633 -0.1101
vn -0.3527 -0.9325 -0.0771
vn -0.6418 -0.7508 -0.1565
vn -0.4517 -0.8788 0.1539
vn -0.7085 -0.7033 -0.0588
vn -0.7611 -0.0573 -0.6462
vn -0.7442 -0.6623 0.0863
vn -0.8106 -0.5648 -0.1543
vn -0.7301 -0.6393 -0.2412
vn -0.9037 -0.4260 -0.0436
vn -0.7925 -0.5734 0.2077
vn -0.8518 -0.4776 0.2153
vn -0.8345 -0.5459 0.0744
vn -0.3900 -0.8055 0.4462
vn -0.5509 -0.7324 0.4002
vn -0.6837 -0.6667 0.2969
vn -0.7672 -0.5994 0.2284
vn -0.8563 -0.3887 0.3401
vn -0.7890 -0.4209 0.4476
vn -0.9659 -0.1666 0.1983
vn -0.8375 0.0195 0.5460
vn -0.8174 -0.1062 0.5662
vn -0.8388 0.3254 0.4365
vn -0.6101 0.4962 0.6177
vn -0.6582 0.0214 0.7525
vn -0.6639 0.5631 0.4921
vn -0.3954 0.8197 0.4145
vn -0.4605 0.5529 0.6945
vn -0.1469 0.8989 0.4127
vn -0.2537 0.6099 0.7507
vn -0.4465 0.1949 0.8733
vn -0.3414 0.5001 0.7958
vn -0.0480 0.8631 0.5027
vn -0.1787 0.4866 0.8552
vn -0.2977 0.2813 0.9123
vn 0.0451 0.8019 0.5958
vn -0.0964 0.4527 0.8864
vn -0.2180 0.2192 0.9510
vn -0.1530 0.2379 0.9591
vn 0.1046 0.4296 0.8969
vn -0.0828 0.2155 0.9730
vn 0.0391 0.1888 0.9812
vn -0.1022 0.1377 0.9852
vn -0.1664 0.1502 0.9745
vn -0.0853 0.0278 0.9960
vn -0.1368 0.0655 0.9884
vn -0.1631 -0.0981 0.9817
vn -0.2056 0.0390 0.9779
vn -0.2699 -0.0133 0.9628
vn -0.2385 0.1258 0.9630
vn -0.2331 -0.1256 0.9643
vn -0.3115 0.1061 0.9443
vn -0.3830 0.0432 0.9227
vn -0.3463 -0.0773 0.9349
vn -0.3500 -0.3497 0.8691
vn -0.2853 -0.1561 0.9457
vn -0.2075 -0.4691 0.8584
vn -0.4590 -0.6319 0.6246
vn -0.6160 -0.5453 0.5685
vn -0.5258 -0.3175 0.7892
vn -0.6438 -0.6656 0.3775
vn -0.7278 -0.5634 0.3910
vn -0.6792 -0.5059 0.5318
vn -0.6142 -0.2472 0.7495
vn -0.0576 -0.7555 0.6527
vn -0.0191 -0.5057 0.8625
vn 0.0472 -0.2133 0.9759
vn 0.1235 0.0025 0.9923
vn -0.0556 -0.0849 0.9948
vn -0.1365 -0.2278 0.9641
vn 0.1924 0.2348 0.9528
vn 0.2706 0.3717 0.8880
vn 0.3392 0.1723 0.9248
vn 0.2154 -0.0011 0.9765
vn 0.2046 -0.1819 0.9618
vn 0.0769 -0.3389 0.9377
vn 0.3775 -0.2652 0.8872
vn 0.5528 0.0373 0.8325
vn 0.6456 -0.2933 0.7051
vn 0.3681 -0.4121 0.8334
vn 0.4315 -0.5967 0.6766
vn 0.2139 -0.6275 0.7487
vn 0.0590 -0.5867 0.8076
vn 0.0975 -0.5972 0.7962
vn 0.1777 -0.8168 0.5489
vn 0.1517 -0.7451 0.6494
vn 0.1020 -0.9337 0.3433
vn -0.0912 -0.9349 0.3430
vn -0.1413 -0.9860 0.0890
vn -0.2127 -0.9614 0.1743
vn -0.2044 -0.9159 0.3456
vn -0.2540 -0.9406 0.2252
vn 0.6914 -0.4033 0.5994
vn 0.8927 0.1129 0.4364
vn 0.6989 -0.5011 0.5103
vn 0.6746 0.6973 0.2423
vn 0.5217 0.7758 0.3549
vn 0.4579 0.5951 0.6604
vn 0.4930 0.3663 0.7892
vn 0.3946 0.4695 0.7899
vn 0.2334 0.7556 0.6120
vn 0.2478 0.8951 0.3707
vn 0.1784 0.9734 0.1436
vn 0.0858 0.9781 -0.1898
vn 0.2526 0.9675 -0.0153
vn 0.0843 0.9789 0.1860
vn 0.3631 0.9295 -0.0650
vn 0.4401 0.8799 -0.1788
vn 0.5614 0.8203 -0.1093
vn 0.6549 0.7552 -0.0283
vn 0.4619 0.7706 -0.4391
vn 0.6608 0.4260 -0.6179
vn 0.5500 0.4059 -0.7299
vn 0.4510 0.5953 -0.6650
vn 0.3413 0.7030 -0.6239
vn 0.2996 0.4771 -0.8262
vn 0.4222 0.4023 -0.8124
vn 0.2357 0.7478 -0.6207
vn 0.0486 0.6375 -0.7689
vn -0.1736 0.1593 -0.9719
vn -0.1640 0.7266 -0.6672
vn -0.0502 0.7765 -0.6281
vn -0.3415 0.2906 -0.8938
vn -0.3161 0.8734 -0.3705
vn -0.5953 -0.1564 -0.7882
vn -0.4821 -0.1804 -0.8573
vn -0.1839 -0.2555 -0.9492
vn -0.0903 -0.2420 -0.9661
vn 0.0224 -0.3633 -0.9314
vn -0.4416 0.8550 -0.2719
vn 0.0061 0.9819 0.1895
vn -0.3243 0.8967 0.3011
vn -0.0628 0.9685 0.2408
vn -0.0221 0.9792 0.2017
vn -0.0002 0.9732 0.2300
vn -0.8931 0.4498 -0.0098
vn -0.1834 0.9585 0.2181
vn -0.8235 0.2102 -0.5270
vn -0.9130 -0.3854 -0.1342
vn -0.4087 0.9122 -0.0298
vn 0.5238 0.2873 -0.8019
vn 0.5809 0.2077 -0.7871
vn 0.7030 0.2189 -0.6766
vn -0.4497 0.0782 0.8897
vn -0.2907 0.1884 0.9381
s 1
f 1//1 11//2 2//3
f 1//1 2//3 3//4
f 1//1 3//4 4//5
f 1//1 4//5 5//6
f 1//1 5//6 6//7
f 1//1 6//7 7//8
f 1//1 7//8 8//9
f 1//1 8//9 9//10
f 1//1 9//10 10//11
f 1//1 10//11 11//2
f 2//3 11//2 13//12
f 10//11 12//13 11//2
f 11//2 12//13 13//12
f 2//3 13//12 12//13
f 2//3 12//13 3//4
f 3//4 12//13 18//14
f 10//11 14//15 12//13
f 12//13 14//15 15//16
f 12//13 15//16 16//17
f 12//13 16//17 17//18
f 12//13 17//18 18//14
f 3//4 18//14 17//18
f 3//4 17//18 21//19
f 17//18 15//16 19//20
f 17//18 19//20 20//21
f 17//18 20//21 21//19
f 17//18 16//17 15//16
f 3//4 21//19 20//21
f 3//4 20//21 4//5
f 4//5 20//21 23//22
f 20//21 27//23 22//24
f 20//21 22//24 23//22
f 20//21 19//20 24//25
f 20//21 24//25 25//26
f 20//21 25//26 26//27
f 20//21 26//27 27//23
f 22//24 27//23 30//28
f 26//27 28//29 27//23
f 27//23 28//29 29//30
f 27//23 29//30 30//28
f 22//24 30//28 29//30
f 31//31 29//30 34//32
f 31//31 33//33 29//30
f 32//34 29//30 33//33
f 32//34 22//24 29//30
f 29//30 28//29 34//32
f 31//31 34//32 37//35
f 34//32 42//36 35//37
f 34//32 35//37 36//38
f 34//32 36//38 37//35
f 34//32 28//29 38//39
f 34//32 38//39 39//40
f 34//32 39//40 40//41
f 34//32 40//41 41//42
f 34//32 41//42 42//36
f 35//37 42//36 44//43
f 41//42 43//44 42//36
f 42//36 43//44 44//43
f 35//37 44//43 45//45
f 45//45 44//43 47//46
f 44//43 43//44 46//47
f 44//43 46//47 47//46
f 45//45 47//46 48//48
f 48//48 47//46 50//49
f 47//46 46//47 49//50
f 47//46 49//50 50//49
f 48//48 50//49 51//51
f 51//51 50//49 52//52
f 52//52 50//49 53//53
f 50//49 49//50 53//53
f 52//52 53//53 54//54
f 54//54 53//53 57//55
f 53//53 49//50 55//56
f 53//53 55//56 56//57
f 53//53 56//57 57//55
f 54//54 57//55 58//58
f 58//58 57//55 60//59
f 57//55 56//57 59//60
f 57//55 59//60 60//59
f 58//58 60//59 61//61
f 61//61 60//59 64//62
f 60//59 59//60 62//63
f 60//59 62//63 63//64
f 60//59 63//64 64//62
f 61//61 64//62 65//65
f 65//65 64//62 66//66
f 64//62 63//64 66//66
f 65//65 66//66 67//67
f 67//67 66//66 69//68
f 66//66 63//64 68//69
f 66//66 68//69 69//68
f 67//67 69//68 70//70
f 70//70 69//68 71//71
f 69//68 68//69 71//71
f 72//72 71//71 73//73
f 72//72 70//70 71//71
f 73//73 71//71 68//69
f 72//72 73//73 75//74
f 73//73 68//69 74//75
f 73//73 74//75 75//74
f 72//72 75//74 79//76
f 75//74 74//75 76//77
f 75//74 76//77 77//78
f 75//74 77//78 78//79
f 75//74 78//79 79//76
f 72//72 79//76 80//80
f 80//80 79//76 81//81
f 79//76 78//79 81//81
f 80//80 81//81 78//79
f 82//82 80//80 83//83
f 82//82 72//72 80//80
f 83//83 80//80 85//84
f 80//80 78//79 84//85
f 80//80 84//85 85//84
f 83//83 85//84 86//86
f 86//86 85//84 87//87
f 87//87 85//84 89//88
f 85//84 84//85 88//89
f 85//84 88//89 89//88
f 87//87 89//88 88//89
f 87//87 88//89 43//44
f 43//44 88//89 49//50
f 88//89 84//85 78//79
f 88//89 78//79 77//78
f 88//89 77//78 49//50
f 40//41 87//87 43//44
f 40//41 86//86 87//87
f 39//40 86//86 40//41
f 39//40 83//83 86//86
f 38//39 83//83 39//40
f 38//39 82//82 83//83
f 38//39 90//90 82//82
f 90//90 91//91 82//82
f 82//82 91//91 92//92
f 82//82 92//92 93//93
f 82//82 93//93 94//94
f 82//82 94//94 95//95
f 82//82 95//95 72//72
f 94//94 72//72 95//95
f 67//67 94//94 96//96
f 67//67 70//70 94//94
f 96//96 94//94 93//93
f 94//94 70//70 72//72
f 97//97 96//96 98//98
f 97//97 67//67 96//96
f 98//98 96//96 99//99
f 96//96 93//93 99//99
f 98//98 99//99 100//100
f 100//100 99//99 101//101
f 99//99 93//93 92//92
f 99//99 92//92 101//101
f 100//100 101//101 102//102
f 102//102 101//101 91//91
f 101//101 92//92 91//91
f 103//103 102//102 104//104
f 103//103 100//100 102//102
f 104//104 102//102 105//105
f 102//102 91//91 105//105
f 104//104 105//105 106//106
f 106//106 105//105 109//107
f 105//105 91//91 107//108
f 105//105 107//108 108//109
f 105//105 108//109 109//107
f 106//106 109//107 110//110
f 110//110 109//107 111//111
f 109//107 108//109 90//90
f 109//107 90//90 111//111
f 110//110 111//111 90//90
f 15//16 110//110 113//112
f 15//16 106//106 110//110
f 110//110 90//90 112//113
f 110//110 112//113 113//112
f 15//16 113//112 114//114
f 113//112 112//113 114//114
f 15//16 114//114 25//26
f 25//26 114//114 112//113
f 25//26 112//113 116//115
f 112//113 90//90 115//116
f 112//113 115//116 116//115
f 25//26 116//115 26//27
f 26//27 116//115 115//116
f 26//27 115//116 117//117
f 115//116 90//90 38//39
f 115//116 38//39 117//117
f 26//27 117//117 28//29
f 117//117 38//39 28//29
f 90//90 108//109 107//108
f 90//90 107//108 91//91
f 15//16 118//118 106//106
f 104//104 106//106 118//118
f 119//119 118//118 14//15
f 119//119 104//104 118//118
f 14//15 118//118 120//120
f 15//16 120//120 118//118
f 14//15 120//120 15//16
f 8//9 119//119 9//10
f 8//9 121//121 119//119
f 9//10 119//119 14//15
f 121//121 122//122 119//119
f 119//119 122//122 123//123
f 119//119 123//123 124//124
f 119//119 124//124 103//103
f 119//119 103//103 104//104
f 123//123 125//125 124//124
f 124//124 125//125 97//97
f 124//124 97//97 98//98
f 124//124 98//98 103//103
f 123//123 126//126 125//125
f 126//126 97//97 125//125
f 123//123 128//127 126//126
f 127//128 126//126 128//127
f 127//128 61//61 126//126
f 126//126 61//61 65//65
f 126//126 65//65 97//97
f 122//122 128//127 123//123
f 122//122 127//128 128//127
f 129//129 127//128 131//130
f 129//129 130//131 127//128
f 122//122 131//130 127//128
f 130//131 58//58 127//128
f 127//128 58//58 61//61
f 129//129 131//130 132//132
f 132//132 131//130 122//122
f 133//133 129//129 132//132
f 133//133 132//132 134//134
f 134//134 132//132 121//121
f 121//121 132//132 122//122
f 8//9 134//134 135//135
f 8//9 133//133 134//134
f 134//134 121//121 135//135
f 8//9 135//135 121//121
f 8//9 136//136 133//133
f 136//136 129//129 133//133
f 8//9 137//137 136//136
f 137//137 138//138 136//136
f 136//136 138//138 139//139
f 136//136 139//139 140//140
f 136//136 140//140 129//129
f 141//141 140//140 142//142
f 141//141 143//143 140//140
f 142//142 140//140 138//138
f 129//129 140//140 143//143
f 140//140 139//139 138//138
f 144//144 143//143 141//141
f 144//144 129//129 143//143
f 6//7 144//144 141//141
f 6//7 145//145 144//144
f 145//145 146//146 144//144
f 144//144 146//146 147//147
f 144//144 147//147 129//129
f 146//146 129//129 147//147
f 31//31 146//146 149//148
f 31//31 148//149 146//146
f 145//145 149//148 146//146
f 148//149 129//129 146//146
f 31//31 149//148 150//150
f 150//150 149//148 145//145
s 0
f 4//151 150//151 151//151
s 1
f 4//5 31//31 150//150
f 150//150 145//145 151//152
f 4//5 151//152 5//6
f 5//6 151//152 152//153
f 151//152 145//145 152//153
f 5//6 152//153 153//154
f 6//7 152//153 145//145
f 6//7 153//154 152//153
f 5//6 153//154 6//7
f 31//31 154//155 148//149
f 148//149 158//156 129//129
f 148//149 154//155 155//157
f 148//149 155//157 156//158
f 148//149 156//158 157//159
f 148//149 157//159 158//156
f 129//129 158//156 159//160
f 157//159 159//160 158//156
f 129//129 159//160 130//131
f 156//158 159//160 157//159
f 156//158 58//58 159//160
f 159//160 58//58 130//131
f 155//157 54//54 156//158
f 156//158 54//54 58//58
f 160//161 155//157 161//162
f 160//161 52//52 155//157
f 154//155 161//162 155//157
f 155//157 52//52 54//54
f 160//161 161//162 154//155
f 31//31 160//161 163//163
f 31//31 162//164 160//161
f 37//35 160//161 162//164
f 37//35 45//45 160//161
s 0
f 160//165 154//165 163//165
s 1
f 160//161 45//45 48//48
f 160//161 48//48 51//51
f 160//161 51//51 52//52
f 31//31 163//163 154//155
f 31//31 37//35 162//164
f 6//7 142//142 164//166
f 6//7 141//141 142//142
f 142//142 138//138 164//166
f 6//7 164//166 166//167
f 164//166 138//138 165//168
f 164//166 165//168 166//167
f 6//7 166//167 7//8
f 7//8 166//167 165//168
f 7//8 165//168 8//9
f 8//9 165//168 137//137
f 165//168 138//138 137//137
f 103//103 98//98 100//100
f 97//97 65//65 67//67
f 49//50 77//78 167//169
f 55//56 77//78 76//77
f 55//56 167//169 77//78
f 49//50 167//169 55//56
f 55//56 76//77 168//170
f 76//77 74//75 168//170
f 55//56 168//170 59//60
f 59//60 168//170 62//63
f 62//63 168//170 74//75
f 62//63 74//75 68//69
f 62//63 68//69 63//64
f 55//56 59//60 56//57
f 43//44 49//50 46//47
f 37//35 36//38 45//45
f 35//37 45//45 36//38
f 40//41 43//44 41//42
f 31//31 32//34 33//33
f 4//5 32//34 31//31
f 4//5 23//22 32//34
f 23//22 22//24 32//34
f 15//16 25//26 19//20
f 19//20 25//26 24//25
f 9//10 14//15 10//11
